<svg width="24" height="24" viewBox="0 0 24 24" fill="none" xmlns="http://www.w3.org/2000/svg">
<g clip-path="url(#clip0_4319_50586)">
<path d="M17.8333 5.33333H16.9158C16.5283 3.43417 14.845 2 12.8333 2H11.1667C9.155 2 7.47083 3.43417 7.08417 5.33333H6.16667C3.86917 5.33333 2 7.2025 2 9.5V17.8333C2 20.1308 3.86917 22 6.16667 22H7V9.5C7 9.03917 7.37333 8.66667 7.83333 8.66667C8.29333 8.66667 8.66667 9.03917 8.66667 9.5V22H15.3333V9.5C15.3333 9.03917 15.7058 8.66667 16.1667 8.66667C16.6275 8.66667 17 9.03917 17 9.5V22H17.8333C20.1308 22 22 20.1308 22 17.8333V9.5C22 7.2025 20.1308 5.33333 17.8333 5.33333ZM8.81 5.33333C9.15417 4.36333 10.08 3.66667 11.1667 3.66667H12.8333C13.92 3.66667 14.8458 4.36333 15.19 5.33333H8.81Z" fill="#396860"/>
</g>
<defs>
<clipPath id="clip0_4319_50586">
<rect width="20" height="20" fill="white" transform="translate(2 2)"/>
</clipPath>
</defs>
</svg>
