<svg width="24" height="24" viewBox="0 0 24 24" fill="none" xmlns="http://www.w3.org/2000/svg">
<g clip-path="url(#clip0_4319_50600)">
<path d="M20.7961 13.3849L19.2127 7.68828C18.7486 6.01939 17.74 4.55352 16.3472 3.52367C14.9543 2.49382 13.2572 1.9591 11.5256 2.0045C9.794 2.0499 8.12724 2.67282 6.79028 3.77424C5.45333 4.87565 4.5229 6.39236 4.1469 8.08328L2.92106 13.5958C2.78566 14.2049 2.78879 14.8366 2.93022 15.4444C3.07166 16.0521 3.34778 16.6203 3.73821 17.1071C4.12865 17.5938 4.62341 17.9866 5.18599 18.2566C5.74856 18.5265 6.36458 18.6666 6.98856 18.6666H7.9169C8.10816 19.6085 8.61917 20.4553 9.36335 21.0636C10.1075 21.6718 11.0391 22.0041 12.0002 22.0041C12.9614 22.0041 13.8929 21.6718 14.6371 21.0636C15.3813 20.4553 15.8923 19.6085 16.0836 18.6666H16.7819C17.4242 18.6667 18.0579 18.5182 18.6334 18.2328C19.2088 17.9474 19.7105 17.5329 20.0992 17.0215C20.488 16.5101 20.7532 15.9158 20.8742 15.285C20.9953 14.6541 20.968 14.0039 20.7961 13.3849ZM12.0002 20.3333C11.485 20.3311 10.983 20.1699 10.563 19.8715C10.1429 19.5732 9.8253 19.1524 9.65356 18.6666H14.3469C14.1752 19.1524 13.8575 19.5732 13.4375 19.8715C13.0174 20.1699 12.5154 20.3311 12.0002 20.3333ZM18.7719 16.0124C18.5397 16.3205 18.2388 16.5702 17.8932 16.7416C17.5476 16.913 17.1668 17.0015 16.7811 16.9999H6.98856C6.61422 16.9999 6.24466 16.9157 5.90718 16.7538C5.5697 16.5918 5.2729 16.3561 5.0387 16.064C4.80449 15.772 4.63886 15.4311 4.55403 15.0665C4.4692 14.7019 4.46733 14.3229 4.54856 13.9574L5.77356 8.44411C6.06886 7.11595 6.79965 5.92462 7.84978 5.05949C8.8999 4.19436 10.2091 3.70509 11.5692 3.66946C12.9293 3.63383 14.2623 4.05388 15.3563 4.86284C16.4503 5.6718 17.2425 6.82323 17.6069 8.13411L19.1902 13.8308C19.2948 14.2019 19.3115 14.5923 19.2389 14.9711C19.1663 15.3498 19.0064 15.7063 18.7719 16.0124Z" fill="#9F9E98"/>
</g>
<defs>
<clipPath id="clip0_4319_50600">
<rect width="20" height="20" fill="white" transform="translate(2 2)"/>
</clipPath>
</defs>
</svg>
