<svg width="24" height="24" viewBox="0 0 24 24" fill="none" xmlns="http://www.w3.org/2000/svg">
<g clip-path="url(#clip0_4319_50604)">
<path d="M8.18652 19.5C8.50957 20.2428 9.04255 20.8751 9.71998 21.3193C10.3974 21.7634 11.1898 22 11.9999 22C12.8099 22 13.6023 21.7634 14.2797 21.3193C14.9572 20.8751 15.4901 20.2428 15.8132 19.5H8.18652Z" fill="#396860"/>
<path d="M20.6598 12.4574L19.2132 7.68828C18.7499 6.02023 17.7427 4.55475 16.3514 3.52453C14.9601 2.4943 13.2646 1.95837 11.5339 2.00184C9.8033 2.04531 8.13678 2.66568 6.79898 3.76445C5.46118 4.86322 4.52879 6.37741 4.14984 8.06661L3.02651 12.6808C2.8772 13.2939 2.86911 13.9329 3.00285 14.5496C3.13659 15.1664 3.40866 15.7446 3.79853 16.2408C4.18839 16.737 4.68588 17.1382 5.25344 17.4141C5.82099 17.6899 6.44379 17.8333 7.07484 17.8333H16.6723C17.323 17.8333 17.9645 17.681 18.5457 17.3885C19.1268 17.096 19.6314 16.6714 20.019 16.1489C20.4066 15.6263 20.6665 15.0203 20.7778 14.3793C20.889 13.7382 20.8486 13.0801 20.6598 12.4574Z" fill="#396860"/>
</g>
<defs>
<clipPath id="clip0_4319_50604">
<rect width="20" height="20" fill="white" transform="translate(2 2)"/>
</clipPath>
</defs>
</svg>
