<svg width="178" height="128" viewBox="0 0 178 128" fill="none" xmlns="http://www.w3.org/2000/svg">
<g filter="url(#filter0_d_4387_24618)">
<path d="M20 32C20 23.1634 27.1634 16 36 16H142C150.837 16 158 23.1634 158 32V88C158 96.8366 150.837 104 142 104H36C27.1634 104 20 96.8366 20 88V32Z" fill="#649D91" shape-rendering="crispEdges"/>
<path d="M89 35C83.5 35 79 39.5 79 45C79 50.5 83.5 55 89 55C94.5 55 99 50.5 99 45C99 39.5 94.5 35 89 35ZM89 53C84.59 53 81 49.41 81 45C81 40.59 84.59 37 89 37C93.41 37 97 40.59 97 45C97 49.41 93.41 53 89 53ZM94.2975 41.2925C93.9072 40.8994 93.2717 40.8983 92.88 41.29L87 47.17L85.1157 45.293C84.7257 44.9045 84.0949 44.9051 83.7057 45.2943C83.3159 45.6841 83.3159 46.3159 83.7057 46.7057L86.2929 49.2929C86.6834 49.6834 87.3166 49.6834 87.7071 49.2929L94.295 42.705C94.6848 42.3152 94.6859 41.6836 94.2975 41.2925Z" fill="white"/>
<path d="M66.792 78.144H70.904V80H66.792V78.144ZM57.784 69.28H63.656V71.168H57.784V69.28ZM65.944 68.24H71.768V80.992H69.832V70.096H67.784V81.12H65.944V68.24ZM63.176 69.28H65.032C65.032 69.28 65.032 69.92 65.032 70.16C64.888 77.008 64.776 79.472 64.264 80.224C63.896 80.752 63.56 80.944 63.032 81.04C62.552 81.152 61.832 81.152 61.096 81.12C61.064 80.56 60.856 79.728 60.536 79.184C61.176 79.248 61.752 79.248 62.056 79.248C62.296 79.264 62.44 79.184 62.6 78.96C62.936 78.48 63.064 76.176 63.176 69.712V69.28ZM59.688 66.64H61.576C61.56 72.944 61.496 78.256 58.728 81.44C58.424 80.976 57.784 80.336 57.304 80.032C59.8 77.216 59.672 72.496 59.688 66.64ZM76.664 67.312H81.192V69.264H76.664V67.312ZM80.248 67.312H82.232C82.232 70.352 82.664 76.24 88.6 79.712C88.152 80.064 87.384 80.912 87.048 81.392C80.952 77.728 80.248 70.576 80.248 67.312ZM79.56 70.816L81.768 71.216C80.648 75.968 78.52 79.408 75.176 81.424C74.824 81.008 73.928 80.208 73.432 79.856C76.776 78.16 78.696 75.056 79.56 70.816ZM89.368 76.448C90.6 76.208 92.472 75.744 94.28 75.296L94.504 76.992C92.968 77.504 91.336 78 90.024 78.4L89.368 76.448ZM93.48 66.528H95.352V81.424H93.48V66.528ZM90.36 68.272H92.2V76.896H90.36V68.272ZM97.8 69.28H104.584V71.088H97.8V69.28ZM97.816 66.4L99.784 66.784C99.112 69.776 97.928 72.64 96.376 74.432C96.072 74.048 95.304 73.312 94.872 72.976C96.296 71.472 97.304 68.992 97.816 66.4ZM101.848 70.24L103.768 70.528C102.744 75.936 100.616 79.44 96.376 81.488C96.2 81.04 95.64 80.16 95.288 79.744C99.192 78.08 101.048 75.024 101.848 70.24ZM98.552 70.512C99.4 74.768 101.24 78.256 104.744 79.776C104.312 80.16 103.704 80.928 103.432 81.44C99.64 79.568 97.848 75.808 96.808 70.848L98.552 70.512ZM105.864 67.376H120.168V68.944H105.864V67.376ZM109.224 70.32H120.312V71.936H109.224V70.32ZM106.872 72.944H109V74.464H106.872V72.944ZM105.48 75.424H108.92V76.976H105.48V75.424ZM111.112 78.528H115.272V79.728H111.112V78.528ZM109.384 66.416H111.288V69.76H109.384V66.416ZM114.664 66.416H116.568V69.808H114.664V66.416ZM112.712 73.248H113.976V75.056H112.712V73.248ZM106.136 70.496H107.528V74.784H106.136V70.496ZM112.712 77.168H113.976V78.976H112.712V77.168ZM111.288 74.512H115.192V77.696H111.288V76.576H113.88V75.632H111.288V74.512ZM110.504 72.544H115.144V73.744H111.832V80.624H110.504V72.544ZM108.376 70.32H109.96V75.136C109.96 77.12 109.816 79.776 108.904 81.488C108.6 81.232 107.88 80.848 107.48 80.704C108.312 79.136 108.376 76.88 108.376 75.12V70.32ZM115.192 69.392H116.904C116.888 76.096 118.072 79.792 118.904 79.792C119.176 79.776 119.336 79.296 119.416 77.76C119.752 78.096 120.264 78.448 120.664 78.592C120.456 81.008 119.944 81.456 118.76 81.456C116.52 81.456 115.384 76.688 115.192 69.392ZM117.528 69.648L118.648 68.816C119.144 69.136 119.752 69.616 120.024 69.984L118.84 70.88C118.584 70.512 118.024 70 117.528 69.648ZM118.12 72.512L119.816 72.8C119.016 76.64 117.464 79.632 115.08 81.488C114.792 81.184 114.088 80.592 113.688 80.336C116.072 78.72 117.48 75.968 118.12 72.512ZM106.248 76.016H107.592V77.376C107.592 78.48 107.432 80.304 106.424 81.44C106.168 81.216 105.64 80.848 105.336 80.688C106.136 79.712 106.248 78.24 106.248 77.328V76.016Z" fill="white"/>
</g>
<defs>
<filter id="filter0_d_4387_24618" x="0" y="0" width="178" height="128" filterUnits="userSpaceOnUse" color-interpolation-filters="sRGB">
<feFlood flood-opacity="0" result="BackgroundImageFix"/>
<feColorMatrix in="SourceAlpha" type="matrix" values="0 0 0 0 0 0 0 0 0 0 0 0 0 0 0 0 0 0 127 0" result="hardAlpha"/>
<feOffset dy="4"/>
<feGaussianBlur stdDeviation="10"/>
<feComposite in2="hardAlpha" operator="out"/>
<feColorMatrix type="matrix" values="0 0 0 0 0 0 0 0 0 0 0 0 0 0 0 0 0 0 0.08 0"/>
<feBlend mode="normal" in2="BackgroundImageFix" result="effect1_dropShadow_4387_24618"/>
<feBlend mode="normal" in="SourceGraphic" in2="effect1_dropShadow_4387_24618" result="shape"/>
</filter>
</defs>
</svg>
