<svg width="12" height="12" viewBox="0 0 12 12" fill="none" xmlns="http://www.w3.org/2000/svg">
<g clip-path="url(#clip0_6071_40054)">
<path d="M8.75047 0.958496C8.18744 0.967254 7.6367 1.12442 7.15385 1.41413C6.671 1.70384 6.27315 2.11583 6.00047 2.6085C5.72779 2.11583 5.32993 1.70384 4.84709 1.41413C4.36424 1.12442 3.81349 0.967254 3.25047 0.958496C2.35294 0.997491 1.50732 1.39012 0.898359 2.05061C0.289397 2.7111 -0.0334078 3.58576 0.000467427 4.4835C0.000467427 6.757 2.39347 9.24 4.40047 10.9235C4.84858 11.3001 5.41514 11.5065 6.00047 11.5065C6.58579 11.5065 7.15236 11.3001 7.60047 10.9235C9.60747 9.24 12.0005 6.757 12.0005 4.4835C12.0343 3.58576 11.7115 2.7111 11.1026 2.05061C10.4936 1.39012 9.648 0.997491 8.75047 0.958496ZM6.95797 10.1585C6.68996 10.3842 6.35084 10.5079 6.00047 10.5079C5.65009 10.5079 5.31098 10.3842 5.04297 10.1585C2.47397 8.003 1.00047 5.935 1.00047 4.4835C0.966288 3.85085 1.18365 3.23036 1.60515 2.75735C2.02665 2.28433 2.61808 1.99717 3.25047 1.9585C3.88285 1.99717 4.47429 2.28433 4.89579 2.75735C5.31728 3.23036 5.53465 3.85085 5.50047 4.4835C5.50047 4.6161 5.55315 4.74328 5.64691 4.83705C5.74068 4.93082 5.86786 4.9835 6.00047 4.9835C6.13308 4.9835 6.26025 4.93082 6.35402 4.83705C6.44779 4.74328 6.50047 4.6161 6.50047 4.4835C6.46629 3.85085 6.68365 3.23036 7.10515 2.75735C7.52665 2.28433 8.11808 1.99717 8.75047 1.9585C9.38285 1.99717 9.97429 2.28433 10.3958 2.75735C10.8173 3.23036 11.0346 3.85085 11.0005 4.4835C11.0005 5.935 9.52697 8.003 6.95797 10.1565V10.1585Z" fill="#9F9E98"/>
</g>
<defs>
<clipPath id="clip0_6071_40054">
<rect width="12" height="12" fill="white"/>
</clipPath>
</defs>
</svg>
