<svg width="24" height="24" viewBox="0 0 24 24" fill="none" xmlns="http://www.w3.org/2000/svg">
<g clip-path="url(#clip0_6071_39551)">
<path d="M16.5835 3.5975C15.6451 3.6121 14.7272 3.87405 13.9224 4.3569C13.1177 4.83974 12.4546 5.52639 12.0001 6.3475C11.5457 5.52639 10.8826 4.83974 10.0778 4.3569C9.27308 3.87405 8.35517 3.6121 7.41679 3.5975C5.92091 3.6625 4.51155 4.31688 3.49661 5.4177C2.48168 6.51851 1.94367 7.97627 2.00013 9.4725C2.00013 13.2617 5.98846 17.4 9.33346 20.2058C10.0803 20.8334 11.0246 21.1775 12.0001 21.1775C12.9757 21.1775 13.9199 20.8334 14.6668 20.2058C18.0118 17.4 22.0001 13.2617 22.0001 9.4725C22.0566 7.97627 21.5186 6.51851 20.5036 5.4177C19.4887 4.31688 18.0793 3.6625 16.5835 3.5975ZM13.596 18.9308C13.1493 19.307 12.5841 19.5133 12.0001 19.5133C11.4162 19.5133 10.851 19.307 10.4043 18.9308C6.12263 15.3383 3.66679 11.8917 3.66679 9.4725C3.60983 8.4181 3.9721 7.38395 4.6746 6.59559C5.37709 5.80723 6.36282 5.32863 7.41679 5.26417C8.47077 5.32863 9.45649 5.80723 10.159 6.59559C10.8615 7.38395 11.2238 8.4181 11.1668 9.4725C11.1668 9.69352 11.2546 9.90548 11.4109 10.0618C11.5672 10.218 11.7791 10.3058 12.0001 10.3058C12.2211 10.3058 12.4331 10.218 12.5894 10.0618C12.7457 9.90548 12.8335 9.69352 12.8335 9.4725C12.7765 8.4181 13.1388 7.38395 13.8413 6.59559C14.5438 5.80723 15.5295 5.32863 16.5835 5.26417C17.6374 5.32863 18.6232 5.80723 19.3257 6.59559C20.0282 7.38395 20.3904 8.4181 20.3335 9.4725C20.3335 11.8917 17.8776 15.3383 13.596 18.9275V18.9308Z" fill="#FFF"/>
</g>
<defs>
<clipPath id="clip0_6071_39551">
<rect width="20" height="20" fill="white" transform="translate(2 2)"/>
</clipPath>
</defs>
</svg>
