<svg width="20" height="20" viewBox="0 0 20 20" fill="none" xmlns="http://www.w3.org/2000/svg">
<g clip-path="url(#clip0_6071_39841)">
<path d="M16.675 4.21825C16.4108 3.49541 15.9311 2.8711 15.3007 2.42968C14.6703 1.98825 13.9196 1.75101 13.15 1.75H6.85C6.08041 1.75101 5.32968 1.98825 4.69927 2.42968C4.06886 2.8711 3.58916 3.49541 3.325 4.21825L1.3 9.7885C1.10084 10.3371 0.999306 10.9164 1 11.5V12.25C1.00134 12.8296 1.13758 13.4009 1.39793 13.9188C1.65828 14.4366 2.03559 14.8867 2.5 15.2335C2.5 15.2395 2.5 15.244 2.5 15.25V16.75C2.5 17.3467 2.73706 17.919 3.15901 18.341C3.58097 18.7629 4.15327 19 4.75 19C5.34674 19 5.91904 18.7629 6.34099 18.341C6.76295 17.919 7 17.3467 7 16.75V16H13V16.75C13 17.3467 13.2371 17.919 13.659 18.341C14.081 18.7629 14.6533 19 15.25 19C15.8467 19 16.419 18.7629 16.841 18.341C17.263 17.919 17.5 17.3467 17.5 16.75V15.25C17.5 15.244 17.5 15.2395 17.5 15.2335C17.9644 14.8867 18.3417 14.4366 18.6021 13.9188C18.8624 13.4009 18.9987 12.8296 19 12.25V11.5C19.0008 10.9166 18.8992 10.3376 18.7 9.78925L16.675 4.21825ZM4.7365 4.73125C4.89508 4.29788 5.18271 3.92354 5.56061 3.65868C5.93851 3.39383 6.38853 3.25119 6.85 3.25H13.15C13.6117 3.25088 14.0621 3.39338 14.4403 3.65825C14.8185 3.92313 15.1063 4.29764 15.265 4.73125L16.906 9.25H3.09325L4.7365 4.73125ZM5.5 16.75C5.5 16.9489 5.42099 17.1397 5.28033 17.2803C5.13968 17.421 4.94892 17.5 4.75 17.5C4.55109 17.5 4.36033 17.421 4.21967 17.2803C4.07902 17.1397 4 16.9489 4 16.75V15.925C4.24685 15.9751 4.49812 16.0003 4.75 16H5.5V16.75ZM16 16.75C16 16.9489 15.921 17.1397 15.7803 17.2803C15.6397 17.421 15.4489 17.5 15.25 17.5C15.0511 17.5 14.8603 17.421 14.7197 17.2803C14.579 17.1397 14.5 16.9489 14.5 16.75V16H15.25C15.5019 16.0003 15.7532 15.9751 16 15.925V16.75ZM17.5 12.25C17.5 12.8467 17.263 13.419 16.841 13.841C16.419 14.2629 15.8467 14.5 15.25 14.5H4.75C4.15327 14.5 3.58097 14.2629 3.15901 13.841C2.73706 13.419 2.5 12.8467 2.5 12.25V11.5C2.50306 11.2475 2.53349 10.996 2.59075 10.75H4V11.5C4 11.6989 4.07902 11.8897 4.21967 12.0303C4.36033 12.171 4.55109 12.25 4.75 12.25C4.94892 12.25 5.13968 12.171 5.28033 12.0303C5.42099 11.8897 5.5 11.6989 5.5 11.5V10.75H14.5V11.5C14.5 11.6989 14.579 11.8897 14.7197 12.0303C14.8603 12.171 15.0511 12.25 15.25 12.25C15.4489 12.25 15.6397 12.171 15.7803 12.0303C15.921 11.8897 16 11.6989 16 11.5V10.75H17.4093C17.4666 10.996 17.497 11.2475 17.5 11.5V12.25Z" fill="#262524"/>
</g>
<defs>
<clipPath id="clip0_6071_39841">
<rect width="18" height="18" fill="white" transform="translate(1 1)"/>
</clipPath>
</defs>
</svg>
