<svg width="20" height="20" viewBox="0 0 20 20" fill="none" xmlns="http://www.w3.org/2000/svg">
<g clip-path="url(#clip0_6071_39843)">
<path d="M18.2256 13.9735C18.2099 13.9517 17.0579 12.613 17.0579 12.613C17.2971 12.4367 17.4996 12.205 17.6436 11.9305C17.9901 11.2705 17.9429 10.4792 17.5199 9.86572C17.5011 9.83797 16.1054 8.29747 16.1054 8.29747C16.4489 8.12422 16.7354 7.84597 16.9184 7.49272C17.2334 6.88447 17.1831 6.15922 16.7864 5.59822C16.7706 5.57647 13.2891 1.63522 13.2891 1.63522C12.5774 0.829716 11.1719 0.830466 10.4609 1.63522L9.99961 2.15722L9.53911 1.63597C8.82736 0.830466 7.42186 0.830466 6.71086 1.63597C6.71086 1.63597 3.22786 5.57722 3.21286 5.59897C2.81686 6.15997 2.76586 6.88597 3.08086 7.49347C3.26386 7.84747 3.55036 8.12497 3.89386 8.29822C3.89386 8.29822 2.49886 9.83872 2.47936 9.86647C2.05636 10.48 2.00911 11.2712 2.35561 11.9312C2.49961 12.2057 2.70211 12.4375 2.94136 12.6137C2.94136 12.6137 1.78936 13.9525 1.77361 13.9742C1.29736 14.665 1.24411 15.5552 1.63411 16.2977C2.02411 17.0402 2.78686 17.5007 3.62536 17.5007H7.37311V18.2507C7.37311 18.6655 7.70836 19.0007 8.12311 19.0007C8.53786 19.0007 8.87311 18.6655 8.87311 18.2507V17.5007H11.1231V18.2507C11.1231 18.6655 11.4584 19.0007 11.8731 19.0007C12.2879 19.0007 12.6231 18.6655 12.6231 18.2507V17.5007H16.3701C17.2086 17.5007 17.9721 17.0395 18.3621 16.2977C18.7521 15.5552 18.6989 14.665 18.2226 13.9742L18.2256 13.9735ZM13.2869 15.5987C13.2231 15.7195 13.0319 16 12.6224 16H8.87536V9.24997C8.87536 8.83522 8.54011 8.49997 8.12536 8.49997C7.71061 8.49997 7.37536 8.83522 7.37536 9.24997V16H3.62761C3.21886 16 3.02686 15.7195 2.96386 15.5995C2.83711 15.358 2.84836 15.082 2.99161 14.8532L4.81336 12.7405C5.00536 12.5177 5.04961 12.205 4.92736 11.938C4.80511 11.6717 4.53811 11.5007 4.24561 11.5007H4.12786C3.85486 11.5007 3.72736 11.3132 3.68461 11.233C3.64411 11.1565 3.56911 10.963 3.69436 10.7507L5.95936 8.25472C6.15961 8.03497 6.20986 7.71847 6.08986 7.44697C5.96986 7.17622 5.70061 7.00072 5.40436 7.00072H4.75336C4.54036 7.00072 4.44586 6.86197 4.41511 6.80272C4.38286 6.74122 4.34386 6.62122 4.42336 6.48922L7.83736 2.62822C7.93486 2.51797 8.06086 2.50072 8.12686 2.50072C8.19286 2.50072 8.31886 2.51722 8.41711 2.62822L11.8304 6.48922C11.9091 6.62122 11.8709 6.74122 11.8386 6.80272C11.8079 6.86197 11.7134 7.00072 11.5004 7.00072H10.8494C10.5524 7.00072 10.2839 7.17547 10.1639 7.44697C10.0439 7.71847 10.0941 8.03497 10.2944 8.25472L12.5594 10.7507C12.6846 10.9622 12.6089 11.1565 12.5691 11.233C12.5264 11.3132 12.3989 11.5007 12.1259 11.5007H12.0081C11.7149 11.5007 11.4486 11.6717 11.3264 11.938C11.2041 12.205 11.2484 12.5177 11.4404 12.7405L13.2629 14.8532C13.4684 15.1795 13.3514 15.4817 13.2899 15.5987H13.2869ZM17.0369 15.5987C16.9731 15.7195 16.7819 16 16.3724 16H14.7441C14.9834 15.3257 14.8896 14.5742 14.4756 13.9735C14.4599 13.9517 13.3079 12.613 13.3079 12.613C13.5471 12.4367 13.7496 12.205 13.8936 11.9305C14.2401 11.2705 14.1929 10.4792 13.7699 9.86572C13.7511 9.83797 12.3554 8.29747 12.3554 8.29747C12.6989 8.12422 12.9854 7.84597 13.1684 7.49272C13.4834 6.88447 13.4331 6.15922 13.0364 5.59822C13.0206 5.57647 11.0009 3.28897 11.0009 3.28897L11.5851 2.62822C11.6826 2.51797 11.8086 2.50072 11.8746 2.50072C11.9406 2.50072 12.0666 2.51722 12.1649 2.62822L15.5781 6.48922C15.6569 6.62122 15.6186 6.74122 15.5864 6.80272C15.5556 6.86197 15.4611 7.00072 15.2481 7.00072H14.5971C14.3001 7.00072 14.0316 7.17547 13.9116 7.44697C13.7916 7.71847 13.8419 8.03497 14.0421 8.25472L16.3071 10.7507C16.4324 10.9622 16.3566 11.1565 16.3169 11.233C16.2741 11.3132 16.1466 11.5007 15.8736 11.5007H15.7559C15.4626 11.5007 15.1964 11.6717 15.0741 11.938C14.9519 12.205 14.9961 12.5177 15.1881 12.7405L17.0106 14.8532C17.2161 15.1795 17.0984 15.4817 17.0369 15.5987Z" fill="#262524"/>
</g>
<defs>
<clipPath id="clip0_6071_39843">
<rect width="18" height="18" fill="white" transform="translate(1 1)"/>
</clipPath>
</defs>
</svg>
