<svg width="14" height="14" viewBox="0 0 14 14" fill="none" xmlns="http://www.w3.org/2000/svg">
<g clip-path="url(#clip0_6071_39970)">
<path d="M11.0833 0H2.91667C1.30667 0 0 1.30667 0 2.91667V11.0833C0 12.6933 1.30667 14 2.91667 14H11.0833C12.6933 14 14 12.6933 14 11.0833V2.91667C14 1.30667 12.6933 0 11.0833 0ZM12.8333 2.91667V6.41667H7.58333V1.16667H11.0833C12.0458 1.16667 12.8333 1.95417 12.8333 2.91667ZM2.91667 1.16667H6.41667V6.41667H1.16667V2.91667C1.16667 1.95417 1.95417 1.16667 2.91667 1.16667ZM1.16667 11.0833V7.58333H6.41667V12.8333H2.91667C1.95417 12.8333 1.16667 12.0458 1.16667 11.0833ZM11.0833 12.8333H7.58333V7.58333H12.8333V11.0833C12.8333 12.0458 12.0458 12.8333 11.0833 12.8333Z" fill="#262524"/>
</g>
<defs>
<clipPath id="clip0_6071_39970">
<rect width="14" height="14" fill="white"/>
</clipPath>
</defs>
</svg>
