<svg width="14" height="14" viewBox="0 0 24 24" fill="none" xmlns="http://www.w3.org/2000/svg">
<g clip-path="url(#clip0_6071_39600)">
<path d="M6.16667 21.1667C5.34258 21.1667 4.537 20.9223 3.85179 20.4645C3.16659 20.0066 2.63254 19.3559 2.31717 18.5945C2.00181 17.8332 1.91929 16.9954 2.08006 16.1871C2.24083 15.3789 2.63767 14.6364 3.22039 14.0537C3.80311 13.471 4.54554 13.0742 5.35379 12.9134C6.16205 12.7526 6.99982 12.8351 7.76118 13.1505C8.52254 13.4659 9.17329 13.9999 9.63113 14.6851C10.089 15.3703 10.3333 16.1759 10.3333 17C10.332 18.1047 9.8926 19.1637 9.11149 19.9448C8.33037 20.7259 7.27133 21.1653 6.16667 21.1667ZM6.16667 14.5C5.67222 14.5 5.18887 14.6466 4.77774 14.9213C4.36662 15.196 4.04619 15.5865 3.85697 16.0433C3.66775 16.5001 3.61824 17.0028 3.71471 17.4877C3.81117 17.9727 4.04927 18.4181 4.3989 18.7678C4.74853 19.1174 5.19399 19.3555 5.67894 19.452C6.1639 19.5484 6.66656 19.4989 7.12338 19.3097C7.58019 19.1205 7.97064 18.8 8.24534 18.3889C8.52005 17.9778 8.66667 17.4944 8.66667 17C8.66667 16.337 8.40328 15.7011 7.93444 15.2322C7.46559 14.7634 6.82971 14.5 6.16667 14.5ZM17.8333 21.1667C17.0092 21.1667 16.2037 20.9223 15.5185 20.4645C14.8333 20.0066 14.2992 19.3559 13.9838 18.5945C13.6685 17.8332 13.586 16.9954 13.7467 16.1871C13.9075 15.3789 14.3043 14.6364 14.8871 14.0537C15.4698 13.471 16.2122 13.0742 17.0205 12.9134C17.8287 12.7526 18.6665 12.8351 19.4279 13.1505C20.1892 13.4659 20.84 13.9999 21.2978 14.6851C21.7556 15.3703 22 16.1759 22 17C21.9987 18.1047 21.5593 19.1637 20.7782 19.9448C19.997 20.7259 18.938 21.1653 17.8333 21.1667ZM17.8333 14.5C17.3389 14.5 16.8555 14.6466 16.4444 14.9213C16.0333 15.196 15.7129 15.5865 15.5236 16.0433C15.3344 16.5001 15.2849 17.0028 15.3814 17.4877C15.4778 17.9727 15.7159 18.4181 16.0656 18.7678C16.4152 19.1174 16.8607 19.3555 17.3456 19.452C17.8306 19.5484 18.3332 19.4989 18.79 19.3097C19.2469 19.1205 19.6373 18.8 19.912 18.3889C20.1867 17.9778 20.3333 17.4944 20.3333 17C20.3333 16.337 20.0699 15.7011 19.6011 15.2322C19.1323 14.7634 18.4964 14.5 17.8333 14.5ZM12.8333 17V13.6667C12.8332 13.5466 12.8072 13.4281 12.757 13.319C12.7068 13.21 12.6336 13.1131 12.5425 13.035L10.6375 11.3975C10.5475 11.3212 10.4751 11.2263 10.425 11.1195C10.375 11.0127 10.3486 10.8963 10.3475 10.7783C10.3437 10.6694 10.362 10.5608 10.4012 10.4592C10.4405 10.3575 10.4999 10.2648 10.5758 10.1867L12.2117 8.885C12.3761 8.73637 12.5926 8.65882 12.814 8.66928C13.0354 8.67974 13.2437 8.77736 13.3933 8.94083L15.56 10.9408C15.714 11.0833 15.916 11.1625 16.1258 11.1625H18.6667C18.8877 11.1625 19.0996 11.0747 19.2559 10.9184C19.4122 10.7621 19.5 10.5502 19.5 10.3292C19.5 10.1081 19.4122 9.89619 19.2559 9.73991C19.0996 9.58363 18.8877 9.49583 18.6667 9.49583H16.45L14.5525 7.74333C14.1081 7.2861 13.5046 7.01778 12.8675 6.99419C12.2303 6.97059 11.6086 7.19354 11.1317 7.61666L9.495 8.91666C9.23374 9.15522 9.02609 9.44651 8.88577 9.77129C8.74546 10.0961 8.67567 10.4469 8.68103 10.8007C8.68638 11.1544 8.76676 11.503 8.91685 11.8234C9.06693 12.1438 9.28331 12.4286 9.55167 12.6592L11.1667 14.0492V17C11.1667 17.221 11.2545 17.433 11.4107 17.5893C11.567 17.7455 11.779 17.8333 12 17.8333C12.221 17.8333 12.433 17.7455 12.5893 17.5893C12.7455 17.433 12.8333 17.221 12.8333 17ZM15.75 2.83333C15.338 2.83333 14.9352 2.95551 14.5926 3.18443C14.25 3.41335 13.9829 3.73873 13.8253 4.1194C13.6676 4.50008 13.6263 4.91897 13.7067 5.3231C13.7871 5.72723 13.9855 6.09844 14.2769 6.3898C14.5682 6.68116 14.9394 6.87958 15.3436 6.95996C15.7477 7.04035 16.1666 6.99909 16.5473 6.84141C16.9279 6.68373 17.2533 6.4167 17.4822 6.0741C17.7112 5.7315 17.8333 5.32871 17.8333 4.91666C17.8333 4.36413 17.6138 3.83422 17.2231 3.44352C16.8324 3.05282 16.3025 2.83333 15.75 2.83333Z" fill="#262524"/>
</g>
<defs>
<clipPath id="clip0_6071_39600">
<rect width="20" height="20" fill="white" transform="translate(2 2)"/>
</clipPath>
</defs>
</svg>
