<svg width="14" height="14" viewBox="0 0 14 14" fill="none" xmlns="http://www.w3.org/2000/svg">
<g clip-path="url(#clip0_6071_39969)">
<path d="M5.79872 7.02385C5.77769 7.8072 5.14067 8.42363 4.37046 8.40566C3.57922 8.38682 2.98076 7.73754 3.00047 6.91826C3.018 6.19055 3.68744 5.57324 4.43487 5.59427C5.20201 5.61618 5.81887 6.26284 5.79872 7.02341V7.02385Z" fill="#262524"/>
<path d="M8.59603 6.98094C8.61268 6.20021 9.24926 5.57984 10.019 5.59386C10.8107 5.60832 11.4136 6.25717 11.3947 7.07513C11.3781 7.8046 10.713 8.42365 9.96558 8.40481C9.19932 8.38597 8.57938 7.74151 8.59603 6.9805V6.98094Z" fill="#262524"/>
<path d="M5.79886 1.42409C5.7774 2.23153 5.14476 2.81992 4.31891 2.79977C3.56535 2.78137 2.97827 2.11894 3.00062 1.3128C3.02121 0.587284 3.68715 -0.0243259 4.42975 0.00152297C5.21091 0.028248 5.81946 0.660011 5.79886 1.42409Z" fill="#262524"/>
<path d="M5.79883 12.6186C5.78043 13.3976 5.15261 14.0118 4.38634 14C3.57714 13.9868 2.97868 13.3446 3.00058 12.5126C3.02074 11.7665 3.67747 11.182 4.4766 11.2C5.20474 11.2166 5.81635 11.8725 5.79883 12.6186Z" fill="#262524"/>
<path d="M9.99464 14C9.22355 13.9991 8.60055 13.3778 8.59573 12.6041C8.59091 11.826 9.21742 11.1987 9.99858 11.1991C10.7811 11.2 11.3975 11.8221 11.3953 12.6085C11.3931 13.3792 10.7675 14.0004 9.99464 13.9995V14Z" fill="#262524"/>
<path d="M8.59516 1.40192C8.59385 0.630393 9.21247 0.00739163 9.98706 -5.63462e-05C10.7643 -0.00750432 11.3947 0.619002 11.3947 1.39972C11.3947 2.17563 10.777 2.79819 10.0046 2.79994C9.22123 2.80213 8.59604 2.1822 8.59473 1.40192H8.59516Z" fill="#262524"/>
</g>
<defs>
<clipPath id="clip0_6071_39969">
<rect width="8.39562" height="14" fill="white" transform="translate(3)"/>
</clipPath>
</defs>
</svg>
