<svg width="14" height="14" viewBox="0 0 14 14" fill="none" xmlns="http://www.w3.org/2000/svg">
<g clip-path="url(#clip0_6071_39971)">
<path d="M13.2846 4.50397C13.011 4.18874 12.673 3.93597 12.2932 3.76276C11.9135 3.58956 11.501 3.49997 11.0837 3.50006H8.75674L8.95274 2.30947C9.02209 1.89021 8.93842 1.45999 8.717 1.09727C8.49557 0.734558 8.15114 0.463523 7.74652 0.333603C7.34191 0.203682 6.90408 0.223533 6.51288 0.389535C6.12168 0.555536 5.80319 0.856627 5.61549 1.23789L4.66699 3.15997V12.2501H10.6753C11.3773 12.2472 12.055 11.9924 12.585 11.5321C13.1151 11.0717 13.4622 10.4364 13.5634 9.74173L13.9747 6.82506C14.0328 6.41131 14.0013 5.9899 13.8822 5.58942C13.7631 5.18893 13.5593 4.81875 13.2846 4.50397Z" fill="#262524"/>
<path d="M0 6.41667V9.33333C0.00092625 10.1066 0.308514 10.8479 0.855295 11.3947C1.40208 11.9415 2.1434 12.2491 2.91667 12.25H3.5V3.5H2.91667C2.1434 3.50093 1.40208 3.80851 0.855295 4.35529C0.308514 4.90208 0.00092625 5.6434 0 6.41667Z" fill="#262524"/>
</g>
<defs>
<clipPath id="clip0_6071_39971">
<rect width="14" height="14" fill="white"/>
</clipPath>
</defs>
</svg>
