<svg width="14" height="14" viewBox="0 0 14 14" fill="none" xmlns="http://www.w3.org/2000/svg">
<g clip-path="url(#clip0_6071_39964)">
<path d="M11.0833 3.5H8.16667C6.55842 3.5 5.25 4.80842 5.25 6.41667V9.33333C5.25 10.1932 5.7225 10.9375 6.41667 11.3423V12.8333H5.83333C5.51075 12.8333 5.25 13.0947 5.25 13.4167C5.25 13.7387 5.51075 14 5.83333 14H13.4167C13.7392 14 14 13.7387 14 13.4167C14 13.0947 13.7392 12.8333 13.4167 12.8333H12.5417V11.4934C13.3957 11.1463 14 10.3104 14 9.33333V6.41667C14 4.80842 12.6916 3.5 11.0833 3.5ZM10.2083 7.58333V5.25H12.3783C12.6583 5.56033 12.8333 5.96692 12.8333 6.41667V7.58333H10.2083ZM6.41667 7.58333V6.41667C6.41667 5.96692 6.59225 5.56033 6.87167 5.25H9.04167V7.58333H6.41667ZM7.58333 12.8333V11.6667H11.375V12.8333H7.58333ZM11.6667 10.5H7.58333C6.93992 10.5 6.41667 9.97675 6.41667 9.33333V8.75H7.58333V9.33333C7.58333 9.65533 7.84408 9.91667 8.16667 9.91667C8.48925 9.91667 8.75 9.65533 8.75 9.33333V8.75H10.5V9.33333C10.5 9.65533 10.7607 9.91667 11.0833 9.91667C11.4059 9.91667 11.6667 9.65533 11.6667 9.33333V8.75H12.8333V9.33333C12.8333 9.97675 12.3101 10.5 11.6667 10.5ZM4.08333 10.5H1.16667V2.33333C1.16667 1.68992 1.68992 1.16667 2.33333 1.16667H2.91667C2.91667 1.81008 3.43992 2.33333 4.08333 2.33333H6.41667C7.06008 2.33333 7.58333 1.81008 7.58333 1.16667V0.583333C7.58333 0.261333 7.32258 0 7 0H2.33333C1.0465 0 0 1.0465 0 2.33333V12.8333C0 13.4767 0.52325 14 1.16667 14H2.33333C2.97675 14 3.5 13.4767 3.5 12.8333V11.6667H4.08333C4.40592 11.6667 4.66667 11.4053 4.66667 11.0833C4.66667 10.7613 4.40592 10.5 4.08333 10.5ZM2.33333 12.8333H1.16667V11.6667H2.33333V12.8333Z" fill="#262524"/>
</g>
<defs>
<clipPath id="clip0_6071_39964">
<rect width="14" height="14" fill="white"/>
</clipPath>
</defs>
</svg>
