<svg width="14" height="14" viewBox="0 0 14 14" fill="none" xmlns="http://www.w3.org/2000/svg">
<g clip-path="url(#clip0_6071_39967)">
<path d="M4.00342e-07 3.5L3.46031e-07 4.7425C0.00248056 5.00356 0.0915915 5.25641 0.253342 5.46134C0.415092 5.66628 0.640321 5.81169 0.893667 5.87475C1.14032 5.94228 1.35796 6.08899 1.51308 6.2923C1.66821 6.49562 1.75224 6.74427 1.75224 7C1.75224 7.25573 1.66821 7.50438 1.51308 7.70769C1.35795 7.91101 1.14032 8.05771 0.893667 8.12525C0.640321 8.18831 0.415092 8.33372 0.253342 8.53865C0.0915913 8.74359 0.00248038 8.99643 1.48674e-07 9.2575L9.43625e-08 10.5C7.40748e-08 10.9641 0.184374 11.4092 0.512563 11.7374C0.840752 12.0656 1.28587 12.25 1.75 12.25L4.08333 12.25L4.08333 9.91667C4.08333 9.76196 4.14479 9.61358 4.25419 9.50419C4.36358 9.39479 4.51196 9.33333 4.66667 9.33333C4.82138 9.33333 4.96975 9.39479 5.07915 9.50419C5.18854 9.61358 5.25 9.76196 5.25 9.91667L5.25 12.25L11.0833 12.25C11.8566 12.2491 12.5979 11.9415 13.1447 11.3947C13.6915 10.8479 13.9991 10.1066 14 9.33333L14 9.2575C13.9975 8.99644 13.9084 8.74359 13.7467 8.53865C13.5849 8.33372 13.3597 8.18831 13.1063 8.12525C12.8597 8.05771 12.642 7.91101 12.4869 7.7077C12.3318 7.50438 12.2478 7.25573 12.2478 7C12.2478 6.74427 12.3318 6.49562 12.4869 6.2923C12.642 6.08899 12.8597 5.94228 13.1063 5.87475C13.3597 5.81169 13.5849 5.66628 13.7467 5.46134C13.9084 5.25641 13.9975 5.00356 14 4.7425L14 4.66667C13.9991 3.8934 13.6915 3.15208 13.1447 2.60529C12.5979 2.05851 11.8566 1.75093 11.0833 1.75L5.25 1.75L5.25 4.08333C5.25 4.23804 5.18854 4.38642 5.07915 4.49581C4.96975 4.60521 4.82138 4.66667 4.66667 4.66667C4.51196 4.66667 4.36358 4.60521 4.25419 4.49581C4.14479 4.38642 4.08333 4.23804 4.08333 4.08333L4.08333 1.75L1.75 1.75C1.28587 1.75 0.840752 1.93437 0.512563 2.26256C0.184375 2.59075 4.2063e-07 3.03587 4.00342e-07 3.5ZM5.25 6.41667L5.25 7.58333C5.25 7.73804 5.18854 7.88642 5.07915 7.99581C4.96975 8.10521 4.82138 8.16667 4.66667 8.16667C4.51196 8.16667 4.36358 8.10521 4.25419 7.99581C4.14479 7.88642 4.08333 7.73804 4.08333 7.58333L4.08333 6.41667C4.08333 6.26196 4.14479 6.11358 4.25419 6.00419C4.36358 5.89479 4.51196 5.83333 4.66667 5.83333C4.82138 5.83333 4.96975 5.89479 5.07915 6.00419C5.18854 6.11358 5.25 6.26196 5.25 6.41667Z" fill="#262524"/>
</g>
<defs>
<clipPath id="clip0_6071_39967">
<rect width="14" height="14" fill="white" transform="translate(14) rotate(90)"/>
</clipPath>
</defs>
</svg>
