<svg width="40" height="40" viewBox="0 0 40 40" fill="none" xmlns="http://www.w3.org/2000/svg">
<g clip-path="url(#clip0_6071_39772)">
<path d="M17.4998 19.9999C18.6605 19.9998 19.8097 20.2306 20.8804 20.6789C21.951 21.1272 22.9218 21.7841 23.7361 22.6112C24.5505 23.4383 25.1921 24.4192 25.6236 25.4967C26.0552 26.5742 26.2681 27.7269 26.2498 28.8874C26.2469 29.0796 26.2883 29.2698 26.3708 29.4434C26.4534 29.617 26.5748 29.7691 26.7257 29.8881C26.8766 30.0071 27.053 30.0897 27.241 30.1295C27.429 30.1692 27.6236 30.1651 27.8098 30.1174C28.3641 29.9754 28.9436 29.9619 29.5039 30.0779C30.0643 30.1939 30.5908 30.4363 31.0432 30.7867C31.4956 31.1371 31.862 31.5862 32.1144 32.0998C32.3669 32.6133 32.4987 33.1777 32.4998 33.7499C32.4998 34.7445 32.1047 35.6983 31.4015 36.4016C30.6982 37.1049 29.7444 37.4999 28.7498 37.4999H7.49981C6.83507 37.4962 6.17774 37.3599 5.56629 37.0991C4.95484 36.8383 4.40154 36.4582 3.93874 35.981C3.47595 35.5038 3.11296 34.9391 2.871 34.3199C2.62905 33.7007 2.51299 33.0396 2.52961 32.375C2.54623 31.7105 2.69521 31.0559 2.96781 30.4496C3.24042 29.8433 3.63118 29.2975 4.11726 28.844C4.60333 28.3905 5.17494 28.0385 5.79867 27.8086C6.4224 27.5787 7.08571 27.4755 7.74981 27.5049C8.03787 27.5198 8.32219 27.4345 8.55457 27.2637C8.78695 27.0928 8.95308 26.8468 9.02481 26.5674C9.50895 24.6878 10.6043 23.0225 12.1386 21.8336C13.6728 20.6446 15.5588 19.9996 17.4998 19.9999ZM28.6823 27.4999C28.401 24.9653 27.2669 22.6014 25.466 20.7959C23.665 18.9903 21.304 17.8502 18.77 17.5626C16.2361 17.2749 13.6796 17.8566 11.5197 19.2125C9.35978 20.5684 7.72463 22.6179 6.88231 25.0249C4.95216 25.1829 3.15794 26.0814 1.87522 27.5323C0.592501 28.9832 -0.079274 30.874 0.000514827 32.809C0.0803037 34.7439 0.905471 36.573 2.30329 37.9134C3.7011 39.2537 5.56321 40.0014 7.49981 39.9999H28.7498C30.4074 39.9999 31.9971 39.3415 33.1692 38.1694C34.3413 36.9973 34.9998 35.4076 34.9998 33.7499C34.9998 32.0923 34.3413 30.5026 33.1692 29.3305C31.9971 28.1584 30.4074 27.4999 28.7498 27.4999H28.6823Z" fill="#649D91"/>
<path d="M26.2494 3.75C26.2494 3.41848 26.1177 3.10054 25.8833 2.86612C25.6489 2.6317 25.3309 2.5 24.9994 2.5C24.6679 2.5 24.3499 2.6317 24.1155 2.86612C23.8811 3.10054 23.7494 3.41848 23.7494 3.75V6.25C23.7494 6.58152 23.8811 6.89946 24.1155 7.13388C24.3499 7.3683 24.6679 7.5 24.9994 7.5C25.3309 7.5 25.6489 7.3683 25.8833 7.13388C26.1177 6.89946 26.2494 6.58152 26.2494 6.25V3.75ZM35.6069 8.66C35.7263 8.54469 35.8215 8.40676 35.887 8.25426C35.9525 8.10175 35.987 7.93773 35.9885 7.77175C35.9899 7.60578 35.9583 7.44118 35.8954 7.28756C35.8326 7.13394 35.7398 6.99437 35.6224 6.87701C35.505 6.75964 35.3655 6.66682 35.2118 6.60397C35.0582 6.54112 34.8936 6.50949 34.7277 6.51094C34.5617 6.51238 34.3977 6.54686 34.2451 6.61237C34.0926 6.67788 33.9547 6.77311 33.8394 6.8925L32.0694 8.66C31.8347 8.89472 31.7028 9.21306 31.7028 9.545C31.7028 9.87694 31.8347 10.1953 32.0694 10.43C32.3041 10.6647 32.6225 10.7966 32.9544 10.7966C33.2863 10.7966 33.6047 10.6647 33.8394 10.43L35.6069 8.66ZM16.1594 6.8925C15.9237 6.6648 15.6079 6.53881 15.2802 6.54166C14.9524 6.54451 14.6389 6.67597 14.4071 6.90773C14.1754 7.13949 14.0439 7.453 14.0411 7.78075C14.0382 8.10849 14.1642 8.42425 14.3919 8.66L16.1594 10.43C16.2756 10.5462 16.4136 10.6384 16.5654 10.7013C16.7173 10.7642 16.88 10.7966 17.0444 10.7966C17.2088 10.7966 17.3715 10.7642 17.5234 10.7013C17.6752 10.6384 17.8132 10.5462 17.9294 10.43C18.0456 10.3138 18.1378 10.1758 18.2007 10.024C18.2636 9.87211 18.296 9.70936 18.296 9.545C18.296 9.38064 18.2636 9.21789 18.2007 9.06604C18.1378 8.91419 18.0456 8.77622 17.9294 8.66L16.1594 6.8925ZM20.4944 15.3275C20.8051 14.6836 21.2503 14.1138 21.8 13.6566C22.3496 13.1994 22.9909 12.8653 23.6806 12.677C24.3703 12.4887 25.0924 12.4505 25.7981 12.565C26.5038 12.6795 27.1768 12.944 27.7716 13.3406C28.3664 13.7373 28.8693 14.2569 29.2462 14.8644C29.6231 15.4719 29.8654 16.1532 29.9566 16.8623C30.0479 17.5714 29.986 18.2919 29.7752 18.975C29.5643 19.6582 29.2094 20.2882 28.7344 20.8225C29.2344 21.5275 29.6644 22.2758 30.0244 23.0675C30.8716 22.302 31.5329 21.3532 31.9578 20.2933C32.3827 19.2335 32.5599 18.0906 32.4761 16.9518C32.3922 15.8131 32.0495 14.7085 31.474 13.7223C30.8984 12.7361 30.1053 11.8944 29.1551 11.2612C28.2049 10.628 27.1226 10.2202 25.9909 10.0688C24.8591 9.91738 23.7077 10.0264 22.6245 10.3875C21.5413 10.7486 20.5548 11.3523 19.7402 12.1525C18.9257 12.9527 18.3046 13.9283 17.9244 15.005C18.8061 15.0333 19.6627 15.1408 20.4944 15.3275ZM31.7044 25.5125C33.2044 26.05 34.5169 26.9875 35.5094 28.1925C35.6455 28.0823 35.7569 27.9447 35.8365 27.7886C35.916 27.6326 35.9618 27.4616 35.971 27.2867C35.9802 27.1118 35.9525 26.9369 35.8898 26.7734C35.8271 26.6099 35.7307 26.4614 35.6069 26.3375L33.8394 24.57C33.6612 24.3907 33.4328 24.2697 33.1845 24.2229C32.9361 24.1761 32.6793 24.2056 32.4481 24.3077C32.2169 24.4098 32.022 24.5796 31.8892 24.7947C31.7565 25.0098 31.692 25.26 31.7044 25.5125ZM36.2494 16.25C35.9179 16.25 35.5999 16.3817 35.3655 16.6161C35.1311 16.8505 34.9994 17.1685 34.9994 17.5C34.9994 17.8315 35.1311 18.1495 35.3655 18.3839C35.5999 18.6183 35.9179 18.75 36.2494 18.75H38.7494C39.0809 18.75 39.3989 18.6183 39.6333 18.3839C39.8677 18.1495 39.9994 17.8315 39.9994 17.5C39.9994 17.1685 39.8677 16.8505 39.6333 16.6161C39.3989 16.3817 39.0809 16.25 38.7494 16.25H36.2494Z" fill="#649D91"/>
</g>
<defs>
<clipPath id="clip0_6071_39772">
<rect width="40" height="40" fill="white"/>
</clipPath>
</defs>
</svg>
