<svg width="40" height="42" viewBox="0 0 40 42" fill="none" xmlns="http://www.w3.org/2000/svg">
<path d="M8.63738 27.4331C8.90443 27.5223 9.12515 27.7139 9.25107 27.9657C9.37699 28.2175 9.39781 28.509 9.30897 28.7761L8.24633 31.9638C8.20631 32.101 8.13901 32.2287 8.04847 32.3393C7.95792 32.4499 7.84599 32.5411 7.71938 32.6074C7.59276 32.6738 7.45407 32.7139 7.31159 32.7254C7.16911 32.7369 7.02578 32.7195 6.89017 32.6743C6.75456 32.6291 6.62947 32.557 6.52238 32.4623C6.41529 32.3677 6.3284 32.2524 6.26691 32.1233C6.20542 31.9943 6.1706 31.8542 6.16453 31.7114C6.15846 31.5686 6.18126 31.426 6.23158 31.2922L7.29421 28.1046C7.38344 27.8376 7.57501 27.6169 7.82685 27.491C8.07869 27.3651 8.3702 27.3443 8.63738 27.4331ZM28.8274 27.4331C29.0945 27.5223 29.3152 27.7139 29.4411 27.9657C29.567 28.2175 29.5879 28.509 29.499 28.7761L28.4364 31.9638C28.3964 32.101 28.3291 32.2287 28.2385 32.3393C28.148 32.4499 28.036 32.5411 27.9094 32.6074C27.7828 32.6738 27.6441 32.7139 27.5016 32.7254C27.3592 32.7369 27.2158 32.7195 27.0802 32.6743C26.9446 32.6291 26.8195 32.557 26.7124 32.4623C26.6053 32.3677 26.5184 32.2524 26.4569 32.1233C26.3955 31.9943 26.3606 31.8542 26.3546 31.7114C26.3485 31.5686 26.3713 31.426 26.4216 31.2922L27.4843 28.1046C27.5735 27.8376 27.7651 27.6169 28.0169 27.491C28.2687 27.3651 28.5602 27.3443 28.8274 27.4331ZM12.8879 30.6207C13.155 30.7099 13.3757 30.9015 13.5016 31.1533C13.6275 31.4051 13.6483 31.6966 13.5595 31.9638L12.4969 35.1514C12.4568 35.2886 12.3895 35.4163 12.299 35.5269C12.2085 35.6375 12.0965 35.7287 11.9699 35.7951C11.8433 35.8614 11.7046 35.9015 11.5621 35.913C11.4196 35.9245 11.2763 35.9071 11.1407 35.8619C11.0051 35.8167 10.88 35.7446 10.7729 35.6499C10.6658 35.5553 10.5789 35.44 10.5174 35.3109C10.456 35.1819 10.4211 35.0418 10.4151 34.899C10.409 34.7562 10.4318 34.6137 10.4821 34.4799L11.5447 31.2922C11.634 31.0252 11.8255 30.8045 12.0774 30.6786C12.3292 30.5527 12.6207 30.5319 12.8879 30.6207ZM33.078 30.6207C33.345 30.7099 33.5657 30.9015 33.6916 31.1533C33.8176 31.4051 33.8384 31.6966 33.7495 31.9638L32.6869 35.1514C32.6469 35.2886 32.5796 35.4163 32.489 35.5269C32.3985 35.6375 32.2866 35.7287 32.16 35.7951C32.0333 35.8614 31.8946 35.9015 31.7522 35.913C31.6097 35.9245 31.4664 35.9071 31.3307 35.8619C31.1951 35.8167 31.07 35.7446 30.963 35.6499C30.8559 35.5553 30.769 35.44 30.7075 35.3109C30.646 35.1819 30.6112 35.0418 30.6051 34.899C30.599 34.7562 30.6218 34.6137 30.6722 34.4799L31.7348 31.2922C31.824 31.0252 32.0156 30.8045 32.2674 30.6786C32.5193 30.5527 32.8108 30.5319 33.078 30.6207ZM31.4776 12.5596C31.0363 10.335 29.8948 8.3099 28.22 6.78041C26.5453 5.25092 24.4251 4.29727 22.1695 4.05888C19.9139 3.8205 17.6412 4.30988 15.6836 5.45549C13.7261 6.6011 12.1864 8.34283 11.2897 10.426C10.2841 10.3102 9.26546 10.4008 8.2961 10.6923C7.32675 10.9838 6.42709 11.4701 5.65222 12.1214C4.87736 12.7727 4.24358 13.5752 3.78969 14.4799C3.33581 15.3846 3.07137 16.3724 3.01256 17.3829C2.95376 18.3933 3.10183 19.4052 3.4477 20.3564C3.79358 21.3076 4.32998 22.1783 5.02408 22.915C5.71817 23.6518 6.55534 24.2391 7.48434 24.6411C8.41334 25.043 9.41461 25.2512 10.4269 25.2528H30.6169C32.2345 25.2546 33.7923 24.6416 34.9747 23.538C36.1572 22.4343 36.876 20.9225 36.9854 19.3088C37.0948 17.6951 36.5867 16.1001 35.5641 14.8469C34.5414 13.5938 33.0806 12.7761 31.4776 12.5596ZM21.0532 6.127C23.1444 6.12656 25.1623 6.89685 26.7212 8.29057C28.2801 9.68429 29.2706 11.6037 29.5033 13.6817C29.5322 13.9428 29.6567 14.1839 29.853 14.3585C30.0492 14.5332 30.3032 14.6289 30.5659 14.6273H30.6169C31.7442 14.6273 32.8253 15.0751 33.6225 15.8722C34.4196 16.6692 34.8674 17.7503 34.8674 18.8775C34.8674 20.0047 34.4196 21.0858 33.6225 21.8828C32.8253 22.6799 31.7442 23.1277 30.6169 23.1277H10.4269C9.67467 23.1273 8.93113 22.9672 8.24543 22.6581C7.55974 22.3489 6.9475 21.8977 6.44924 21.3342C5.95097 20.7708 5.57803 20.108 5.35508 19.3896C5.13213 18.6713 5.06426 17.9138 5.15595 17.1673C5.24765 16.4208 5.49682 15.7023 5.88698 15.0592C6.27714 14.4162 6.7994 13.8633 7.41921 13.4372C8.03903 13.0111 8.74226 12.7214 9.4824 12.5873C10.2225 12.4533 10.9827 12.4779 11.7126 12.6595C11.9731 12.7245 12.2484 12.6885 12.4834 12.5588C12.7183 12.4291 12.8955 12.2153 12.9793 11.9604C13.5404 10.2624 14.6227 8.78469 16.0723 7.73739C17.5219 6.69008 19.2648 6.12656 21.0532 6.127ZM17.9779 27.9644C18.0663 27.7881 18.2019 27.6399 18.3697 27.5363C18.5375 27.4327 18.7307 27.3778 18.9279 27.3778H21.0532C21.2215 27.378 21.3873 27.4181 21.5371 27.4948C21.6869 27.5716 21.8162 27.6828 21.9146 27.8193C22.013 27.9559 22.0775 28.1138 22.1029 28.2802C22.1282 28.4465 22.1137 28.6165 22.0606 28.7761L21.4655 30.5655H23.1785C23.3784 30.5658 23.5742 30.6224 23.7434 30.729C23.9126 30.8356 24.0483 30.9878 24.1348 31.168C24.2214 31.3482 24.2554 31.5492 24.2328 31.7479C24.2102 31.9465 24.1321 32.1348 24.0073 32.291L19.7568 37.6037C19.6051 37.7921 19.3937 37.9231 19.1575 37.9751C18.9214 38.0271 18.6745 37.997 18.4577 37.8898C18.241 37.7825 18.0673 37.6045 17.9654 37.3852C17.8634 37.1659 17.8394 36.9184 17.8972 36.6836L18.6304 33.7531H16.8027C16.6215 33.7531 16.4433 33.7067 16.285 33.6185C16.1268 33.5302 15.9937 33.4029 15.8985 33.2487C15.8033 33.0946 15.7491 32.9186 15.7411 32.7376C15.7331 32.5566 15.7715 32.3765 15.8527 32.2145L17.9779 27.9644Z" fill="#649D91"/>
</svg>
