<svg width="40" height="40" viewBox="0 0 40 40" fill="none" xmlns="http://www.w3.org/2000/svg">
<g clip-path="url(#clip0_6071_39779)">
<path d="M20.5049 37C20.2301 37 19.9664 36.8914 19.7721 36.698C19.5777 36.5046 19.4685 36.2423 19.4685 35.9688V33.3019L18.1295 34.6364C17.9349 34.8297 17.6711 34.9383 17.3961 34.9381C17.1211 34.9379 16.8574 34.829 16.6631 34.6353C16.4687 34.4417 16.3597 34.1792 16.3599 33.9055C16.36 33.6319 16.4695 33.3695 16.6641 33.1761L19.4685 30.3856V22.2861L12.4211 26.3348L11.3931 30.1504C11.3216 30.4146 11.1476 30.6398 10.9093 30.7763C10.671 30.9129 10.388 30.9496 10.1225 30.8785C9.85694 30.8074 9.63068 30.6342 9.49346 30.3971C9.35625 30.16 9.31931 29.8784 9.39077 29.6142L9.88202 27.7951L7.56052 29.1274C7.32261 29.262 7.04086 29.2975 6.77675 29.2262C6.51263 29.1548 6.2876 28.9824 6.15076 28.7466C6.01392 28.5108 5.97638 28.2306 6.04633 27.9674C6.11629 27.7041 6.28805 27.479 6.52414 27.3413L8.84564 26.0089L7.01332 25.5201C6.88184 25.4849 6.75863 25.4243 6.65071 25.3417C6.54278 25.2591 6.45227 25.1562 6.38432 25.0388C6.31638 24.9214 6.27234 24.7918 6.25472 24.6574C6.2371 24.5231 6.24624 24.3866 6.28163 24.2558C6.31702 24.125 6.37795 24.0024 6.46096 23.895C6.54396 23.7876 6.64741 23.6975 6.7654 23.6299C6.88338 23.5623 7.01359 23.5185 7.1486 23.501C7.28361 23.4834 7.42076 23.4925 7.55223 23.5278L11.3827 24.5487L18.4322 20.5L11.3848 16.4513L7.55016 17.4723C7.28637 17.5377 7.00731 17.4973 6.77312 17.3599C6.53894 17.2225 6.3684 16.9991 6.29825 16.7377C6.2281 16.4764 6.26396 16.198 6.39811 15.9627C6.53226 15.7275 6.75394 15.554 7.01539 15.4799L8.84564 14.9911L6.52414 13.6587C6.40533 13.5915 6.30105 13.5015 6.21731 13.394C6.13356 13.2866 6.07202 13.1637 6.03621 13.0324C6.00039 12.9012 5.99103 12.7641 6.00865 12.6293C6.02626 12.4944 6.07051 12.3643 6.13886 12.2466C6.2072 12.1288 6.29827 12.0256 6.40685 11.943C6.51542 11.8604 6.63934 11.8 6.77148 11.7652C6.90362 11.7304 7.04136 11.722 7.17678 11.7405C7.3122 11.7589 7.44261 11.8038 7.56052 11.8726L9.88202 13.2049L9.39077 11.3837C9.35306 11.2521 9.34206 11.1143 9.35841 10.9784C9.37476 10.8425 9.41814 10.7112 9.48602 10.5922C9.5539 10.4731 9.64491 10.3687 9.75376 10.285C9.86261 10.2013 9.98712 10.14 10.12 10.1047C10.2529 10.0694 10.3916 10.0607 10.5278 10.0793C10.6641 10.0978 10.7954 10.1432 10.9138 10.2127C11.0323 10.2822 11.1357 10.3745 11.218 10.4842C11.3003 10.5939 11.3598 10.7188 11.3931 10.8516L12.4191 14.6652L19.4685 18.7139V10.6144L16.6641 7.82387C16.5677 7.72813 16.4913 7.61444 16.4391 7.48929C16.3869 7.36414 16.3599 7.22998 16.3599 7.09448C16.3598 6.95898 16.3865 6.82479 16.4385 6.69956C16.4905 6.57434 16.5668 6.46054 16.6631 6.36466C16.7593 6.26877 16.8735 6.19269 16.9993 6.14075C17.1251 6.08881 17.2599 6.06202 17.3961 6.06193C17.5323 6.06183 17.6671 6.08842 17.793 6.14019C17.9188 6.19196 18.0332 6.26788 18.1295 6.36363L19.4685 7.69806V5.03125C19.4685 4.75775 19.5777 4.49544 19.7721 4.30205C19.9664 4.10865 20.2301 4 20.5049 4C20.7798 4 21.0434 4.10865 21.2377 4.30205C21.4321 4.49544 21.5413 4.75775 21.5413 5.03125V7.69806L22.8824 6.36363C23.077 6.17026 23.3408 6.06173 23.6158 6.06193C23.8908 6.06212 24.1545 6.17102 24.3489 6.36466C24.5432 6.5583 24.6522 6.82082 24.6521 7.09448C24.6519 7.36814 24.5424 7.63051 24.3478 7.82387L21.5413 10.6144V18.7139L28.5887 14.6652L29.6168 10.8496C29.6882 10.5854 29.8623 10.3602 30.1005 10.2237C30.3388 10.0871 30.6219 10.0504 30.8874 10.1215C31.1529 10.1926 31.3791 10.3658 31.5164 10.6029C31.6536 10.84 31.6905 11.1216 31.6191 11.3858L31.1299 13.2049L33.4514 11.8726C33.6893 11.738 33.971 11.7025 34.2352 11.7738C34.4993 11.8452 34.7243 12.0176 34.8611 12.2534C34.998 12.4892 35.0355 12.7694 34.9656 13.0326C34.8956 13.2959 34.7239 13.521 34.4878 13.6587L32.1663 14.9911L33.9965 15.4799C34.262 15.551 34.4883 15.7241 34.6255 15.9612C34.7627 16.1983 34.7997 16.48 34.7282 16.7442C34.6567 17.0084 34.4827 17.2335 34.2444 17.3701C34.0062 17.5066 33.7231 17.5434 33.4576 17.4723L29.6271 16.4513L22.5777 20.5L29.6251 24.5487L33.4576 23.5278C33.7231 23.4569 34.006 23.4939 34.2441 23.6307C34.4822 23.7674 34.656 23.9926 34.7272 24.2568C34.7984 24.521 34.7612 24.8026 34.6237 25.0395C34.4863 25.2764 34.26 25.4493 33.9944 25.5201L32.1642 26.0089L34.4857 27.3413C34.7218 27.479 34.8935 27.7041 34.9635 27.9674C35.0335 28.2306 34.9959 28.5108 34.8591 28.7466C34.7222 28.9824 34.4972 29.1548 34.2331 29.2262C33.969 29.2975 33.6872 29.262 33.4493 29.1274L31.1278 27.7951L31.617 29.6163C31.6547 29.7479 31.6657 29.8857 31.6493 30.0216C31.633 30.1575 31.5896 30.2888 31.5217 30.4078C31.4539 30.5269 31.3628 30.6313 31.254 30.715C31.1451 30.7987 31.0206 30.86 30.8877 30.8953C30.7548 30.9306 30.6162 30.9393 30.4799 30.9207C30.3436 30.9022 30.2124 30.8568 30.0939 30.7873C29.9754 30.7178 29.872 30.6255 29.7897 30.5158C29.7075 30.4061 29.648 30.2812 29.6147 30.1484L28.5887 26.3348L21.5413 22.2861V30.3856L24.3457 33.1761C24.5403 33.3695 24.6498 33.6319 24.65 33.9055C24.6502 34.1792 24.5411 34.4417 24.3468 34.6353C24.1524 34.829 23.8888 34.9379 23.6138 34.9381C23.3387 34.9383 23.0749 34.8297 22.8803 34.6364L21.5392 33.3019V35.9688C21.5392 36.2423 21.43 36.5046 21.2357 36.698C21.0413 36.8914 20.7798 37 20.5049 37Z" fill="#649D91"/>
</g>
<defs>
<clipPath id="clip0_6071_39779">
<rect width="40" height="40" fill="white"/>
</clipPath>
</defs>
</svg>
