<svg width="40" height="40" viewBox="0 0 40 40" fill="none" xmlns="http://www.w3.org/2000/svg">
<g clip-path="url(#clip0_6071_39775)">
<path d="M14.6892 29.5633C14.6889 30.1477 14.527 30.7206 14.2212 31.2197C13.9154 31.7187 13.4775 32.1247 12.9554 32.3931C12.4332 32.6615 11.8469 32.7821 11.2604 32.7416C10.674 32.7012 10.11 32.5013 9.6301 32.1638C9.15021 31.8264 8.77287 31.3643 8.53933 30.828C8.30578 30.2918 8.22502 29.7021 8.30586 29.1233C8.3867 28.5446 8.62603 27.999 8.9977 27.5463C9.36938 27.0936 9.85909 26.7511 10.4133 26.5564V8.31266C10.4133 8.03085 10.5259 7.76059 10.7264 7.56133C10.9269 7.36207 11.1988 7.25012 11.4823 7.25012C11.7658 7.25012 12.0377 7.36207 12.2382 7.56133C12.4386 7.76059 12.5513 8.03085 12.5513 8.31266V26.5564C13.1768 26.7762 13.7183 27.1834 14.1012 27.722C14.4841 28.2605 14.6895 28.9039 14.6892 29.5633Z" fill="#649D91"/>
<path d="M6.13793 8.31267C6.13793 6.90366 6.70105 5.55236 7.7034 4.55604C8.70575 3.55973 10.0652 3 11.4828 3C12.9003 3 14.2598 3.55973 15.2621 4.55604C16.2645 5.55236 16.8276 6.90366 16.8276 8.31267V24.3569C17.8588 25.4031 18.5563 26.7285 18.8327 28.1671C19.1091 29.6057 18.952 31.0934 18.3812 32.4436C17.8104 33.7938 16.8513 34.9465 15.6241 35.757C14.3969 36.5676 12.9562 37 11.4828 37C10.0093 37 8.56866 36.5676 7.34145 35.757C6.11424 34.9465 5.1551 33.7938 4.5843 32.4436C4.01349 31.0934 3.85644 29.6057 4.13282 28.1671C4.40921 26.7285 5.10674 25.4031 6.13793 24.3569V8.31267ZM11.4828 5.12507C10.6322 5.12507 9.81655 5.4609 9.21514 6.05869C8.61373 6.65649 8.27587 7.46726 8.27587 8.31267V25.2856L7.91883 25.6043C7.11192 26.3216 6.54313 27.2655 6.28774 28.3111C6.03235 29.3567 6.1024 30.4548 6.48862 31.4599C6.87483 32.4651 7.55901 33.33 8.45061 33.9402C9.3422 34.5504 10.3992 34.8772 11.4817 34.8772C12.5642 34.8772 13.6212 34.5504 14.5128 33.9402C15.4044 33.33 16.0886 32.4651 16.4748 31.4599C16.861 30.4548 16.931 29.3567 16.6756 28.3111C16.4203 27.2655 15.8515 26.3216 15.0446 25.6043L14.6897 25.2835V8.31267C14.6897 7.46726 14.3518 6.65649 13.7504 6.05869C13.149 5.4609 12.3333 5.12507 11.4828 5.12507ZM22.1724 7.25014C22.4559 7.25014 22.7278 7.36208 22.9283 7.56134C23.1288 7.76061 23.2414 8.03087 23.2414 8.31267V10.4377C23.2414 10.7195 23.1288 10.9898 22.9283 11.1891C22.7278 11.3883 22.4559 11.5003 22.1724 11.5003C21.8889 11.5003 21.617 11.3883 21.4165 11.1891C21.2161 10.9898 21.1035 10.7195 21.1035 10.4377V8.31267C21.1035 8.03087 21.2161 7.76061 21.4165 7.56134C21.617 7.36208 21.8889 7.25014 22.1724 7.25014ZM31.2437 10.9839C31.4441 11.1831 31.5566 11.4533 31.5566 11.7351C31.5566 12.0168 31.4441 12.287 31.2437 12.4863L29.7321 13.9909C29.5314 14.1904 29.2592 14.3025 28.9753 14.3025C28.6914 14.3025 28.4192 14.1904 28.2185 13.9909C28.0178 13.7913 27.905 13.5207 27.905 13.2386C27.905 12.9564 28.0178 12.6858 28.2185 12.4863L29.7321 10.9839C29.9326 10.7847 30.2044 10.6728 30.4879 10.6728C30.7713 10.6728 31.0432 10.7847 31.2437 10.9839ZM21.1035 14.6879C21.1035 14.4061 21.2161 14.1358 21.4165 13.9365C21.617 13.7373 21.8889 13.6253 22.1724 13.6253C23.8735 13.6253 25.5048 14.297 26.7077 15.4926C27.9105 16.6882 28.5862 18.3097 28.5862 20.0005C28.5862 21.6914 27.9105 23.3129 26.7077 24.5085C25.5048 25.7041 23.8735 26.3757 22.1724 26.3757C21.8889 26.3757 21.617 26.2638 21.4165 26.0645C21.2161 25.8653 21.1035 25.595 21.1035 25.3132C21.1035 25.0314 21.2161 24.7611 21.4165 24.5619C21.617 24.3626 21.8889 24.2507 22.1724 24.2507C23.3064 24.2507 24.394 23.8029 25.1959 23.0058C25.9978 22.2088 26.4483 21.1277 26.4483 20.0005C26.4483 18.8733 25.9978 17.7923 25.1959 16.9952C24.394 16.1982 23.3064 15.7504 22.1724 15.7504C21.8889 15.7504 21.617 15.6385 21.4165 15.4392C21.2161 15.2399 21.1035 14.9697 21.1035 14.6879ZM30.7241 20.0005C30.7241 19.7187 30.8368 19.4485 31.0372 19.2492C31.2377 19.05 31.5096 18.938 31.7931 18.938H33.931C34.2145 18.938 34.4864 19.05 34.6869 19.2492C34.8874 19.4485 35 19.7187 35 20.0005C35 20.2823 34.8874 20.5526 34.6869 20.7519C34.4864 20.9511 34.2145 21.0631 33.931 21.0631H31.7931C31.5096 21.0631 31.2377 20.9511 31.0372 20.7519C30.8368 20.5526 30.7241 20.2823 30.7241 20.0005ZM28.2185 26.0102C28.3178 25.9113 28.4357 25.8328 28.5656 25.7792C28.6955 25.7256 28.8347 25.6981 28.9753 25.6981C29.1159 25.6981 29.2551 25.7256 29.385 25.7792C29.5149 25.8328 29.6328 25.9113 29.7321 26.0102L31.2437 27.5148C31.4384 27.7152 31.5461 27.9836 31.5437 28.2622C31.5413 28.5408 31.4288 28.8073 31.2306 29.0043C31.0324 29.2013 30.7643 29.313 30.4841 29.3154C30.2038 29.3179 29.9337 29.2108 29.7321 29.0172L28.2185 27.5148C28.1189 27.4161 28.04 27.2988 27.9861 27.1697C27.9322 27.0407 27.9044 26.9023 27.9044 26.7625C27.9044 26.6227 27.9322 26.4844 27.9861 26.3553C28.04 26.2262 28.1189 26.1089 28.2185 26.0102ZM22.1724 28.5008C22.4559 28.5008 22.7278 28.6128 22.9283 28.812C23.1288 29.0113 23.2414 29.2815 23.2414 29.5633V31.6884C23.2414 31.9702 23.1288 32.2405 22.9283 32.4397C22.7278 32.639 22.4559 32.7509 22.1724 32.7509C21.8889 32.7509 21.617 32.639 21.4165 32.4397C21.2161 32.2405 21.1035 31.9702 21.1035 31.6884V29.5633C21.1035 29.2815 21.2161 29.0113 21.4165 28.812C21.617 28.6128 21.8889 28.5008 22.1724 28.5008Z" fill="#649D91"/>
</g>
<defs>
<clipPath id="clip0_6071_39775">
<rect width="40" height="40" fill="white"/>
</clipPath>
</defs>
</svg>
