<svg width="40" height="40" viewBox="0 0 40 40" fill="none" xmlns="http://www.w3.org/2000/svg">
<g clip-path="url(#clip0_6071_39780)">
<path d="M3.07616 29.4219C3.18097 29.1579 3.38527 28.9467 3.64413 28.8349C3.903 28.723 4.19523 28.7196 4.45659 28.8254L8.18799 30.3338C8.94737 30.6406 9.79446 30.6406 10.5538 30.3338L12.7073 29.4626C13.9731 28.9511 15.3853 28.9511 16.6511 29.4626L18.8067 30.3338C19.5661 30.6406 20.4132 30.6406 21.1725 30.3338L23.326 29.4626C24.5918 28.9511 26.0039 28.9511 27.2698 29.4626L29.4254 30.3338C30.1848 30.6406 31.0318 30.6406 31.7912 30.3338L35.5226 28.8254C35.6527 28.7695 35.7924 28.7404 35.9337 28.7398C36.075 28.7392 36.215 28.7671 36.3455 28.8219C36.476 28.8767 36.5944 28.9572 36.6937 29.0588C36.793 29.1604 36.8712 29.281 36.9238 29.4135C36.9763 29.546 37.0022 29.6878 36.9999 29.8305C36.9975 29.9733 36.967 30.1141 36.9101 30.2448C36.8531 30.3754 36.771 30.4933 36.6684 30.5915C36.5658 30.6897 36.4449 30.7662 36.3127 30.8166L32.5791 32.325C31.3133 32.8365 29.9012 32.8365 28.6353 32.325L26.4819 31.4538C25.7225 31.147 24.8754 31.147 24.116 31.4538L21.9604 32.325C20.6946 32.8365 19.2825 32.8365 18.0167 32.325L15.8632 31.4538C15.1038 31.147 14.2567 31.147 13.4973 31.4538L11.3417 32.325C10.0759 32.8365 8.6638 32.8365 7.39796 32.325L3.66656 30.8166C3.40525 30.7107 3.19626 30.5042 3.08555 30.2427C2.97483 29.9812 2.97146 29.6859 3.07616 29.4219ZM3.07616 33.7132C3.18097 33.4492 3.38527 33.2381 3.64413 33.1262C3.903 33.0143 4.19523 33.0109 4.45659 33.1167L8.18799 34.6251C8.94737 34.932 9.79446 34.932 10.5538 34.6251L12.7073 33.754C13.9731 33.2424 15.3853 33.2424 16.6511 33.754L18.8067 34.6251C19.5661 34.932 20.4132 34.932 21.1725 34.6251L23.326 33.754C24.5918 33.2424 26.0039 33.2424 27.2698 33.754L29.4254 34.6251C30.1848 34.932 31.0318 34.932 31.7912 34.6251L35.5226 33.1167C35.6527 33.0609 35.7924 33.0318 35.9337 33.0312C36.075 33.0306 36.215 33.0585 36.3455 33.1133C36.476 33.168 36.5944 33.2486 36.6937 33.3502C36.793 33.4517 36.8712 33.5723 36.9238 33.7048C36.9763 33.8373 37.0022 33.9791 36.9999 34.1219C36.9975 34.2646 36.967 34.4054 36.9101 34.5361C36.8531 34.6668 36.771 34.7847 36.6684 34.8829C36.5658 34.981 36.4449 35.0576 36.3127 35.1079L32.5791 36.6163C31.3133 37.1279 29.9012 37.1279 28.6353 36.6163L26.4819 35.7452C25.7225 35.4383 24.8754 35.4383 24.116 35.7452L21.9604 36.6163C20.6946 37.1279 19.2825 37.1279 18.0167 36.6163L15.8632 35.7452C15.1038 35.4383 14.2567 35.4383 13.4973 35.7452L11.3417 36.6163C10.0759 37.1279 8.6638 37.1279 7.39796 36.6163L3.66656 35.1079C3.40525 35.002 3.19626 34.7956 3.08555 34.5341C2.97483 34.2725 2.97146 33.9773 3.07616 33.7132ZM8.65309 20.3371C7.68467 22.6179 6.5421 24.8387 4.74117 26.3535C4.52401 26.5276 4.24808 26.609 3.97233 26.5803C3.69658 26.5516 3.44287 26.4151 3.2654 26.1999C3.08793 25.9848 3.00078 25.708 3.02256 25.4288C3.04435 25.1496 3.17334 24.8901 3.38197 24.7057C4.76665 23.5384 5.74782 21.736 6.7035 19.4917C7.00082 18.7879 7.30027 18.0326 7.61034 17.2516C8.25171 15.6337 8.93555 13.9065 9.75531 12.2994C10.9913 9.86617 12.616 7.51665 15.105 5.78723C17.6047 4.05138 20.8773 3 25.299 3C28.406 3 30.6317 3.85827 32.0503 5.27013C33.4732 6.68627 33.9468 8.52726 33.7897 10.2095C33.6325 11.8638 32.8531 13.4623 31.6234 14.4257C31.0635 14.8811 30.3922 15.1753 29.6805 15.2773C28.9688 15.3793 28.243 15.2852 27.5798 15.0051C26.1994 16.3826 25.6536 18.6077 26.072 20.6139C26.5222 22.7724 28.0258 24.4568 30.6083 24.4568H35.9176C36.1993 24.4568 36.4694 24.5698 36.6685 24.771C36.8676 24.9722 36.9795 25.2451 36.9795 25.5296C36.9795 25.8141 36.8676 26.087 36.6685 26.2882C36.4694 26.4894 36.1993 26.6024 35.9176 26.6024H30.6083C26.8196 26.6024 24.6066 23.9954 23.995 21.0559C23.5023 18.6956 24.0056 15.9642 25.6048 14.0095L25.299 13.8571L23.6488 14.6896C23.5014 14.7641 23.3389 14.8028 23.1742 14.8028C23.0094 14.8028 22.8469 14.7641 22.6995 14.6896L20.5758 13.6168C20.3329 13.4845 20.1505 13.2618 20.0673 12.996C19.9841 12.7302 20.0066 12.4421 20.13 12.1927C20.2534 11.9434 20.468 11.7523 20.7284 11.6601C20.9888 11.5679 21.2746 11.5817 21.5251 11.6986L23.1752 12.5311L24.8232 11.6986C24.9706 11.6242 25.1331 11.5854 25.2979 11.5854C25.4627 11.5854 25.6252 11.6242 25.7725 11.6986L27.8963 12.7714L27.9685 12.81C28.9029 13.3765 29.6887 13.2284 30.3216 12.7328C31.0182 12.1856 31.5661 11.1686 31.6744 10.0078C31.7806 8.87272 31.462 7.69903 30.5595 6.79999C29.6569 5.90095 28.0322 5.14782 25.299 5.14782C21.2256 5.14782 18.3926 6.10909 16.3113 7.55742C14.2194 9.00789 12.7901 11.0205 11.6433 13.2778C10.8682 14.8012 10.2523 16.3525 9.63638 17.9125C9.31782 18.7192 8.99714 19.5281 8.65309 20.3371Z" fill="#649D91"/>
</g>
<defs>
<clipPath id="clip0_6071_39780">
<rect width="40" height="40" fill="white"/>
</clipPath>
</defs>
</svg>
