<svg width="15" height="14" viewBox="0 0 15 14" fill="none" xmlns="http://www.w3.org/2000/svg">
<path d="M11.619 4.58143C11.5377 4.50012 11.4412 4.43562 11.3351 4.39161C11.2289 4.3476 11.115 4.32495 11.0001 4.32495C10.8851 4.32495 10.7713 4.3476 10.6651 4.39161C10.5589 4.43562 10.4624 4.50012 10.3812 4.58143L7.70599 7.25601C7.65129 7.31069 7.57712 7.34141 7.49978 7.34141C7.42244 7.34141 7.34827 7.31069 7.29357 7.25601L4.61899 4.58143C4.45492 4.41728 4.23236 4.32504 4.00028 4.32498C3.7682 4.32493 3.5456 4.41707 3.38145 4.58114C3.2173 4.74521 3.12505 4.96777 3.125 5.19985C3.12495 5.43193 3.21709 5.65453 3.38116 5.81868L6.05632 8.49385C6.24591 8.68346 6.47099 8.83386 6.71871 8.93648C6.96643 9.0391 7.23194 9.09191 7.50007 9.09191C7.76821 9.09191 8.03371 9.0391 8.28143 8.93648C8.52915 8.83386 8.75423 8.68346 8.94382 8.49385L11.619 5.81868C11.783 5.65459 11.8752 5.43207 11.8752 5.20006C11.8752 4.96804 11.783 4.74552 11.619 4.58143Z" fill="#396860"/>
</svg>
