<svg width="40" height="40" viewBox="0 0 40 40" fill="none" xmlns="http://www.w3.org/2000/svg">
<g opacity="0.8">
<path d="M0 20C0 8.95431 8.95431 0 20 0C31.0457 0 40 8.95431 40 20C40 31.0457 31.0457 40 20 40C8.95431 40 0 31.0457 0 20Z" fill="white"/>
<g clip-path="url(#clip0_6738_35888)">
<path d="M24.5835 11.5974C23.6451 11.612 22.7272 11.874 21.9224 12.3568C21.1177 12.8397 20.4546 13.5263 20.0001 14.3474C19.5457 13.5263 18.8826 12.8397 18.0778 12.3568C17.2731 11.874 16.3552 11.612 15.4168 11.5974C13.9209 11.6624 12.5115 12.3168 11.4966 13.4176C10.4817 14.5184 9.94367 15.9762 10.0001 17.4724C10.0001 21.2616 13.9885 25.3999 17.3335 28.2057C18.0803 28.8334 19.0246 29.1774 20.0001 29.1774C20.9757 29.1774 21.9199 28.8334 22.6668 28.2057C26.0118 25.3999 30.0001 21.2616 30.0001 17.4724C30.0566 15.9762 29.5186 14.5184 28.5036 13.4176C27.4887 12.3168 26.0793 11.6624 24.5835 11.5974ZM21.596 26.9307C21.1493 27.3069 20.5841 27.5132 20.0001 27.5132C19.4162 27.5132 18.851 27.3069 18.4043 26.9307C14.1226 23.3382 11.6668 19.8916 11.6668 17.4724C11.6098 16.418 11.9721 15.3839 12.6746 14.5955C13.3771 13.8071 14.3628 13.3285 15.4168 13.2641C16.4708 13.3285 17.4565 13.8071 18.159 14.5955C18.8615 15.3839 19.2238 16.418 19.1668 17.4724C19.1668 17.6934 19.2546 17.9054 19.4109 18.0617C19.5672 18.2179 19.7791 18.3057 20.0001 18.3057C20.2211 18.3057 20.4331 18.2179 20.5894 18.0617C20.7457 17.9054 20.8335 17.6934 20.8335 17.4724C20.7765 16.418 21.1388 15.3839 21.8413 14.5955C22.5438 13.8071 23.5295 13.3285 24.5835 13.2641C25.6374 13.3285 26.6232 13.8071 27.3257 14.5955C28.0282 15.3839 28.3904 16.418 28.3335 17.4724C28.3335 19.8916 25.8776 23.3382 21.596 26.9274V26.9307Z" fill="#262524"/>
</g>
</g>
<defs>
<clipPath id="clip0_6738_35888">
<rect width="20" height="20" fill="white" transform="translate(10 10)"/>
</clipPath>
</defs>
</svg>
