<svg width="62" height="110" viewBox="0 0 62 110" fill="none" xmlns="http://www.w3.org/2000/svg">
<path d="M0 16C0 7.16344 7.16344 0 16 0H46C54.8366 0 62 7.16344 62 16V94C62 102.837 54.8366 110 46 110H16C7.16344 110 0 102.837 0 94V16Z" fill="#B8D7CE"/>
<g clip-path="url(#clip0_6738_36000)">
<path d="M26.1907 28.7824C26.2686 28.8084 26.3406 28.8494 26.4027 28.9033C26.4647 28.9571 26.5155 29.0226 26.5522 29.0961C26.5889 29.1696 26.6107 29.2496 26.6165 29.3315C26.6222 29.4135 26.6118 29.4957 26.5857 29.5736L25.9607 31.4486C25.9038 31.5999 25.7905 31.7233 25.6445 31.7928C25.4986 31.8624 25.3314 31.8727 25.178 31.8216C25.0247 31.7704 24.8971 31.6619 24.8221 31.5187C24.7471 31.3755 24.7304 31.2088 24.7757 31.0536L25.4007 29.1786C25.4529 29.0213 25.5655 28.8912 25.7136 28.8169C25.8618 28.7426 26.0334 28.7302 26.1907 28.7824ZM29.9407 28.7824C30.0186 28.8084 30.0906 28.8494 30.1527 28.9033C30.2147 28.9571 30.2655 29.0226 30.3022 29.0961C30.3389 29.1696 30.3607 29.2496 30.3665 29.3315C30.3722 29.4135 30.3618 29.4957 30.3357 29.5736L29.0857 33.3236C29.0288 33.4749 28.9155 33.5983 28.7695 33.6678C28.6236 33.7374 28.4564 33.7477 28.303 33.6966C28.1497 33.6454 28.0221 33.5369 27.9471 33.3937C27.8721 33.2505 27.8554 33.0838 27.9007 32.9286L29.1507 29.1786C29.2029 29.0213 29.3155 28.8912 29.4636 28.8169C29.6118 28.7426 29.7834 28.7302 29.9407 28.7824ZM33.6907 28.7824C33.7686 28.8084 33.8406 28.8494 33.9027 28.9033C33.9647 28.9571 34.0155 29.0226 34.0522 29.0961C34.0889 29.1696 34.1107 29.2496 34.1165 29.3315C34.1222 29.4135 34.1118 29.4957 34.0857 29.5736L33.4607 31.4486C33.4038 31.5999 33.2905 31.7233 33.1445 31.7928C32.9986 31.8624 32.8314 31.8727 32.678 31.8216C32.5247 31.7704 32.3971 31.6619 32.3221 31.5187C32.2471 31.3755 32.2304 31.2088 32.2757 31.0536L32.9007 29.1786C32.9529 29.0213 33.0655 28.8912 33.2136 28.8169C33.3618 28.7426 33.5334 28.7302 33.6907 28.7824ZM37.4407 28.7824C37.5186 28.8084 37.5906 28.8494 37.6527 28.9033C37.7147 28.9571 37.7655 29.0226 37.8022 29.0961C37.8389 29.1696 37.8607 29.2496 37.8665 29.3315C37.8722 29.4135 37.8618 29.4957 37.8357 29.5736L36.5857 33.3236C36.5621 33.4043 36.5226 33.4795 36.4693 33.5445C36.4161 33.6096 36.3502 33.6632 36.2758 33.7022C36.2013 33.7413 36.1197 33.7648 36.0359 33.7716C35.9521 33.7784 35.8678 33.7681 35.788 33.7416C35.7083 33.715 35.6347 33.6726 35.5717 33.6169C35.5087 33.5612 35.4576 33.4934 35.4215 33.4175C35.3853 33.3416 35.3648 33.2592 35.3613 33.1752C35.3577 33.0912 35.3711 33.0073 35.4007 32.9286L36.6507 29.1786C36.7029 29.0213 36.8155 28.8912 36.9636 28.8169C37.1118 28.7426 37.2834 28.7302 37.4407 28.7824ZM37.7494 20.0349C37.4899 18.7263 36.8185 17.5351 35.8334 16.6355C34.8484 15.7358 33.6014 15.1749 32.2747 15.0346C30.9481 14.8944 29.6114 15.1823 28.46 15.8561C27.3087 16.53 26.4031 17.5545 25.8757 18.7799C25.2842 18.7117 24.6851 18.765 24.115 18.9365C23.5448 19.108 23.0157 19.394 22.5599 19.7771C22.1042 20.1602 21.7314 20.6323 21.4645 21.1644C21.1975 21.6966 21.042 22.2776 21.0074 22.872C20.9728 23.4663 21.0599 24.0615 21.2633 24.621C21.4668 25.1806 21.7822 25.6927 22.1905 26.126C22.5987 26.5594 23.0911 26.9049 23.6375 27.1413C24.1839 27.3778 24.7728 27.5002 25.3682 27.5011H37.2432C38.1946 27.5022 39.1108 27.1416 39.8063 26.4925C40.5018 25.8433 40.9245 24.954 40.9889 24.0048C41.0532 23.0556 40.7544 22.1174 40.1529 21.3803C39.5514 20.6432 38.6923 20.1622 37.7494 20.0349ZM31.6182 16.2511C32.8481 16.2509 34.035 16.704 34.9519 17.5238C35.8688 18.3436 36.4514 19.4726 36.5882 20.6949C36.6052 20.8484 36.6785 20.9903 36.7939 21.093C36.9093 21.1957 37.0587 21.2521 37.2132 21.2511H37.2432C37.9062 21.2511 38.5421 21.5145 39.011 21.9834C39.4798 22.4522 39.7432 23.0881 39.7432 23.7511C39.7432 24.4142 39.4798 25.05 39.011 25.5189C38.5421 25.9877 37.9062 26.2511 37.2432 26.2511H25.3682C24.9258 26.2509 24.4885 26.1567 24.0852 25.9749C23.6819 25.793 23.3218 25.5276 23.0287 25.1962C22.7356 24.8648 22.5163 24.4749 22.3852 24.0524C22.254 23.6298 22.2141 23.1843 22.268 22.7452C22.322 22.3061 22.4685 21.8834 22.698 21.5052C22.9275 21.1269 23.2347 20.8017 23.5992 20.5511C23.9638 20.3004 24.3774 20.13 24.8127 20.0512C25.248 19.9723 25.6951 19.9868 26.1244 20.0936C26.2776 20.1318 26.4395 20.1107 26.5777 20.0344C26.7159 19.9581 26.8201 19.8323 26.8694 19.6824C27.1995 18.6836 27.836 17.8144 28.6886 17.1984C29.5412 16.5823 30.5663 16.2509 31.6182 16.2511Z" fill="#396860"/>
</g>
<path d="M19.375 49.7383C19.375 49.1875 19.5352 48.7148 19.8555 48.3203C20.1758 47.9258 20.6016 47.6797 21.1328 47.582V47.4883C20.7031 47.3711 20.3594 47.1426 20.1016 46.8027C19.8477 46.4629 19.7207 46.0625 19.7207 45.6016C19.7207 44.9414 19.9727 44.4004 20.4766 43.9785C20.9844 43.5566 21.6328 43.3457 22.4219 43.3457C23.2109 43.3457 23.8574 43.5566 24.3613 43.9785C24.8691 44.4004 25.123 44.9414 25.123 45.6016C25.123 46.0664 24.9961 46.4668 24.7422 46.8027C24.4922 47.1387 24.1484 47.3672 23.7109 47.4883V47.582C24.2422 47.6797 24.668 47.9258 24.9883 48.3203C25.3086 48.7148 25.4688 49.1875 25.4688 49.7383C25.4688 50.4609 25.1836 51.0527 24.6133 51.5137C24.0469 51.9707 23.3164 52.1992 22.4219 52.1992C21.5273 52.1992 20.7949 51.9707 20.2246 51.5137C19.6582 51.0527 19.375 50.4609 19.375 49.7383ZM20.9922 48.4844C20.625 48.7852 20.4414 49.1777 20.4414 49.6621C20.4414 50.1465 20.625 50.541 20.9922 50.8457C21.3594 51.1465 21.8359 51.2969 22.4219 51.2969C23.0078 51.2969 23.4844 51.1465 23.8516 50.8457C24.2188 50.541 24.4023 50.1465 24.4023 49.6621C24.4023 49.1777 24.2188 48.7852 23.8516 48.4844C23.4844 48.1797 23.0078 48.0273 22.4219 48.0273C21.8359 48.0273 21.3594 48.1797 20.9922 48.4844ZM20.7578 45.7012C20.7578 46.1309 20.9102 46.4785 21.2148 46.7441C21.5195 47.0059 21.9219 47.1367 22.4219 47.1367C22.9219 47.1367 23.3242 47.0059 23.6289 46.7441C23.9336 46.4785 24.0859 46.1309 24.0859 45.7012C24.0859 45.2637 23.9336 44.9121 23.6289 44.6465C23.3242 44.3809 22.9219 44.248 22.4219 44.248C21.9219 44.248 21.5195 44.3809 21.2148 44.6465C20.9102 44.9121 20.7578 45.2637 20.7578 45.7012ZM26.2539 53.7988L29.3594 43.1758H30.25L27.1445 53.7988H26.2539ZM30.9707 46.2754V45.1621L33.2207 43.5449H34.2695V52H33.2148V44.7168H33.1211L30.9707 46.2754ZM36.6367 47.7695C36.6367 46.375 36.9004 45.2891 37.4277 44.5117C37.9551 43.7344 38.6914 43.3457 39.6367 43.3457C40.5781 43.3457 41.3105 43.7363 41.834 44.5176C42.3613 45.2988 42.625 46.3887 42.625 47.7871C42.625 49.1895 42.3633 50.2754 41.8398 51.0449C41.3203 51.8145 40.5859 52.1992 39.6367 52.1992C38.6836 52.1992 37.9453 51.8125 37.4219 51.0391C36.8984 50.2656 36.6367 49.1758 36.6367 47.7695ZM37.6973 47.7695C37.6973 48.8984 37.8633 49.7656 38.1953 50.3711C38.5312 50.9766 39.0117 51.2793 39.6367 51.2793C40.2617 51.2793 40.7383 50.9785 41.0664 50.377C41.3984 49.7715 41.5645 48.9023 41.5645 47.7695C41.5645 46.6484 41.3965 45.7852 41.0605 45.1797C40.7285 44.5742 40.2539 44.2715 39.6367 44.2715C39.0195 44.2715 38.541 44.5762 38.2012 45.1855C37.8652 45.791 37.6973 46.6523 37.6973 47.7695ZM22.3574 63.791H23.4238C23.4902 64.2324 23.7188 64.584 24.1094 64.8457C24.5 65.1074 24.9961 65.2383 25.5977 65.2383C26.168 65.2383 26.6387 65.1016 27.0098 64.8281C27.3848 64.5508 27.5723 64.2031 27.5723 63.7852C27.5723 63.4258 27.4355 63.1289 27.1621 62.8945C26.8887 62.6562 26.4609 62.4629 25.8789 62.3145L24.7949 62.0332C24.0293 61.8418 23.4727 61.5645 23.125 61.2012C22.7773 60.8379 22.6035 60.3555 22.6035 59.7539C22.6035 59.0352 22.877 58.4551 23.4238 58.0137C23.9746 57.5684 24.6973 57.3457 25.5918 57.3457C26.4082 57.3457 27.0918 57.5645 27.6426 58.002C28.1934 58.4395 28.4902 59 28.5332 59.6836H27.4727C27.3984 59.25 27.1914 58.9121 26.8516 58.6699C26.5156 58.4238 26.084 58.3008 25.5566 58.3008C24.9941 58.3008 24.541 58.4316 24.1973 58.6934C23.8574 58.9512 23.6875 59.293 23.6875 59.7188C23.6875 60.0508 23.8125 60.3203 24.0625 60.5273C24.3164 60.7344 24.7344 60.9121 25.3164 61.0605L26.2012 61.2949C27.0762 61.5137 27.7031 61.8066 28.082 62.1738C28.4648 62.541 28.6562 63.0352 28.6562 63.6562C28.6562 64.4336 28.3711 65.0527 27.8008 65.5137C27.2305 65.9707 26.4629 66.1992 25.498 66.1992C24.6035 66.1992 23.8691 65.9805 23.2949 65.543C22.7246 65.1055 22.4121 64.5215 22.3574 63.791ZM29.9102 64.2305C29.9102 63.668 30.1094 63.2266 30.5078 62.9062C30.9062 62.5859 31.4746 62.4043 32.2129 62.3613L34.0352 62.25V61.6758C34.0352 61.2852 33.9141 60.9863 33.6719 60.7793C33.4297 60.5723 33.0742 60.4688 32.6055 60.4688C32.2266 60.4688 31.9121 60.5371 31.6621 60.6738C31.4121 60.8105 31.252 61.0039 31.1816 61.2539H30.1621C30.2285 60.75 30.4883 60.3438 30.9414 60.0352C31.3984 59.7266 31.9648 59.5723 32.6406 59.5723C33.4062 59.5723 33.998 59.7578 34.416 60.1289C34.834 60.5 35.043 61.0156 35.043 61.6758V66H34.082V65.0684H33.9883C33.7852 65.4043 33.5156 65.6621 33.1797 65.8418C32.8438 66.0215 32.4648 66.1113 32.043 66.1113C31.4219 66.1113 30.9102 65.9414 30.5078 65.6016C30.1094 65.2578 29.9102 64.8008 29.9102 64.2305ZM30.9531 64.207C30.9531 64.5234 31.0723 64.7734 31.3105 64.957C31.5488 65.1367 31.8555 65.2266 32.2305 65.2266C32.75 65.2266 33.1797 65.0762 33.5195 64.7754C33.8633 64.4746 34.0352 64.0977 34.0352 63.6445V63.0645L32.3359 63.1758C31.8594 63.207 31.5098 63.3066 31.2871 63.4746C31.0645 63.6426 30.9531 63.8867 30.9531 64.207ZM36.3086 60.5273V59.6836H37.3281V58.0488H38.3359V59.6836H39.7422V60.5273H38.3359V64.1016C38.3359 64.4727 38.4102 64.7422 38.5586 64.9102C38.707 65.0781 38.9453 65.1621 39.2734 65.1621C39.418 65.1621 39.5742 65.1543 39.7422 65.1387V65.9883C39.5195 66.0273 39.3223 66.0469 39.1504 66.0469C38.498 66.0469 38.0312 65.916 37.75 65.6543C37.4688 65.3926 37.3281 64.9609 37.3281 64.3594V60.5273H36.3086Z" fill="#396860"/>
<path d="M13.2891 84.1406V84.1016C13.2891 83.013 13.6693 82.1302 14.4297 81.4531C15.1901 80.776 16.1797 80.4375 17.3984 80.4375C18.5755 80.4375 19.5339 80.7448 20.2734 81.3594C21.0182 81.9688 21.3906 82.7578 21.3906 83.7266C21.3906 84.3411 21.1979 84.9531 20.8125 85.5625C20.4271 86.1667 19.7474 86.9271 18.7734 87.8438L16.6172 89.8984V90.0391H21.5547V92H13.4219V90.3516L17.1016 86.75C17.8932 85.9792 18.4219 85.401 18.6875 85.0156C18.9531 84.6302 19.0859 84.2526 19.0859 83.8828C19.0859 83.4297 18.9193 83.0599 18.5859 82.7734C18.2578 82.4818 17.8359 82.3359 17.3203 82.3359C16.7734 82.3359 16.3281 82.5 15.9844 82.8281C15.6458 83.151 15.4766 83.5729 15.4766 84.0938V84.1406H13.2891ZM23.5703 84.4453C23.5703 83.2734 23.974 82.3125 24.7812 81.5625C25.5885 80.8125 26.6224 80.4375 27.8828 80.4375C28.6953 80.4375 29.4193 80.612 30.0547 80.9609C30.6953 81.3047 31.2109 81.8073 31.6016 82.4688C32.2318 83.4479 32.5469 84.7161 32.5469 86.2734C32.5469 88.1484 32.1302 89.6198 31.2969 90.6875C30.4635 91.7552 29.3125 92.2891 27.8438 92.2891C26.776 92.2891 25.862 92 25.1016 91.4219C24.3411 90.8385 23.8802 90.0781 23.7188 89.1406H26.0547C26.1641 89.5104 26.3802 89.8047 26.7031 90.0234C27.0312 90.2422 27.4167 90.3516 27.8594 90.3516C28.6302 90.3516 29.2344 90.0052 29.6719 89.3125C30.1146 88.6198 30.3229 87.6875 30.2969 86.5156H30.2266H30.1719H30.1562C29.901 87.0469 29.5208 87.4583 29.0156 87.75C28.5156 88.0365 27.9375 88.1797 27.2812 88.1797C26.2083 88.1797 25.3203 87.8281 24.6172 87.125C23.9193 86.4167 23.5703 85.5234 23.5703 84.4453ZM25.8594 84.3672C25.8594 84.9453 26.0521 85.4219 26.4375 85.7969C26.8229 86.1719 27.3099 86.3594 27.8984 86.3594C28.487 86.3594 28.974 86.1745 29.3594 85.8047C29.75 85.4297 29.9453 84.9583 29.9453 84.3906C29.9453 83.8177 29.75 83.3385 29.3594 82.9531C28.9688 82.5625 28.4844 82.3672 27.9062 82.3672C27.3281 82.3672 26.8411 82.5599 26.4453 82.9453C26.0547 83.3307 25.8594 83.8047 25.8594 84.3672ZM36.9553 85.808C36.4113 85.808 35.9259 85.696 35.4993 85.472C35.0833 85.2373 34.7526 84.9173 34.5073 84.512C34.2726 84.1067 34.1553 83.6427 34.1553 83.12C34.1553 82.5973 34.2726 82.1333 34.5073 81.728C34.7526 81.3227 35.0833 81.0027 35.4993 80.768C35.9259 80.5333 36.4113 80.416 36.9553 80.416C37.5099 80.416 37.9953 80.5333 38.4113 80.768C38.8273 80.992 39.1526 81.3067 39.3873 81.712C39.6219 82.1173 39.7393 82.5867 39.7393 83.12C39.7393 83.6427 39.6219 84.1067 39.3873 84.512C39.1526 84.9173 38.8273 85.2373 38.4113 85.472C37.9953 85.696 37.5099 85.808 36.9553 85.808ZM36.9553 84.32C37.2966 84.32 37.5846 84.2133 37.8193 84C38.0539 83.776 38.1713 83.4827 38.1713 83.12C38.1713 82.864 38.1179 82.6453 38.0113 82.464C37.9046 82.272 37.7553 82.128 37.5633 82.032C37.3819 81.936 37.1793 81.888 36.9553 81.888C36.6246 81.888 36.3366 82 36.0913 82.224C35.8566 82.4373 35.7393 82.736 35.7393 83.12C35.7393 83.4827 35.8566 83.776 36.0913 84C36.3366 84.2133 36.6246 84.32 36.9553 84.32ZM45.8193 82.432C45.3606 82.432 44.9499 82.5227 44.5873 82.704C44.2353 82.8853 43.9366 83.1467 43.6913 83.488C43.4459 83.8187 43.2593 84.224 43.1313 84.704C43.0139 85.184 42.9553 85.7227 42.9553 86.32C42.9553 87.1307 43.0513 87.824 43.2433 88.4C43.4459 88.9653 43.7606 89.3973 44.1873 89.696C44.6139 89.9947 45.1579 90.144 45.8193 90.144C46.2886 90.144 46.7526 90.0907 47.2113 89.984C47.6806 89.8773 48.1873 89.728 48.7313 89.536V91.568C48.2299 91.7707 47.7339 91.92 47.2433 92.016C46.7526 92.112 46.2033 92.16 45.5953 92.16C44.4219 92.16 43.4513 91.92 42.6833 91.44C41.9259 90.9493 41.3659 90.2667 41.0033 89.392C40.6406 88.5067 40.4593 87.4773 40.4593 86.304C40.4593 85.44 40.5766 84.6507 40.8113 83.936C41.0459 83.2107 41.3873 82.5867 41.8353 82.064C42.2939 81.5413 42.8539 81.136 43.5153 80.848C44.1873 80.56 44.9553 80.416 45.8193 80.416C46.3846 80.416 46.9499 80.4907 47.5153 80.64C48.0913 80.7787 48.6406 80.9707 49.1633 81.216L48.3793 83.184C47.9526 82.9813 47.5206 82.8053 47.0833 82.656C46.6566 82.5067 46.2353 82.432 45.8193 82.432Z" fill="#396860"/>
<defs>
<clipPath id="clip0_6738_36000">
<rect width="24" height="24" fill="white" transform="translate(19 12)"/>
</clipPath>
</defs>
</svg>
