<svg width="62" height="110" viewBox="0 0 62 110" fill="none" xmlns="http://www.w3.org/2000/svg">
<path d="M0 16C0 7.16344 7.16344 0 16 0H46C54.8366 0 62 7.16344 62 16V94C62 102.837 54.8366 110 46 110H16C7.16344 110 0 102.837 0 94V16Z" fill="#396860"/>
<g clip-path="url(#clip0_6738_36011)">
<path d="M26.1907 28.7824C26.2686 28.8084 26.3406 28.8494 26.4027 28.9033C26.4647 28.9571 26.5155 29.0226 26.5522 29.0961C26.5889 29.1696 26.6107 29.2496 26.6165 29.3315C26.6222 29.4135 26.6118 29.4957 26.5857 29.5736L25.9607 31.4486C25.9038 31.5999 25.7905 31.7233 25.6445 31.7928C25.4986 31.8624 25.3314 31.8727 25.178 31.8216C25.0247 31.7704 24.8971 31.6619 24.8221 31.5187C24.7471 31.3755 24.7304 31.2088 24.7757 31.0536L25.4007 29.1786C25.4529 29.0213 25.5655 28.8912 25.7136 28.8169C25.8618 28.7426 26.0334 28.7302 26.1907 28.7824ZM29.9407 28.7824C30.0186 28.8084 30.0906 28.8494 30.1527 28.9033C30.2147 28.9571 30.2655 29.0226 30.3022 29.0961C30.3389 29.1696 30.3607 29.2496 30.3665 29.3315C30.3722 29.4135 30.3618 29.4957 30.3357 29.5736L29.0857 33.3236C29.0288 33.4749 28.9155 33.5983 28.7695 33.6678C28.6236 33.7374 28.4564 33.7477 28.303 33.6966C28.1497 33.6454 28.0221 33.5369 27.9471 33.3937C27.8721 33.2505 27.8554 33.0838 27.9007 32.9286L29.1507 29.1786C29.2029 29.0213 29.3155 28.8912 29.4636 28.8169C29.6118 28.7426 29.7834 28.7302 29.9407 28.7824ZM33.6907 28.7824C33.7686 28.8084 33.8406 28.8494 33.9027 28.9033C33.9647 28.9571 34.0155 29.0226 34.0522 29.0961C34.0889 29.1696 34.1107 29.2496 34.1165 29.3315C34.1222 29.4135 34.1118 29.4957 34.0857 29.5736L33.4607 31.4486C33.4038 31.5999 33.2905 31.7233 33.1445 31.7928C32.9986 31.8624 32.8314 31.8727 32.678 31.8216C32.5247 31.7704 32.3971 31.6619 32.3221 31.5187C32.2471 31.3755 32.2304 31.2088 32.2757 31.0536L32.9007 29.1786C32.9529 29.0213 33.0655 28.8912 33.2136 28.8169C33.3618 28.7426 33.5334 28.7302 33.6907 28.7824ZM37.4407 28.7824C37.5186 28.8084 37.5906 28.8494 37.6527 28.9033C37.7147 28.9571 37.7655 29.0226 37.8022 29.0961C37.8389 29.1696 37.8607 29.2496 37.8665 29.3315C37.8722 29.4135 37.8618 29.4957 37.8357 29.5736L36.5857 33.3236C36.5621 33.4043 36.5226 33.4795 36.4693 33.5445C36.4161 33.6096 36.3502 33.6632 36.2758 33.7022C36.2013 33.7413 36.1197 33.7648 36.0359 33.7716C35.9521 33.7784 35.8678 33.7681 35.788 33.7416C35.7083 33.715 35.6347 33.6726 35.5717 33.6169C35.5087 33.5612 35.4576 33.4934 35.4215 33.4175C35.3853 33.3416 35.3648 33.2592 35.3613 33.1752C35.3577 33.0912 35.3711 33.0073 35.4007 32.9286L36.6507 29.1786C36.7029 29.0213 36.8155 28.8912 36.9636 28.8169C37.1118 28.7426 37.2834 28.7302 37.4407 28.7824ZM37.7494 20.0349C37.4899 18.7263 36.8185 17.5351 35.8334 16.6355C34.8484 15.7358 33.6014 15.1749 32.2747 15.0346C30.9481 14.8944 29.6114 15.1823 28.46 15.8561C27.3087 16.53 26.4031 17.5545 25.8757 18.7799C25.2842 18.7117 24.6851 18.765 24.115 18.9365C23.5448 19.108 23.0157 19.394 22.5599 19.7771C22.1042 20.1602 21.7314 20.6323 21.4645 21.1644C21.1975 21.6966 21.042 22.2776 21.0074 22.872C20.9728 23.4663 21.0599 24.0615 21.2633 24.621C21.4668 25.1806 21.7822 25.6927 22.1905 26.126C22.5987 26.5594 23.0911 26.9049 23.6375 27.1413C24.1839 27.3778 24.7728 27.5002 25.3682 27.5011H37.2432C38.1946 27.5022 39.1108 27.1416 39.8063 26.4925C40.5018 25.8433 40.9245 24.954 40.9889 24.0048C41.0532 23.0556 40.7544 22.1174 40.1529 21.3803C39.5514 20.6432 38.6923 20.1622 37.7494 20.0349ZM31.6182 16.2511C32.8481 16.2509 34.035 16.704 34.9519 17.5238C35.8688 18.3436 36.4514 19.4726 36.5882 20.6949C36.6052 20.8484 36.6785 20.9903 36.7939 21.093C36.9093 21.1957 37.0587 21.2521 37.2132 21.2511H37.2432C37.9062 21.2511 38.5421 21.5145 39.011 21.9834C39.4798 22.4522 39.7432 23.0881 39.7432 23.7511C39.7432 24.4142 39.4798 25.05 39.011 25.5189C38.5421 25.9877 37.9062 26.2511 37.2432 26.2511H25.3682C24.9258 26.2509 24.4885 26.1567 24.0852 25.9749C23.6819 25.793 23.3218 25.5276 23.0287 25.1962C22.7356 24.8648 22.5163 24.4749 22.3852 24.0524C22.254 23.6298 22.2141 23.1843 22.268 22.7452C22.322 22.3061 22.4685 21.8834 22.698 21.5052C22.9275 21.1269 23.2347 20.8017 23.5992 20.5511C23.9638 20.3004 24.3774 20.13 24.8127 20.0512C25.248 19.9723 25.6951 19.9868 26.1244 20.0936C26.2776 20.1318 26.4395 20.1107 26.5777 20.0344C26.7159 19.9581 26.8201 19.8323 26.8694 19.6824C27.1995 18.6836 27.836 17.8144 28.6886 17.1984C29.5412 16.5823 30.5663 16.2509 31.6182 16.2511Z" fill="white"/>
</g>
<path d="M20.3535 49.7383C20.3535 49.1875 20.5137 48.7148 20.834 48.3203C21.1543 47.9258 21.5801 47.6797 22.1113 47.582V47.4883C21.6816 47.3711 21.3379 47.1426 21.0801 46.8027C20.8262 46.4629 20.6992 46.0625 20.6992 45.6016C20.6992 44.9414 20.9512 44.4004 21.4551 43.9785C21.9629 43.5566 22.6113 43.3457 23.4004 43.3457C24.1895 43.3457 24.8359 43.5566 25.3398 43.9785C25.8477 44.4004 26.1016 44.9414 26.1016 45.6016C26.1016 46.0664 25.9746 46.4668 25.7207 46.8027C25.4707 47.1387 25.127 47.3672 24.6895 47.4883V47.582C25.2207 47.6797 25.6465 47.9258 25.9668 48.3203C26.2871 48.7148 26.4473 49.1875 26.4473 49.7383C26.4473 50.4609 26.1621 51.0527 25.5918 51.5137C25.0254 51.9707 24.2949 52.1992 23.4004 52.1992C22.5059 52.1992 21.7734 51.9707 21.2031 51.5137C20.6367 51.0527 20.3535 50.4609 20.3535 49.7383ZM21.9707 48.4844C21.6035 48.7852 21.4199 49.1777 21.4199 49.6621C21.4199 50.1465 21.6035 50.541 21.9707 50.8457C22.3379 51.1465 22.8145 51.2969 23.4004 51.2969C23.9863 51.2969 24.4629 51.1465 24.8301 50.8457C25.1973 50.541 25.3809 50.1465 25.3809 49.6621C25.3809 49.1777 25.1973 48.7852 24.8301 48.4844C24.4629 48.1797 23.9863 48.0273 23.4004 48.0273C22.8145 48.0273 22.3379 48.1797 21.9707 48.4844ZM21.7363 45.7012C21.7363 46.1309 21.8887 46.4785 22.1934 46.7441C22.498 47.0059 22.9004 47.1367 23.4004 47.1367C23.9004 47.1367 24.3027 47.0059 24.6074 46.7441C24.9121 46.4785 25.0645 46.1309 25.0645 45.7012C25.0645 45.2637 24.9121 44.9121 24.6074 44.6465C24.3027 44.3809 23.9004 44.248 23.4004 44.248C22.9004 44.248 22.498 44.3809 22.1934 44.6465C21.8887 44.9121 21.7363 45.2637 21.7363 45.7012ZM27.2324 53.7988L30.3379 43.1758H31.2285L28.123 53.7988H27.2324ZM31.9492 46.2754V45.1621L34.1992 43.5449H35.248V52H34.1934V44.7168H34.0996L31.9492 46.2754ZM37.5508 46.2754V45.1621L39.8008 43.5449H40.8496V52H39.7949V44.7168H39.7012L37.5508 46.2754ZM20.8398 63.791H21.9062C21.9727 64.2324 22.2012 64.584 22.5918 64.8457C22.9824 65.1074 23.4785 65.2383 24.0801 65.2383C24.6504 65.2383 25.1211 65.1016 25.4922 64.8281C25.8672 64.5508 26.0547 64.2031 26.0547 63.7852C26.0547 63.4258 25.918 63.1289 25.6445 62.8945C25.3711 62.6562 24.9434 62.4629 24.3613 62.3145L23.2773 62.0332C22.5117 61.8418 21.9551 61.5645 21.6074 61.2012C21.2598 60.8379 21.0859 60.3555 21.0859 59.7539C21.0859 59.0352 21.3594 58.4551 21.9062 58.0137C22.457 57.5684 23.1797 57.3457 24.0742 57.3457C24.8906 57.3457 25.5742 57.5645 26.125 58.002C26.6758 58.4395 26.9727 59 27.0156 59.6836H25.9551C25.8809 59.25 25.6738 58.9121 25.334 58.6699C24.998 58.4238 24.5664 58.3008 24.0391 58.3008C23.4766 58.3008 23.0234 58.4316 22.6797 58.6934C22.3398 58.9512 22.1699 59.293 22.1699 59.7188C22.1699 60.0508 22.2949 60.3203 22.5449 60.5273C22.7988 60.7344 23.2168 60.9121 23.7988 61.0605L24.6836 61.2949C25.5586 61.5137 26.1855 61.8066 26.5645 62.1738C26.9473 62.541 27.1387 63.0352 27.1387 63.6562C27.1387 64.4336 26.8535 65.0527 26.2832 65.5137C25.7129 65.9707 24.9453 66.1992 23.9805 66.1992C23.0859 66.1992 22.3516 65.9805 21.7773 65.543C21.207 65.1055 20.8945 64.5215 20.8398 63.791ZM28.709 63.7734V59.6836H29.7168V63.5273C29.7168 64.1016 29.8301 64.5234 30.0566 64.793C30.2832 65.0586 30.6465 65.1914 31.1465 65.1914C31.6973 65.1914 32.1211 65.0371 32.418 64.7285C32.7188 64.416 32.8691 63.9805 32.8691 63.4219V59.6836H33.877V66H32.916V65.0098H32.8223C32.6621 65.3652 32.416 65.6387 32.084 65.8301C31.752 66.0176 31.3457 66.1113 30.8652 66.1113C30.1621 66.1113 29.627 65.9102 29.2598 65.5078C28.8926 65.1055 28.709 64.5273 28.709 63.7734ZM35.7754 66V59.6836H36.7363V60.6797H36.8301C37.166 59.9414 37.7988 59.5723 38.7285 59.5723C39.4355 59.5723 39.9805 59.7754 40.3633 60.1816C40.7461 60.584 40.9375 61.1602 40.9375 61.9102V66H39.9297V62.1562C39.9297 61.5898 39.8066 61.1699 39.5605 60.8965C39.3184 60.6191 38.9453 60.4805 38.4414 60.4805C37.9336 60.4805 37.5293 60.6406 37.2285 60.9609C36.9316 61.2773 36.7832 61.7109 36.7832 62.2617V66H35.7754Z" fill="white"/>
<path d="M13.2109 84.1406V84.1016C13.2109 83.013 13.5911 82.1302 14.3516 81.4531C15.112 80.776 16.1016 80.4375 17.3203 80.4375C18.4974 80.4375 19.4557 80.7448 20.1953 81.3594C20.9401 81.9688 21.3125 82.7578 21.3125 83.7266C21.3125 84.3411 21.1198 84.9531 20.7344 85.5625C20.349 86.1667 19.6693 86.9271 18.6953 87.8438L16.5391 89.8984V90.0391H21.4766V92H13.3438V90.3516L17.0234 86.75C17.8151 85.9792 18.3438 85.401 18.6094 85.0156C18.875 84.6302 19.0078 84.2526 19.0078 83.8828C19.0078 83.4297 18.8411 83.0599 18.5078 82.7734C18.1797 82.4818 17.7578 82.3359 17.2422 82.3359C16.6953 82.3359 16.25 82.5 15.9062 82.8281C15.5677 83.151 15.3984 83.5729 15.3984 84.0938V84.1406H13.2109ZM23.5 88.9922C23.5 88.2839 23.724 87.6693 24.1719 87.1484C24.625 86.6224 25.2292 86.276 25.9844 86.1094V85.9688C25.3698 85.8281 24.8776 85.5339 24.5078 85.0859C24.138 84.638 23.9531 84.1146 23.9531 83.5156C23.9531 82.6146 24.3359 81.8776 25.1016 81.3047C25.8724 80.7266 26.8568 80.4375 28.0547 80.4375C29.2474 80.4375 30.2266 80.7266 30.9922 81.3047C31.763 81.8776 32.1484 82.6146 32.1484 83.5156C32.1484 84.1146 31.9635 84.638 31.5938 85.0859C31.2292 85.5286 30.737 85.8229 30.1172 85.9688V86.1094C30.8672 86.25 31.4688 86.5833 31.9219 87.1094C32.3802 87.6302 32.6094 88.25 32.6094 88.9688C32.6094 89.9583 32.1875 90.7604 31.3438 91.375C30.5 91.9844 29.401 92.2891 28.0469 92.2891C26.6927 92.2891 25.5964 91.9844 24.7578 91.375C23.9193 90.7656 23.5 89.9714 23.5 88.9922ZM25.9531 88.7734C25.9531 89.2839 26.1458 89.7005 26.5312 90.0234C26.9219 90.3464 27.4271 90.5078 28.0469 90.5078C28.6667 90.5078 29.1719 90.3464 29.5625 90.0234C29.9531 89.7005 30.1484 89.2839 30.1484 88.7734C30.1484 88.2578 29.9531 87.8385 29.5625 87.5156C29.1719 87.1927 28.6667 87.0312 28.0469 87.0312C27.4271 87.0312 26.9219 87.1927 26.5312 87.5156C26.1458 87.8385 25.9531 88.2578 25.9531 88.7734ZM26.2812 83.7422C26.2812 84.1953 26.4453 84.5677 26.7734 84.8594C27.1016 85.1458 27.526 85.2891 28.0469 85.2891C28.5677 85.2891 28.9922 85.1458 29.3203 84.8594C29.6536 84.5677 29.8203 84.1953 29.8203 83.7422C29.8203 83.2839 29.6536 82.9115 29.3203 82.625C28.9922 82.3333 28.5677 82.1875 28.0469 82.1875C27.526 82.1875 27.1016 82.3333 26.7734 82.625C26.4453 82.9115 26.2812 83.2839 26.2812 83.7422ZM37.0334 85.808C36.4894 85.808 36.004 85.696 35.5774 85.472C35.1614 85.2373 34.8307 84.9173 34.5854 84.512C34.3507 84.1067 34.2334 83.6427 34.2334 83.12C34.2334 82.5973 34.3507 82.1333 34.5854 81.728C34.8307 81.3227 35.1614 81.0027 35.5774 80.768C36.004 80.5333 36.4894 80.416 37.0334 80.416C37.588 80.416 38.0734 80.5333 38.4894 80.768C38.9054 80.992 39.2307 81.3067 39.4654 81.712C39.7 82.1173 39.8174 82.5867 39.8174 83.12C39.8174 83.6427 39.7 84.1067 39.4654 84.512C39.2307 84.9173 38.9054 85.2373 38.4894 85.472C38.0734 85.696 37.588 85.808 37.0334 85.808ZM37.0334 84.32C37.3747 84.32 37.6627 84.2133 37.8974 84C38.132 83.776 38.2494 83.4827 38.2494 83.12C38.2494 82.864 38.196 82.6453 38.0894 82.464C37.9827 82.272 37.8334 82.128 37.6414 82.032C37.46 81.936 37.2574 81.888 37.0334 81.888C36.7027 81.888 36.4147 82 36.1694 82.224C35.9347 82.4373 35.8174 82.736 35.8174 83.12C35.8174 83.4827 35.9347 83.776 36.1694 84C36.4147 84.2133 36.7027 84.32 37.0334 84.32ZM45.8974 82.432C45.4387 82.432 45.028 82.5227 44.6654 82.704C44.3134 82.8853 44.0147 83.1467 43.7694 83.488C43.524 83.8187 43.3374 84.224 43.2094 84.704C43.092 85.184 43.0334 85.7227 43.0334 86.32C43.0334 87.1307 43.1294 87.824 43.3214 88.4C43.524 88.9653 43.8387 89.3973 44.2654 89.696C44.692 89.9947 45.236 90.144 45.8974 90.144C46.3667 90.144 46.8307 90.0907 47.2894 89.984C47.7587 89.8773 48.2654 89.728 48.8094 89.536V91.568C48.308 91.7707 47.812 91.92 47.3214 92.016C46.8307 92.112 46.2814 92.16 45.6734 92.16C44.5 92.16 43.5294 91.92 42.7614 91.44C42.004 90.9493 41.444 90.2667 41.0814 89.392C40.7187 88.5067 40.5374 87.4773 40.5374 86.304C40.5374 85.44 40.6547 84.6507 40.8894 83.936C41.124 83.2107 41.4654 82.5867 41.9134 82.064C42.372 81.5413 42.932 81.136 43.5934 80.848C44.2654 80.56 45.0334 80.416 45.8974 80.416C46.4627 80.416 47.028 80.4907 47.5934 80.64C48.1694 80.7787 48.7187 80.9707 49.2414 81.216L48.4574 83.184C48.0307 82.9813 47.5987 82.8053 47.1614 82.656C46.7347 82.5067 46.3134 82.432 45.8974 82.432Z" fill="white"/>
<defs>
<clipPath id="clip0_6738_36011">
<rect width="24" height="24" fill="white" transform="translate(19 12)"/>
</clipPath>
</defs>
</svg>
