<svg width="24" height="24" viewBox="0 0 24 24" fill="none" xmlns="http://www.w3.org/2000/svg">
<g clip-path="url(#clip0_6071_39588)">
<path d="M19.4167 5.57583C19.1232 4.77268 18.5902 4.07899 17.8897 3.58852C17.1892 3.09806 16.3551 2.83445 15.5 2.83333H8.5C7.6449 2.83445 6.81076 3.09806 6.1103 3.58852C5.40985 4.07899 4.87685 4.77268 4.58334 5.57583L2.33334 11.765C2.11205 12.3746 1.99923 13.0182 2 13.6667V14.5C2.00149 15.144 2.15286 15.7788 2.44214 16.3542C2.73142 16.9295 3.15066 17.4297 3.66667 17.815C3.66667 17.8217 3.66667 17.8267 3.66667 17.8333V19.5C3.66667 20.163 3.93006 20.7989 4.3989 21.2678C4.86774 21.7366 5.50363 22 6.16667 22C6.82971 22 7.4656 21.7366 7.93444 21.2678C8.40328 20.7989 8.66667 20.163 8.66667 19.5V18.6667H15.3333V19.5C15.3333 20.163 15.5967 20.7989 16.0656 21.2678C16.5344 21.7366 17.1703 22 17.8333 22C18.4964 22 19.1323 21.7366 19.6011 21.2678C20.0699 20.7989 20.3333 20.163 20.3333 19.5V17.8333C20.3333 17.8267 20.3333 17.8217 20.3333 17.815C20.8493 17.4297 21.2686 16.9295 21.5579 16.3542C21.8471 15.7788 21.9985 15.144 22 14.5V13.6667C22.0009 13.0184 21.888 12.3751 21.6667 11.7658L19.4167 5.57583ZM6.15167 6.14583C6.32787 5.6643 6.64745 5.24837 7.06734 4.95408C7.48724 4.6598 7.98726 4.50132 8.5 4.49999H15.5C16.013 4.50098 16.5134 4.6593 16.9336 4.95361C17.3539 5.24791 17.6737 5.66404 17.85 6.14583L19.6733 11.1667H4.32584L6.15167 6.14583ZM7 19.5C7 19.721 6.91221 19.933 6.75593 20.0893C6.59965 20.2455 6.38768 20.3333 6.16667 20.3333C5.94566 20.3333 5.7337 20.2455 5.57742 20.0893C5.42113 19.933 5.33334 19.721 5.33334 19.5V18.5833C5.60761 18.639 5.8868 18.6669 6.16667 18.6667H7V19.5ZM18.6667 19.5C18.6667 19.721 18.5789 19.933 18.4226 20.0893C18.2663 20.2455 18.0543 20.3333 17.8333 20.3333C17.6123 20.3333 17.4004 20.2455 17.2441 20.0893C17.0878 19.933 17 19.721 17 19.5V18.6667H17.8333C18.1132 18.6669 18.3924 18.639 18.6667 18.5833V19.5ZM20.3333 14.5C20.3333 15.163 20.0699 15.7989 19.6011 16.2678C19.1323 16.7366 18.4964 17 17.8333 17H6.16667C5.50363 17 4.86774 16.7366 4.3989 16.2678C3.93006 15.7989 3.66667 15.163 3.66667 14.5V13.6667C3.67007 13.3861 3.70388 13.1066 3.7675 12.8333H5.33334V13.6667C5.33334 13.8877 5.42113 14.0996 5.57742 14.2559C5.7337 14.4122 5.94566 14.5 6.16667 14.5C6.38768 14.5 6.59965 14.4122 6.75593 14.2559C6.91221 14.0996 7 13.8877 7 13.6667V12.8333H17V13.6667C17 13.8877 17.0878 14.0996 17.2441 14.2559C17.4004 14.4122 17.6123 14.5 17.8333 14.5C18.0543 14.5 18.2663 14.4122 18.4226 14.2559C18.5789 14.0996 18.6667 13.8877 18.6667 13.6667V12.8333H20.2325C20.2962 13.1066 20.33 13.3861 20.3333 13.6667V14.5Z" fill="#262524"/>
</g>
<defs>
<clipPath id="clip0_6071_39588">
<rect width="20" height="20" fill="white" transform="translate(2 2)"/>
</clipPath>
</defs>
</svg>
