<svg width="24" height="24" viewBox="0 0 24 24" fill="none" xmlns="http://www.w3.org/2000/svg">
<path d="M12 2C6.5 2 2 6.5 2 12C2 17.5 6.5 22 12 22C17.5 22 22 17.5 22 12C22 6.5 17.5 2 12 2ZM12 20C7.59 20 4 16.41 4 12C4 7.59 7.59 4 12 4C16.41 4 20 7.59 20 12C20 16.41 16.41 20 12 20ZM17.2975 8.29251C16.9072 7.89941 16.2717 7.89829 15.88 8.29L10 14.17L8.11568 12.293C7.72572 11.9045 7.09489 11.9051 6.70568 12.2943V12.2943C6.31594 12.6841 6.31594 13.3159 6.70568 13.7057L9.29289 16.2929C9.68342 16.6834 10.3166 16.6834 10.7071 16.2929L17.295 9.705C17.6848 9.31524 17.6859 8.68365 17.2975 8.29251V8.29251Z" fill="black"/>
</svg>
