<svg width="24" height="24" viewBox="0 0 24 24" fill="none" xmlns="http://www.w3.org/2000/svg">
<g clip-path="url(#clip0_6071_39574)">
<path d="M9.99817 12.0341C9.96813 13.1532 9.0581 14.0338 7.9578 14.0081C6.82746 13.9812 5.97251 13.0537 6.00068 11.8833C6.02571 10.8437 6.98206 9.96182 8.04981 9.99187C9.14572 10.0232 10.027 10.947 9.99817 12.0335V12.0341Z" fill="#262524"/>
<path d="M13.9946 11.9728C14.0184 10.8575 14.9278 9.97121 16.0275 9.99124C17.1584 10.0119 18.0196 10.9388 17.9927 12.1073C17.9689 13.1494 17.0189 14.0338 15.9511 14.0069C14.8564 13.98 13.9708 13.0593 13.9946 11.9721V11.9728Z" fill="#262524"/>
<path d="M9.99838 4.03411C9.96771 5.18761 9.06394 6.02816 7.88416 5.99937C6.80764 5.97309 5.96896 5.02676 6.00088 3.87514C6.0303 2.83868 6.98164 1.96495 8.0425 2.00188C9.15845 2.04006 10.0278 2.94257 9.99838 4.03411Z" fill="#262524"/>
<path d="M9.99833 20.0266C9.97204 21.1394 9.07516 22.0169 7.98049 22C6.82449 21.9812 5.96954 21.0637 6.00083 19.8751C6.02962 18.8093 6.96782 17.9743 8.10942 18C9.14963 18.0238 10.0234 18.9607 9.99833 20.0266Z" fill="#262524"/>
<path d="M15.9926 22C14.8911 21.9987 14.0011 21.1113 13.9942 20.0059C13.9873 18.8944 14.8823 17.9981 15.9982 17.9987C17.1161 18 17.9967 18.8888 17.9936 20.0122C17.9904 21.1131 17.0967 22.0006 15.9926 21.9994V22Z" fill="#262524"/>
<path d="M13.9938 4.00282C13.9919 2.90064 14.8757 2.01064 15.9822 2C17.0925 1.98936 17.9932 2.88437 17.9932 3.99969C17.9932 5.10812 17.1107 5.9975 16.0072 6C14.8882 6.00313 13.995 5.11751 13.9932 4.00282H13.9938Z" fill="#262524"/>
</g>
<defs>
<clipPath id="clip0_6071_39574">
<rect width="11.9937" height="20" fill="white" transform="translate(6 2)"/>
</clipPath>
</defs>
</svg>
