<svg width="24" height="24" viewBox="0 0 24 24" fill="none" xmlns="http://www.w3.org/2000/svg">
<g clip-path="url(#clip0_6071_39608)">
<path d="M17.547 2.77499L7.38701 12.935C6.99896 13.3209 6.69132 13.78 6.48191 14.2857C6.2725 14.7914 6.16546 15.3335 6.16701 15.8808V17C6.16701 17.221 6.25481 17.433 6.41109 17.5893C6.56737 17.7455 6.77933 17.8333 7.00034 17.8333H8.11951C8.66681 17.8349 9.20898 17.7278 9.71464 17.5184C10.2203 17.309 10.6794 17.0014 11.0653 16.6133L21.2253 6.45333C21.7123 5.96514 21.9858 5.30372 21.9858 4.61416C21.9858 3.9246 21.7123 3.26319 21.2253 2.77499C20.7301 2.30157 20.0713 2.03737 19.3862 2.03737C18.701 2.03737 18.0423 2.30157 17.547 2.77499ZM20.047 5.27499L9.88701 15.435C9.41711 15.902 8.78201 16.1649 8.11951 16.1667H7.83368V15.8808C7.83541 15.2183 8.09831 14.5832 8.56534 14.1133L18.7253 3.95333C18.9033 3.78329 19.14 3.68841 19.3862 3.68841C19.6323 3.68841 19.869 3.78329 20.047 3.95333C20.222 4.12876 20.3202 4.3664 20.3202 4.61416C20.3202 4.86192 20.222 5.09957 20.047 5.27499Z" fill="#262524"/>
<path d="M21.1667 9.4825C20.9457 9.4825 20.7337 9.5703 20.5774 9.72658C20.4211 9.88286 20.3333 10.0948 20.3333 10.3158V14.5H17C16.337 14.5 15.7011 14.7634 15.2322 15.2322C14.7634 15.7011 14.5 16.337 14.5 17V20.3333H6.16667C5.50363 20.3333 4.86774 20.0699 4.3989 19.6011C3.93006 19.1323 3.66667 18.4964 3.66667 17.8333V6.16667C3.66667 5.50363 3.93006 4.86774 4.3989 4.3989C4.86774 3.93006 5.50363 3.66667 6.16667 3.66667H13.7017C13.9227 3.66667 14.1346 3.57887 14.2909 3.42259C14.4472 3.26631 14.535 3.05435 14.535 2.83333C14.535 2.61232 14.4472 2.40036 14.2909 2.24408C14.1346 2.0878 13.9227 2 13.7017 2H6.16667C5.062 2.00132 4.00297 2.44073 3.22185 3.22185C2.44074 4.00296 2.00132 5.062 2 6.16667L2 17.8333C2.00132 18.938 2.44074 19.997 3.22185 20.7782C4.00297 21.5593 5.062 21.9987 6.16667 22H15.6192C16.1666 22.0016 16.7089 21.8945 17.2147 21.6851C17.7205 21.4757 18.1797 21.1681 18.5658 20.78L20.7792 18.565C21.1673 18.1791 21.475 17.72 21.6846 17.2143C21.8941 16.7087 22.0013 16.1665 22 15.6192V10.3158C22 10.0948 21.9122 9.88286 21.7559 9.72658C21.5996 9.5703 21.3877 9.4825 21.1667 9.4825ZM17.3875 19.6017C17.0525 19.9358 16.6289 20.1672 16.1667 20.2683V17C16.1667 16.779 16.2545 16.567 16.4107 16.4107C16.567 16.2545 16.779 16.1667 17 16.1667H20.2708C20.1677 16.6279 19.9367 17.0508 19.6042 17.3867L17.3875 19.6017Z" fill="#262524"/>
</g>
<defs>
<clipPath id="clip0_6071_39608">
<rect width="20" height="20" fill="white" transform="translate(2 2)"/>
</clipPath>
</defs>
</svg>
