<svg width="24" height="24" viewBox="0 0 24 24" fill="none" xmlns="http://www.w3.org/2000/svg">
<g clip-path="url(#clip0_6071_39554)">
<path d="M16.5835 3.5975C15.6451 3.6121 14.7272 3.87405 13.9224 4.3569C13.1177 4.83974 12.4546 5.52639 12.0001 6.3475C11.5457 5.52639 10.8826 4.83974 10.0778 4.3569C9.27308 3.87405 8.35517 3.6121 7.41679 3.5975C5.92091 3.6625 4.51155 4.31688 3.49661 5.4177C2.48168 6.51851 1.94367 7.97627 2.00013 9.4725C2.00013 13.2617 5.98846 17.4 9.33346 20.2058C10.0803 20.8334 11.0246 21.1775 12.0001 21.1775C12.9757 21.1775 13.9199 20.8334 14.6668 20.2058C18.0118 17.4 22.0001 13.2617 22.0001 9.4725C22.0566 7.97627 21.5186 6.51851 20.5036 5.4177C19.4887 4.31688 18.0793 3.6625 16.5835 3.5975Z" fill="#262524"/>
</g>
<defs>
<clipPath id="clip0_6071_39554">
<rect width="20" height="20" fill="white" transform="translate(2 2)"/>
</clipPath>
</defs>
</svg>
