<svg width="24" height="24" viewBox="0 0 24 24" fill="none" xmlns="http://www.w3.org/2000/svg">
<path d="M12 4C10.1442 4.00194 8.36505 4.70352 7.05275 5.95082C5.74046 7.19812 5.00223 8.88929 5 10.6533C5 12.3667 6.39565 15.048 9.14838 18.6226C9.47609 19.0494 9.90516 19.3966 10.4007 19.6359C10.8962 19.8753 11.4442 20 12 20C12.5558 20 13.1038 19.8753 13.5993 19.6359C14.0948 19.3966 14.5239 19.0494 14.8516 18.6226C17.6043 15.048 19 12.3667 19 10.6533C18.9978 8.88929 18.2595 7.19812 16.9472 5.95082C15.635 4.70352 13.8558 4.00194 12 4ZM12 13.3053C11.4452 13.3053 10.9028 13.1489 10.4414 12.8559C9.98011 12.5629 9.62054 12.1464 9.40821 11.6591C9.19588 11.1719 9.14033 10.6357 9.24857 10.1184C9.35682 9.60113 9.624 9.12598 10.0163 8.75304C10.4087 8.3801 10.9085 8.12613 11.4527 8.02323C11.9969 7.92034 12.5609 7.97315 13.0736 8.17498C13.5862 8.37681 14.0243 8.71861 14.3325 9.15714C14.6408 9.59567 14.8053 10.1112 14.8053 10.6387C14.8053 11.3459 14.5098 12.0242 13.9837 12.5243C13.4576 13.0244 12.744 13.3053 12 13.3053Z" fill="#262524"/>
</svg>
