<svg width="24" height="24" viewBox="0 0 24 24" fill="none" xmlns="http://www.w3.org/2000/svg">
<g clip-path="url(#clip0_6071_39583)">
<path d="M18.1105 14.2225C17.4804 14.223 16.8599 14.3768 16.3026 14.6707C15.7452 14.9645 15.2677 15.3896 14.9113 15.9092L9.48716 13.46C9.87242 12.5297 9.87392 11.4847 9.49133 10.5533L14.908 8.09166C15.4362 8.85562 16.2208 9.40496 17.1193 9.64003C18.0179 9.8751 18.9709 9.78033 19.8056 9.37291C20.6403 8.96549 21.3013 8.27241 21.6687 7.41938C22.0361 6.56635 22.0857 5.60989 21.8083 4.72347C21.5309 3.83706 20.9451 3.07941 20.1569 2.58796C19.3688 2.0965 18.4306 1.9038 17.5126 2.04481C16.5946 2.18581 15.7575 2.65118 15.1532 3.3565C14.5489 4.06181 14.2174 4.96036 14.2188 5.88916C14.2224 6.10899 14.2447 6.32812 14.2855 6.54416L8.52716 9.16083C7.97411 8.64268 7.28175 8.29736 6.53514 8.16729C5.78853 8.03723 5.02018 8.12809 4.3245 8.42871C3.62882 8.72932 3.0361 9.22661 2.61916 9.85946C2.20221 10.4923 1.97921 11.2332 1.97755 11.991C1.97588 12.7489 2.19563 13.4907 2.60978 14.1254C3.02394 14.7601 3.61447 15.26 4.30882 15.5636C5.00318 15.8673 5.77112 15.9615 6.51829 15.8348C7.26547 15.708 7.95934 15.3657 8.51466 14.85L14.288 17.4567C14.2479 17.6725 14.2259 17.8913 14.2222 18.1108C14.222 18.8801 14.45 19.6321 14.8773 20.2718C15.3045 20.9115 15.9119 21.4102 16.6226 21.7046C17.3333 21.9991 18.1154 22.0762 18.8699 21.9261C19.6244 21.7761 20.3174 21.4057 20.8614 20.8617C21.4053 20.3178 21.7758 19.6247 21.9258 18.8702C22.0758 18.1157 21.9988 17.3336 21.7043 16.623C21.4098 15.9123 20.9112 15.3049 20.2715 14.8776C19.6318 14.4503 18.8798 14.2223 18.1105 14.2225ZM18.1105 3.66666C18.5501 3.66649 18.9799 3.7967 19.3455 4.04081C19.7111 4.28492 19.9961 4.63197 20.1644 5.03807C20.3328 5.44416 20.3769 5.89106 20.2912 6.32224C20.2056 6.75341 19.994 7.1495 19.6832 7.46041C19.3724 7.77131 18.9764 7.98307 18.5452 8.06889C18.1141 8.15472 17.6672 8.11075 17.261 7.94256C16.8548 7.77437 16.5077 7.48951 16.2634 7.124C16.0192 6.75849 15.8888 6.32876 15.8888 5.88916C15.8893 5.3 16.1235 4.73508 16.54 4.3184C16.9565 3.90172 17.5213 3.66732 18.1105 3.66666ZM5.88883 14.2225C5.44922 14.2227 5.01944 14.0925 4.65384 13.8483C4.28825 13.6042 4.00325 13.2572 3.83491 12.8511C3.66657 12.445 3.62243 11.9981 3.7081 11.5669C3.79376 11.1357 4.00536 10.7396 4.31615 10.4287C4.62694 10.1178 5.02295 9.90608 5.4541 9.82026C5.88524 9.73444 6.33216 9.7784 6.73831 9.94659C7.14447 10.1148 7.49163 10.3996 7.73588 10.7652C7.98012 11.1307 8.11049 11.5604 8.11049 12C8.10983 12.5891 7.87558 13.1539 7.4591 13.5705C7.04262 13.9871 6.47792 14.2216 5.88883 14.2225ZM18.1105 20.3333C17.6709 20.3333 17.2412 20.203 16.8757 19.9588C16.5102 19.7146 16.2254 19.3674 16.0572 18.9613C15.889 18.5552 15.8449 18.1084 15.9307 17.6772C16.0165 17.2461 16.2281 16.8501 16.5389 16.5393C16.8498 16.2285 17.2458 16.0168 17.6769 15.931C18.108 15.8453 18.5549 15.8893 18.961 16.0575C19.3671 16.2257 19.7142 16.5106 19.9584 16.8761C20.2026 17.2416 20.333 17.6713 20.333 18.1108C20.3326 18.7001 20.0983 19.2652 19.6816 19.6819C19.2648 20.0986 18.6998 20.3329 18.1105 20.3333Z" fill="#262524"/>
</g>
<defs>
<clipPath id="clip0_6071_39583">
<rect width="20" height="20" fill="white" transform="translate(2 2)"/>
</clipPath>
</defs>
</svg>
