<svg width="24" height="24" viewBox="0 0 24 24" fill="none" xmlns="http://www.w3.org/2000/svg">
<g clip-path="url(#clip0_6071_39604)">
<path d="M11.167 4.08333C11.167 2.9325 12.0995 2 13.2503 2C14.4012 2 15.3337 2.9325 15.3337 4.08333C15.3337 5.23417 14.4012 6.16667 13.2503 6.16667C12.0995 6.16667 11.167 5.23417 11.167 4.08333ZM18.8095 12.1317L16.622 11.0383C16.622 11.0383 14.732 8.045 14.6895 7.99583C14.1353 7.3625 13.3353 7 12.4945 7C11.4328 7 10.3703 7.25083 9.42116 7.72583L7.31616 8.77833C6.78199 9.04583 6.38783 9.53 6.23449 10.1083L5.70699 12.0975C5.53033 12.765 5.92783 13.4492 6.59449 13.6258C7.26283 13.8033 7.94616 13.4058 8.12283 12.7383L8.60199 10.9317L10.1278 10.1683L9.57616 12.5267C9.28366 13.7767 9.85866 15.0925 10.9753 15.7267L14.2887 17.6083C14.4187 17.6825 14.4995 17.8217 14.4995 17.9717V20.7517C14.4995 21.4425 15.0595 22.0017 15.7495 22.0017C16.4395 22.0017 16.9995 21.4425 16.9995 20.7517V17.9717C16.9995 16.925 16.4337 15.9533 15.5237 15.4358L13.2537 14.1467L13.9612 11.5092L14.6903 12.6675C14.812 12.8608 14.9853 13.0175 15.1895 13.12L17.6895 14.37C17.8695 14.4592 18.0595 14.5025 18.2478 14.5025C18.7062 14.5025 19.1478 14.2492 19.367 13.8108C19.6753 13.1933 19.4253 12.4425 18.8078 12.1333L18.8095 12.1317ZM10.2162 16.6858C9.53949 16.5517 8.88283 17.0008 8.75449 17.6792L8.72199 17.8458L7.54949 20.1908C7.24116 20.8083 7.49116 21.5592 8.10866 21.8683C8.28783 21.9575 8.47866 22.0008 8.66699 22.0008C9.12533 22.0008 9.56699 21.7475 9.78616 21.3092L11.0362 18.8092C11.0878 18.7067 11.1245 18.5975 11.1453 18.4842L11.2095 18.1475C11.3395 17.47 10.8945 16.815 10.2162 16.6858Z" fill="#262524"/>
</g>
<defs>
<clipPath id="clip0_6071_39604">
<rect width="20" height="20" fill="white" transform="translate(2 2)"/>
</clipPath>
</defs>
</svg>
