<svg width="24" height="24" viewBox="0 0 24 24" fill="none" xmlns="http://www.w3.org/2000/svg">
<g clip-path="url(#clip0_4319_50626)">
<path d="M17.8333 15.3333H12.8333C10.5358 15.3333 8.66667 13.4642 8.66667 11.1667V6.16667C8.66667 3.86917 10.5358 2 12.8333 2H17.8333C20.1308 2 22 3.86917 22 6.16667V11.1667C22 13.4642 20.1308 15.3333 17.8333 15.3333ZM11.1667 22H6.16667C3.86917 22 2 20.1308 2 17.8333V12.8333C2 10.5358 3.86917 8.66667 6.16667 8.66667C6.6275 8.66667 7 9.04 7 9.5V11.1667C7 14.3833 9.6175 17 12.8333 17H14.5C14.9608 17 15.3333 17.3733 15.3333 17.8333C15.3333 20.1308 13.4642 22 11.1667 22Z" fill="#262524"/>
</g>
<defs>
<clipPath id="clip0_4319_50626">
<rect width="20" height="20" fill="white" transform="translate(2 2)"/>
</clipPath>
</defs>
</svg>
