<svg width="24" height="24" viewBox="0 0 24 24" fill="none" xmlns="http://www.w3.org/2000/svg">
<g clip-path="url(#clip0_4319_50622)">
<path d="M17.8333 2H12.8333C10.5358 2 8.66667 3.86917 8.66667 6.16667V11.1667C8.66667 13.4642 10.5358 15.3333 12.8333 15.3333H17.8333C20.1308 15.3333 22 13.4642 22 11.1667V6.16667C22 3.86917 20.1308 2 17.8333 2ZM20.3333 11.1667C20.3333 12.545 19.2117 13.6667 17.8333 13.6667H12.8333C11.455 13.6667 10.3333 12.545 10.3333 11.1667V6.16667C10.3333 4.78833 11.455 3.66667 12.8333 3.66667H17.8333C19.2117 3.66667 20.3333 4.78833 20.3333 6.16667V11.1667ZM15.3333 17.8333C15.3333 20.1308 13.4642 22 11.1667 22H6.16667C3.86917 22 2 20.1308 2 17.8333V12.8333C2 10.5358 3.86917 8.66667 6.16667 8.66667C6.6275 8.66667 7 9.04 7 9.5C7 9.96 6.6275 10.3333 6.16667 10.3333C4.78833 10.3333 3.66667 11.455 3.66667 12.8333V17.8333C3.66667 19.2117 4.78833 20.3333 6.16667 20.3333H11.1667C12.545 20.3333 13.6667 19.2117 13.6667 17.8333C13.6667 17.3733 14.0392 17 14.5 17C14.9608 17 15.3333 17.3733 15.3333 17.8333Z" fill="#262524"/>
</g>
<defs>
<clipPath id="clip0_4319_50622">
<rect width="20" height="20" fill="white" transform="translate(2 2)"/>
</clipPath>
</defs>
</svg>
