<svg width="24" height="24" viewBox="0 0 24 24" fill="none" xmlns="http://www.w3.org/2000/svg">
<g clip-path="url(#clip0_4319_50595)">
<path d="M7.83342 21.9117C7.68515 21.8865 7.5385 21.8526 7.39425 21.81L5.00342 21.06C4.13885 20.806 3.37958 20.2793 2.83891 19.5584C2.29824 18.8375 2.00517 17.9611 2.00342 17.06V7.00002C2.00428 6.31506 2.174 5.64087 2.49755 5.03714C2.8211 4.43341 3.28849 3.91875 3.85837 3.53873C4.42824 3.1587 5.08301 2.92503 5.76473 2.85839C6.44644 2.79176 7.13407 2.89421 7.76675 3.15669L7.83342 3.18752V21.9117ZM19.2334 2.97252L19.2159 2.96669L16.9534 2.21669C16.6974 2.13367 16.434 2.0759 16.1668 2.04419V20.5959L17.8784 21.0892C18.3689 21.2086 18.88 21.215 19.3733 21.108C19.8666 21.001 20.3292 20.7834 20.7261 20.4715C21.123 20.1597 21.4439 19.7617 21.6646 19.3078C21.8853 18.8538 22 18.3556 22.0001 17.8509V6.89669C21.9988 6.03739 21.7324 5.19941 21.2373 4.4971C20.7421 3.7948 20.0424 3.26239 19.2334 2.97252ZM14.5001 2.15836C14.5001 2.15836 9.63092 3.55252 9.50008 3.56669V21.9C9.58342 21.8825 14.5001 20.5367 14.5001 20.5367V2.15836Z" fill="#262524"/>
</g>
<defs>
<clipPath id="clip0_4319_50595">
<rect width="20" height="20" fill="white" transform="translate(2 2)"/>
</clipPath>
</defs>
</svg>
