<svg width="24" height="24" viewBox="0 0 24 24" fill="none" xmlns="http://www.w3.org/2000/svg">
<g clip-path="url(#clip0_4319_50591)">
<path d="M19.2333 2.97245L19.2158 2.96662L16.9533 2.21662C16.1718 1.95717 15.3311 1.93426 14.5367 2.15079L9.89 3.49995C9.32105 3.65073 8.71726 3.59767 8.18333 3.34995L7.76667 3.15662C7.13383 2.89343 6.44584 2.79042 5.76366 2.85671C5.08149 2.923 4.4262 3.15655 3.85588 3.53666C3.28555 3.91676 2.8178 4.43169 2.49407 5.03581C2.17034 5.63992 2.00064 6.31457 2 6.99995L2 17.0625C2.00175 17.9636 2.29483 18.8399 2.83549 19.5608C3.37616 20.2817 4.13543 20.8085 5 21.0625L7.39083 21.8125C7.79418 21.9379 8.21428 22.0011 8.63667 22C9.01318 22.0047 9.38833 21.9539 9.75 21.8491L14.5833 20.5158C15.025 20.396 15.4911 20.3997 15.9308 20.5266L17.8833 21.09C18.3735 21.2085 18.8842 21.2142 19.3769 21.1068C19.8696 20.9993 20.3316 20.7814 20.7279 20.4696C21.1242 20.1577 21.4446 19.76 21.665 19.3064C21.8853 18.8528 21.9999 18.3551 22 17.8508V6.89662C21.9987 6.03732 21.7324 5.19934 21.2372 4.49703C20.7421 3.79473 20.0423 3.26232 19.2333 2.97245ZM5.48 19.4658C4.95859 19.315 4.50008 18.9993 4.17316 18.5661C3.84625 18.1328 3.66854 17.6052 3.66667 17.0625V6.99995C3.66262 6.58719 3.76246 6.18003 3.95702 5.81597C4.15158 5.45191 4.43459 5.14263 4.78 4.91662C5.191 4.64399 5.67346 4.49902 6.16667 4.49995C6.48472 4.50004 6.79963 4.56291 7.09333 4.68495C7.09333 4.68495 7.71417 4.95079 7.8325 4.99329V20.2016L5.48 19.4658ZM9.5 20.1891V5.23245C9.78305 5.21743 10.0639 5.17416 10.3383 5.10329L14.5 3.89412V18.8333L9.5 20.1891ZM20.3333 17.8508C20.3335 18.1004 20.2776 18.3469 20.1698 18.572C20.0619 18.7971 19.9049 18.9951 19.7103 19.1514C19.5157 19.3078 19.2884 19.4183 19.0453 19.4751C18.8023 19.5318 18.5495 19.5332 18.3058 19.4791L16.1667 18.8766V3.72912L18.6817 4.54495C19.165 4.72008 19.5828 5.03969 19.8783 5.46039C20.1737 5.88109 20.3326 6.38252 20.3333 6.89662V17.8508Z" fill="#262524"/>
</g>
<defs>
<clipPath id="clip0_4319_50591">
<rect width="20" height="20" fill="white" transform="translate(2 2)"/>
</clipPath>
</defs>
</svg>
