<svg width="24" height="24" viewBox="0 0 24 24" fill="none" xmlns="http://www.w3.org/2000/svg">
<g clip-path="url(#clip0_6071_39622)">
<path d="M21.2667 10.2583L18.0417 6.99999C17.9642 6.92189 17.872 6.85989 17.7705 6.81758C17.6689 6.77528 17.56 6.75349 17.45 6.75349C17.34 6.75349 17.2311 6.77528 17.1295 6.81758C17.028 6.85989 16.9358 6.92189 16.8583 6.99999C16.7031 7.15613 16.616 7.36734 16.616 7.58749C16.616 7.80765 16.7031 8.01886 16.8583 8.17499L19.825 11.1667H2.83333C2.61232 11.1667 2.40036 11.2545 2.24408 11.4107C2.0878 11.567 2 11.779 2 12C2 12.221 2.0878 12.433 2.24408 12.5892C2.40036 12.7455 2.61232 12.8333 2.83333 12.8333H19.875L16.8583 15.8417C16.7802 15.9191 16.7182 16.0113 16.6759 16.1128C16.6336 16.2144 16.6118 16.3233 16.6118 16.4333C16.6118 16.5433 16.6336 16.6523 16.6759 16.7538C16.7182 16.8554 16.7802 16.9475 16.8583 17.025C16.9358 17.1031 17.028 17.1651 17.1295 17.2074C17.2311 17.2497 17.34 17.2715 17.45 17.2715C17.56 17.2715 17.6689 17.2497 17.7705 17.2074C17.872 17.1651 17.9642 17.1031 18.0417 17.025L21.2667 13.7917C21.7348 13.3229 21.9978 12.6875 21.9978 12.025C21.9978 11.3625 21.7348 10.7271 21.2667 10.2583Z" fill="#262524"/>
</g>
<defs>
<clipPath id="clip0_6071_39622">
<rect width="20" height="20" fill="white" transform="translate(2 2)"/>
</clipPath>
</defs>
</svg>
