<svg width="24" height="24" viewBox="0 0 24 24" fill="none" xmlns="http://www.w3.org/2000/svg">
<g clip-path="url(#clip0_6071_39592)">
<path d="M20.3333 10.3333V7.35001C20.3333 7.15509 20.3222 6.96033 20.3 6.76667C20.1887 5.74728 19.7631 4.78774 19.0823 4.02091C18.4015 3.25408 17.499 2.71792 16.5 2.48667C13.5348 1.84083 10.4652 1.84083 7.5 2.48667C6.50102 2.71803 5.59867 3.25423 4.91786 4.02103C4.23705 4.78784 3.81146 5.74733 3.7 6.76667C3.67784 6.96033 3.66671 7.15509 3.66667 7.35001V10.3333C3.22464 10.3333 2.80072 10.5089 2.48816 10.8215C2.17559 11.1341 2 11.558 2 12L2 12.8333C2 13.2754 2.17559 13.6993 2.48816 14.0119C2.80072 14.3244 3.22464 14.5 3.66667 14.5V16.1667C3.66628 16.8136 3.81671 17.4517 4.10602 18.0303C4.39534 18.609 4.81556 19.1122 5.33333 19.5V19.9167C5.33281 20.4333 5.52428 20.9317 5.87057 21.3151C6.21686 21.6986 6.69326 21.9396 7.20729 21.9916C7.72132 22.0435 8.23631 21.9025 8.65228 21.5961C9.06825 21.2897 9.35552 20.8397 9.45833 20.3333H14.5417C14.6445 20.8397 14.9318 21.2897 15.3477 21.5961C15.7637 21.9025 16.2787 22.0435 16.7927 21.9916C17.3067 21.9396 17.7831 21.6986 18.1294 21.3151C18.4757 20.9317 18.6672 20.4333 18.6667 19.9167V19.5C19.1844 19.1122 19.6047 18.609 19.894 18.0303C20.1833 17.4517 20.3337 16.8136 20.3333 16.1667V14.5C20.7754 14.5 21.1993 14.3244 21.5118 14.0119C21.8244 13.6993 22 13.2754 22 12.8333V12C22 11.558 21.8244 11.1341 21.5118 10.8215C21.1993 10.5089 20.7754 10.3333 20.3333 10.3333ZM5.33333 12.8333V7.83334H18.6667V12.8333H5.33333ZM7.87667 4.11001C10.5949 3.5187 13.4085 3.5187 16.1267 4.11001C16.6548 4.23308 17.144 4.48545 17.5504 4.84444C17.9568 5.20344 18.2677 5.65779 18.455 6.16667H15.3333C15.3333 5.94566 15.2455 5.7337 15.0893 5.57742C14.933 5.42114 14.721 5.33334 14.5 5.33334H9.5C9.27899 5.33334 9.06702 5.42114 8.91074 5.57742C8.75446 5.7337 8.66667 5.94566 8.66667 6.16667H5.545C5.73262 5.65739 6.04396 5.20278 6.45099 4.84375C6.85802 4.48473 7.34795 4.23258 7.87667 4.11001ZM16.1667 18.6667H7.83333C7.17029 18.6667 6.53441 18.4033 6.06557 17.9344C5.59673 17.4656 5.33333 16.8297 5.33333 16.1667V14.5H7V15.3333C7 15.5544 7.0878 15.7663 7.24408 15.9226C7.40036 16.0789 7.61232 16.1667 7.83333 16.1667C8.05435 16.1667 8.26631 16.0789 8.42259 15.9226C8.57887 15.7663 8.66667 15.5544 8.66667 15.3333V14.5H15.3333V15.3333C15.3333 15.5544 15.4211 15.7663 15.5774 15.9226C15.7337 16.0789 15.9457 16.1667 16.1667 16.1667C16.3877 16.1667 16.5996 16.0789 16.7559 15.9226C16.9122 15.7663 17 15.5544 17 15.3333V14.5H18.6667V16.1667C18.6667 16.8297 18.4033 17.4656 17.9344 17.9344C17.4656 18.4033 16.8297 18.6667 16.1667 18.6667Z" fill="#262524"/>
</g>
<defs>
<clipPath id="clip0_6071_39592">
<rect width="20" height="20" fill="white" transform="translate(2 2)"/>
</clipPath>
</defs>
</svg>
