<svg width="24" height="24" viewBox="0 0 24 24" fill="none" xmlns="http://www.w3.org/2000/svg">
<g clip-path="url(#clip0_6071_39564)">
<path d="M19.5003 5.33333H16.917C16.7236 4.39284 16.2118 3.54779 15.468 2.9406C14.7242 2.33341 13.7938 2.00121 12.8337 2L11.167 2C10.2068 2.00121 9.27642 2.33341 8.53262 2.9406C7.78881 3.54779 7.27707 4.39284 7.08366 5.33333H4.50033C4.27931 5.33333 4.06735 5.42113 3.91107 5.57741C3.75479 5.73369 3.66699 5.94565 3.66699 6.16667C3.66699 6.38768 3.75479 6.59964 3.91107 6.75592C4.06735 6.9122 4.27931 7 4.50033 7H5.33366V17.8333C5.33498 18.938 5.77439 19.997 6.55551 20.7782C7.33662 21.5593 8.39566 21.9987 9.50033 22H14.5003C15.605 21.9987 16.664 21.5593 17.4451 20.7782C18.2263 19.997 18.6657 18.938 18.667 17.8333V7H19.5003C19.7213 7 19.9333 6.9122 20.0896 6.75592C20.2459 6.59964 20.3337 6.38768 20.3337 6.16667C20.3337 5.94565 20.2459 5.73369 20.0896 5.57741C19.9333 5.42113 19.7213 5.33333 19.5003 5.33333ZM11.167 3.66667H12.8337C13.3506 3.6673 13.8546 3.82781 14.2767 4.1262C14.6987 4.42459 15.0182 4.84624 15.1912 5.33333H8.80949C8.98248 4.84624 9.30191 4.42459 9.72398 4.1262C10.1461 3.82781 10.6501 3.6673 11.167 3.66667ZM17.0003 17.8333C17.0003 18.4964 16.7369 19.1323 16.2681 19.6011C15.7993 20.0699 15.1634 20.3333 14.5003 20.3333H9.50033C8.83728 20.3333 8.2014 20.0699 7.73256 19.6011C7.26372 19.1323 7.00033 18.4964 7.00033 17.8333V7H17.0003V17.8333Z" fill="#262524"/>
<path d="M10.3333 17C10.5543 17 10.7663 16.9122 10.9226 16.7559C11.0789 16.5996 11.1667 16.3877 11.1667 16.1667V11.1667C11.1667 10.9456 11.0789 10.7337 10.9226 10.5774C10.7663 10.4211 10.5543 10.3333 10.3333 10.3333C10.1123 10.3333 9.90036 10.4211 9.74408 10.5774C9.5878 10.7337 9.5 10.9456 9.5 11.1667V16.1667C9.5 16.3877 9.5878 16.5996 9.74408 16.7559C9.90036 16.9122 10.1123 17 10.3333 17Z" fill="#262524"/>
<path d="M13.6663 17C13.8874 17 14.0993 16.9122 14.2556 16.7559C14.4119 16.5996 14.4997 16.3877 14.4997 16.1667V11.1667C14.4997 10.9456 14.4119 10.7337 14.2556 10.5774C14.0993 10.4211 13.8874 10.3333 13.6663 10.3333C13.4453 10.3333 13.2334 10.4211 13.0771 10.5774C12.9208 10.7337 12.833 10.9456 12.833 11.1667V16.1667C12.833 16.3877 12.9208 16.5996 13.0771 16.7559C13.2334 16.9122 13.4453 17 13.6663 17Z" fill="#262524"/>
</g>
<defs>
<clipPath id="clip0_6071_39564">
<rect width="20" height="20" fill="white" transform="translate(2 2)"/>
</clipPath>
</defs>
</svg>
