<svg width="24" height="24" viewBox="0 0 24 24" fill="none" xmlns="http://www.w3.org/2000/svg">
<g clip-path="url(#clip0_6071_39545)">
<path d="M2.83333 5.95829H5.11333C5.2922 6.6164 5.68264 7.19737 6.22444 7.61157C6.76623 8.02576 7.42927 8.25017 8.11125 8.25017C8.79323 8.25017 9.45627 8.02576 9.99806 7.61157C10.5399 7.19737 10.9303 6.6164 11.1092 5.95829H21.1667C21.3877 5.95829 21.5996 5.87049 21.7559 5.71421C21.9122 5.55793 22 5.34597 22 5.12496C22 4.90394 21.9122 4.69198 21.7559 4.5357C21.5996 4.37942 21.3877 4.29162 21.1667 4.29162H11.1092C10.9303 3.63351 10.5399 3.05254 9.99806 2.63835C9.45627 2.22415 8.79323 1.99974 8.11125 1.99974C7.42927 1.99974 6.76623 2.22415 6.22444 2.63835C5.68264 3.05254 5.2922 3.63351 5.11333 4.29162H2.83333C2.61232 4.29162 2.40036 4.37942 2.24408 4.5357C2.0878 4.69198 2 4.90394 2 5.12496C2 5.34597 2.0878 5.55793 2.24408 5.71421C2.40036 5.87049 2.61232 5.95829 2.83333 5.95829ZM8.11083 3.66662C8.39926 3.66662 8.68122 3.75215 8.92104 3.9124C9.16086 4.07264 9.34778 4.3004 9.45816 4.56688C9.56854 4.83335 9.59742 5.12657 9.54115 5.40946C9.48488 5.69235 9.34598 5.9522 9.14203 6.15615C8.93808 6.36011 8.67823 6.499 8.39534 6.55527C8.11245 6.61154 7.81923 6.58266 7.55275 6.47228C7.28628 6.3619 7.05852 6.17498 6.89827 5.93516C6.73803 5.69534 6.6525 5.41339 6.6525 5.12496C6.65294 4.73832 6.80673 4.36764 7.08012 4.09425C7.35352 3.82085 7.72419 3.66706 8.11083 3.66662Z" fill="#262524"/>
<path d="M21.1667 11.1667H18.8867C18.7081 10.5084 18.3178 9.92723 17.7761 9.51286C17.2343 9.09849 16.5712 8.87398 15.8892 8.87398C15.2071 8.87398 14.544 9.09849 14.0023 9.51286C13.4605 9.92723 13.0702 10.5084 12.8917 11.1667H2.83333C2.61232 11.1667 2.40036 11.2545 2.24408 11.4108C2.0878 11.567 2 11.779 2 12C2 12.221 2.0878 12.433 2.24408 12.5893C2.40036 12.7455 2.61232 12.8333 2.83333 12.8333H12.8917C13.0702 13.4916 13.4605 14.0728 14.0023 14.4871C14.544 14.9015 15.2071 15.126 15.8892 15.126C16.5712 15.126 17.2343 14.9015 17.7761 14.4871C18.3178 14.0728 18.7081 13.4916 18.8867 12.8333H21.1667C21.3877 12.8333 21.5996 12.7455 21.7559 12.5893C21.9122 12.433 22 12.221 22 12C22 11.779 21.9122 11.567 21.7559 11.4108C21.5996 11.2545 21.3877 11.1667 21.1667 11.1667ZM15.8892 13.4583C15.6007 13.4583 15.3188 13.3728 15.079 13.2126C14.8391 13.0523 14.6522 12.8246 14.5418 12.5581C14.4315 12.2916 14.4026 11.9984 14.4589 11.7155C14.5151 11.4326 14.654 11.1728 14.858 10.9688C15.0619 10.7649 15.3218 10.626 15.6047 10.5697C15.8875 10.5134 16.1808 10.5423 16.4472 10.6527C16.7137 10.7631 16.9415 10.95 17.1017 11.1898C17.262 11.4296 17.3475 11.7116 17.3475 12C17.3471 12.3866 17.1933 12.7573 16.9199 13.0307C16.6465 13.3041 16.2758 13.4579 15.8892 13.4583Z" fill="#262524"/>
<path d="M21.1667 18.0417H11.1092C10.9303 17.3836 10.5399 16.8026 9.99806 16.3884C9.45627 15.9742 8.79323 15.7498 8.11125 15.7498C7.42927 15.7498 6.76623 15.9742 6.22444 16.3884C5.68264 16.8026 5.2922 17.3836 5.11333 18.0417H2.83333C2.61232 18.0417 2.40036 18.1295 2.24408 18.2857C2.0878 18.442 2 18.654 2 18.875C2 19.096 2.0878 19.308 2.24408 19.4643C2.40036 19.6205 2.61232 19.7083 2.83333 19.7083H5.11333C5.2922 20.3664 5.68264 20.9474 6.22444 21.3616C6.76623 21.7758 7.42927 22.0002 8.11125 22.0002C8.79323 22.0002 9.45627 21.7758 9.99806 21.3616C10.5399 20.9474 10.9303 20.3664 11.1092 19.7083H21.1667C21.3877 19.7083 21.5996 19.6205 21.7559 19.4643C21.9122 19.308 22 19.096 22 18.875C22 18.654 21.9122 18.442 21.7559 18.2857C21.5996 18.1295 21.3877 18.0417 21.1667 18.0417ZM8.11083 20.3333C7.8224 20.3333 7.54045 20.2478 7.30063 20.0876C7.0608 19.9273 6.87389 19.6996 6.76351 19.4331C6.65313 19.1666 6.62425 18.8734 6.68052 18.5905C6.73679 18.3076 6.87568 18.0478 7.07964 17.8438C7.28359 17.6399 7.54344 17.501 7.82633 17.4447C8.10922 17.3884 8.40244 17.4173 8.66891 17.5277C8.93539 17.6381 9.16315 17.825 9.32339 18.0648C9.48364 18.3046 9.56917 18.5866 9.56917 18.875C9.56851 19.2616 9.41465 19.6321 9.1413 19.9055C8.86795 20.1788 8.4974 20.3327 8.11083 20.3333Z" fill="#262524"/>
</g>
<defs>
<clipPath id="clip0_6071_39545">
<rect width="20" height="20" fill="white" transform="translate(2 2)"/>
</clipPath>
</defs>
</svg>
