<svg width="24" height="24" viewBox="0 0 24 24" fill="none" xmlns="http://www.w3.org/2000/svg">
<g clip-path="url(#clip0_6071_39596)">
<path d="M19.0833 14.5C17.475 14.5 16.1667 15.8083 16.1667 17.4167C16.1667 19.025 17.475 20.3333 19.0833 20.3333C20.6917 20.3333 22 19.025 22 17.4167C22 15.8083 20.6917 14.5 19.0833 14.5ZM21.1667 12.8333C21.6275 12.8333 22 12.46 22 12C22 11.54 21.6275 11.1667 21.1667 11.1667H19.0833C18.86 11.1667 18.6383 11.1817 18.4192 11.2075L17.0225 7.61417C17.2633 7.75 17.5375 7.83334 17.8342 7.83334C18.2942 7.83334 18.6675 7.46 18.6675 7.00001V5.33334C18.6675 4.87334 18.2942 4.50001 17.8342 4.50001C17.09 4.50001 16.4675 4.99084 16.2533 5.66417C15.7208 4.44917 14.5442 3.66667 13.2075 3.66667H12.8342C12.3733 3.66667 12.0008 4.04001 12.0008 4.50001C12.0008 4.96001 12.3733 5.33334 12.8342 5.33334H13.2075C13.8883 5.33334 14.5125 5.76084 14.7608 6.39584L16.8 11.6392C16.0233 11.9717 15.3142 12.4692 14.73 13.1183L13.3625 14.7408C13.045 15.1175 12.5808 15.3333 12.0883 15.3333H11.8975L10.0692 10.7625C9.56083 9.48917 8.34583 8.66667 6.97417 8.66667H5.33333C3.495 8.66667 2 10.1617 2 12V13.6667C2 14.9442 2.73083 16.0433 3.78833 16.6025C3.7125 16.865 3.66667 17.1367 3.66667 17.4167C3.66667 19.025 4.975 20.3333 6.58333 20.3333C8.19167 20.3333 9.5 19.025 9.5 17.4167C9.5 17.2758 9.48667 17.1375 9.46667 17H12.0875C13.0725 17 14.0017 16.5683 14.6367 15.815L15.9858 14.2125C16.775 13.3358 17.9042 12.8333 19.0833 12.8333H21.1667ZM5.33333 15.3333C4.41417 15.3333 3.66667 14.5858 3.66667 13.6667V12C3.66667 11.0808 4.41417 10.3333 5.33333 10.3333H6.97417C7.65917 10.3333 8.2675 10.7442 8.52083 11.3808L10.1017 15.3333H5.33333Z" fill="#262524"/>
</g>
<defs>
<clipPath id="clip0_6071_39596">
<rect width="20" height="20" fill="white" transform="translate(2 2)"/>
</clipPath>
</defs>
</svg>
