<svg width="24" height="24" viewBox="0 0 24 24" fill="none" xmlns="http://www.w3.org/2000/svg">
<g clip-path="url(#clip0_6071_39617)">
<path d="M12.0003 8.66667C11.3411 8.66667 10.6966 8.86217 10.1484 9.22844C9.60026 9.59471 9.17302 10.1153 8.92073 10.7244C8.66844 11.3335 8.60243 12.0037 8.73104 12.6503C8.85966 13.2969 9.17713 13.8909 9.6433 14.357C10.1095 14.8232 10.7034 15.1407 11.35 15.2693C11.9966 15.3979 12.6669 15.3319 13.2759 15.0796C13.885 14.8273 14.4056 14.4001 14.7719 13.8519C15.1382 13.3037 15.3337 12.6593 15.3337 12C15.3337 11.116 14.9825 10.2681 14.3574 9.64298C13.7322 9.01786 12.8844 8.66667 12.0003 8.66667ZM12.0003 13.6667C11.6707 13.6667 11.3485 13.5689 11.0744 13.3858C10.8003 13.2027 10.5867 12.9424 10.4605 12.6378C10.3344 12.3333 10.3014 11.9982 10.3657 11.6749C10.43 11.3516 10.5887 11.0546 10.8218 10.8215C11.0549 10.5884 11.3519 10.4297 11.6752 10.3654C11.9985 10.3011 12.3336 10.3341 12.6381 10.4602C12.9427 10.5864 13.203 10.8 13.3861 11.0741C13.5692 11.3481 13.667 11.6704 13.667 12C13.667 12.442 13.4914 12.866 13.1788 13.1785C12.8663 13.4911 12.4424 13.6667 12.0003 13.6667Z" fill="#262524"/>
<path d="M19.7452 13.5833L19.3752 13.37C19.5417 12.4637 19.5417 11.5346 19.3752 10.6283L19.7452 10.415C20.0297 10.2508 20.2791 10.0323 20.4792 9.77172C20.6792 9.51118 20.826 9.21378 20.9111 8.89651C20.9962 8.57925 21.018 8.24832 20.9753 7.92263C20.9325 7.59694 20.826 7.28286 20.6618 6.99833C20.4977 6.7138 20.2791 6.46439 20.0185 6.26434C19.758 6.06428 19.4606 5.91751 19.1433 5.83239C18.8261 5.74726 18.4951 5.72547 18.1695 5.76824C17.8438 5.81101 17.5297 5.91751 17.2452 6.08167L16.8743 6.29583C16.1739 5.69743 15.369 5.23354 14.5002 4.9275V4.5C14.5002 3.83696 14.2368 3.20107 13.7679 2.73223C13.2991 2.26339 12.6632 2 12.0002 2C11.3371 2 10.7012 2.26339 10.2324 2.73223C9.76355 3.20107 9.50016 3.83696 9.50016 4.5V4.9275C8.63131 5.23464 7.8267 5.69967 7.12682 6.29917L6.75432 6.08333C6.17969 5.75181 5.49689 5.66214 4.85614 5.83405C4.21539 6.00596 3.66918 6.42536 3.33766 7C3.00614 7.57464 2.91647 8.25743 3.08838 8.89818C3.26028 9.53893 3.67969 10.0851 4.25432 10.4167L4.62432 10.63C4.45775 11.5363 4.45775 12.4654 4.62432 13.3717L4.25432 13.585C3.67969 13.9165 3.26028 14.4627 3.08838 15.1035C2.91647 15.7442 3.00614 16.427 3.33766 17.0017C3.66918 17.5763 4.21539 17.9957 4.85614 18.1676C5.49689 18.3395 6.17969 18.2499 6.75432 17.9183L7.12516 17.7042C7.8258 18.3027 8.63098 18.7666 9.50016 19.0725V19.5C9.50016 20.163 9.76355 20.7989 10.2324 21.2678C10.7012 21.7366 11.3371 22 12.0002 22C12.6632 22 13.2991 21.7366 13.7679 21.2678C14.2368 20.7989 14.5002 20.163 14.5002 19.5V19.0725C15.369 18.7654 16.1736 18.3003 16.8735 17.7008L17.246 17.9158C17.8206 18.2474 18.5034 18.337 19.1442 18.1651C19.7849 17.9932 20.3311 17.5738 20.6627 16.9992C20.9942 16.4245 21.0838 15.7417 20.9119 15.101C20.74 14.4602 20.3206 13.914 19.746 13.5825L19.7452 13.5833ZM17.6218 10.4367C17.904 11.4592 17.904 12.5391 17.6218 13.5617C17.5726 13.7396 17.5838 13.9289 17.6538 14.0998C17.7238 14.2707 17.8485 14.4135 18.0085 14.5058L18.9118 15.0275C19.1033 15.138 19.2431 15.3201 19.3004 15.5336C19.3577 15.7472 19.3277 15.9747 19.2172 16.1662C19.1067 16.3578 18.9247 16.4975 18.7111 16.5548C18.4976 16.6121 18.27 16.5822 18.0785 16.4717L17.1735 15.9483C17.0134 15.8556 16.827 15.8188 16.6437 15.8437C16.4604 15.8686 16.2906 15.9538 16.161 16.0858C15.4193 16.843 14.4848 17.3833 13.4585 17.6483C13.2794 17.6944 13.1206 17.7987 13.0073 17.9449C12.894 18.0911 12.8326 18.2709 12.8327 18.4558V19.5C12.8327 19.721 12.7449 19.933 12.5886 20.0893C12.4323 20.2455 12.2203 20.3333 11.9993 20.3333C11.7783 20.3333 11.5663 20.2455 11.4101 20.0893C11.2538 19.933 11.166 19.721 11.166 19.5V18.4567C11.1661 18.2717 11.1046 18.092 10.9913 17.9458C10.878 17.7996 10.7193 17.6952 10.5402 17.6492C9.51378 17.3831 8.5796 16.8416 7.83849 16.0833C7.70893 15.9513 7.53911 15.8661 7.35579 15.8412C7.17247 15.8163 6.98608 15.8531 6.82599 15.9458L5.92266 16.4683C5.82785 16.5239 5.72298 16.5602 5.6141 16.5751C5.50521 16.59 5.39445 16.5832 5.2882 16.5551C5.18195 16.527 5.08231 16.4782 4.99501 16.4114C4.90771 16.3446 4.83447 16.2613 4.77952 16.1661C4.72457 16.0709 4.68899 15.9658 4.67482 15.8568C4.66066 15.7479 4.66819 15.6372 4.69698 15.5311C4.72578 15.425 4.77527 15.3257 4.8426 15.2389C4.90994 15.152 4.99379 15.0793 5.08932 15.025L5.99266 14.5033C6.15262 14.411 6.27739 14.2682 6.34737 14.0973C6.41736 13.9264 6.4286 13.7371 6.37932 13.5592C6.09712 12.5366 6.09712 11.4567 6.37932 10.4342C6.42771 10.2566 6.41594 10.0679 6.34584 9.89774C6.27574 9.72754 6.15125 9.58534 5.99182 9.49333L5.08849 8.97167C4.89698 8.86116 4.75722 8.6791 4.69994 8.46555C4.64266 8.25199 4.67257 8.02442 4.78307 7.83292C4.89358 7.64141 5.07564 7.50164 5.2892 7.44437C5.50275 7.38709 5.73032 7.41699 5.92182 7.5275L6.82682 8.05083C6.98647 8.14376 7.17248 8.18101 7.3556 8.15672C7.53872 8.13244 7.70858 8.048 7.83849 7.91667C8.58023 7.15945 9.51468 6.61918 10.541 6.35417C10.7207 6.30797 10.8798 6.20313 10.9932 6.05625C11.1066 5.90938 11.1677 5.72887 11.1668 5.54333V4.5C11.1668 4.27899 11.2546 4.06702 11.4109 3.91074C11.5672 3.75446 11.7791 3.66667 12.0002 3.66667C12.2212 3.66667 12.4331 3.75446 12.5894 3.91074C12.7457 4.06702 12.8335 4.27899 12.8335 4.5V5.54333C12.8334 5.7283 12.8948 5.90804 13.0082 6.05423C13.1215 6.20043 13.2802 6.30478 13.4593 6.35083C14.486 6.61679 15.4205 7.15824 16.1618 7.91667C16.2914 8.04872 16.4612 8.13391 16.6445 8.15881C16.8278 8.1837 17.0142 8.14689 17.1743 8.05417L18.0777 7.53167C18.1725 7.47609 18.2773 7.43981 18.3862 7.42492C18.4951 7.41003 18.6059 7.41683 18.7121 7.44492C18.8184 7.47301 18.918 7.52184 19.0053 7.58859C19.0926 7.65535 19.1658 7.73872 19.2208 7.83389C19.2757 7.92907 19.3113 8.03417 19.3255 8.14316C19.3397 8.25214 19.3321 8.36285 19.3033 8.46891C19.2745 8.57497 19.2251 8.67429 19.1577 8.76114C19.0904 8.848 19.0065 8.92068 18.911 8.975L18.0077 9.49667C17.8485 9.58892 17.7244 9.73123 17.6546 9.90141C17.5848 10.0716 17.5733 10.2601 17.6218 10.4375V10.4367Z" fill="#262524"/>
</g>
<defs>
<clipPath id="clip0_6071_39617">
<rect width="20" height="20" fill="white" transform="translate(2 2)"/>
</clipPath>
</defs>
</svg>
