<svg width="24" height="24" viewBox="0 0 24 24" fill="none" xmlns="http://www.w3.org/2000/svg">
<g clip-path="url(#clip0_6071_39613)">
<path d="M12 2C6.48583 2 2 6.48583 2 12C2 17.5142 6.48583 22 12 22C17.5142 22 22 17.5142 22 12C22 6.48583 17.5142 2 12 2ZM17.1667 10.76L13.4783 14.3808C12.8258 15.0208 11.9858 15.34 11.145 15.34C10.3133 15.34 9.48167 15.0267 8.83167 14.3992L7.24917 12.8433C6.92083 12.5208 6.91667 11.9933 7.23917 11.665C7.56083 11.3358 8.09 11.3317 8.4175 11.655L9.995 13.2058C10.6417 13.8308 11.6625 13.8275 12.3125 13.1908L16 9.57083C16.3275 9.2475 16.8533 9.25333 17.1783 9.58167C17.5008 9.91 17.4958 10.4375 17.1667 10.76Z" fill="#262524"/>
</g>
<defs>
<clipPath id="clip0_6071_39613">
<rect width="20" height="20" fill="white" transform="translate(2 2)"/>
</clipPath>
</defs>
</svg>
