<svg width="14" height="14" viewBox="0 0 14 14" fill="none" xmlns="http://www.w3.org/2000/svg">
<g clip-path="url(#clip0_6071_39965)">
<path d="M6.30467 5.74292C6.38495 5.89186 6.42324 6.05983 6.41543 6.22885C6.40762 6.39787 6.35401 6.56159 6.26033 6.7025L5.1625 8.47408C5.08097 8.60559 4.95054 8.69932 4.7999 8.73465C4.64926 8.76998 4.49075 8.74403 4.35925 8.6625C4.22775 8.58097 4.13402 8.45054 4.09868 8.2999C4.06335 8.14926 4.0893 7.99075 4.17083 7.85925L5.06508 6.41667H3.85875C3.71168 6.41673 3.56664 6.38233 3.43525 6.31623C3.30387 6.25013 3.1898 6.15418 3.10218 6.03605C3.01456 5.91792 2.95584 5.78091 2.93071 5.636C2.90559 5.49109 2.91476 5.34231 2.9575 5.20158C2.975 5.15375 4.16967 3.19433 4.16967 3.19433C4.20755 3.12471 4.25923 3.06354 4.32154 3.01456C4.38385 2.96557 4.45549 2.9298 4.53209 2.90942C4.60868 2.88905 4.68863 2.88449 4.76704 2.89604C4.84546 2.90759 4.9207 2.935 4.98817 2.97659C5.05564 3.01818 5.11392 3.07309 5.15947 3.13796C5.20501 3.20283 5.23686 3.2763 5.25306 3.35388C5.26927 3.43147 5.26949 3.51155 5.25372 3.58922C5.23795 3.6669 5.20651 3.74054 5.16133 3.80567L4.27467 5.25H5.48333C5.652 5.25028 5.81744 5.29626 5.96206 5.38306C6.10668 5.46985 6.22508 5.59421 6.30467 5.74292ZM14 1.75V3.20833C14.0001 3.54452 13.884 3.87041 13.6714 4.13085C13.4588 4.39128 13.1627 4.57026 12.8333 4.6375V9.91667C12.8333 10.5355 12.5875 11.129 12.1499 11.5666C11.7123 12.0042 11.1188 12.25 10.5 12.25H9.0895C8.86203 12.7697 8.48814 13.212 8.0135 13.5227C7.53885 13.8335 6.98399 13.9993 6.41667 14H2.91667C2.1434 13.9991 1.40208 13.6915 0.855295 13.1447C0.308514 12.5979 0.00092625 11.8566 0 11.0833L0 2.91667C0.00092625 2.1434 0.308514 1.40208 0.855295 0.855295C1.40208 0.308514 2.1434 0.00092625 2.91667 0L6.41667 0C7.18993 0.00092625 7.93126 0.308514 8.47804 0.855295C9.02482 1.40208 9.33241 2.1434 9.33333 2.91667V11.0833H10.5C10.8094 11.0833 11.1062 10.9604 11.325 10.7416C11.5437 10.5228 11.6667 10.2261 11.6667 9.91667V4.6375C11.3373 4.57026 11.0412 4.39128 10.8286 4.13085C10.616 3.87041 10.4999 3.54452 10.5 3.20833V1.75C10.5 1.59529 10.5615 1.44692 10.6709 1.33752C10.7802 1.22812 10.9286 1.16667 11.0833 1.16667C11.238 1.16667 11.3864 1.22812 11.4958 1.33752C11.6052 1.44692 11.6667 1.59529 11.6667 1.75V2.33333H12.8333V1.75C12.8333 1.59529 12.8948 1.44692 13.0042 1.33752C13.1136 1.22812 13.262 1.16667 13.4167 1.16667C13.5714 1.16667 13.7197 1.22812 13.8291 1.33752C13.9385 1.44692 14 1.59529 14 1.75ZM8.16667 11.0833V6.41667H7.58333C7.42862 6.41667 7.28025 6.35521 7.17085 6.24581C7.06146 6.13642 7 5.98804 7 5.83333C7 5.67862 7.06146 5.53025 7.17085 5.42085C7.28025 5.31146 7.42862 5.25 7.58333 5.25H8.16667V2.91667C8.16667 2.45254 7.98229 2.00742 7.6541 1.67923C7.32591 1.35104 6.8808 1.16667 6.41667 1.16667H2.91667C2.45254 1.16667 2.00742 1.35104 1.67923 1.67923C1.35104 2.00742 1.16667 2.45254 1.16667 2.91667V5.25H1.75C1.90471 5.25 2.05308 5.31146 2.16248 5.42085C2.27188 5.53025 2.33333 5.67862 2.33333 5.83333C2.33333 5.98804 2.27188 6.13642 2.16248 6.24581C2.05308 6.35521 1.90471 6.41667 1.75 6.41667H1.16667V11.0833C1.16667 11.5475 1.35104 11.9926 1.67923 12.3208C2.00742 12.649 2.45254 12.8333 2.91667 12.8333H6.41667C6.8808 12.8333 7.32591 12.649 7.6541 12.3208C7.98229 11.9926 8.16667 11.5475 8.16667 11.0833Z" fill="#262524"/>
</g>
<defs>
<clipPath id="clip0_6071_39965">
<rect width="14" height="14" fill="white"/>
</clipPath>
</defs>
</svg>
