<svg width="14" height="14" viewBox="0 0 14 14" fill="none" xmlns="http://www.w3.org/2000/svg">
<path d="M11.119 4.58155C11.0377 4.50024 10.9412 4.43574 10.8351 4.39173C10.7289 4.34772 10.615 4.32507 10.5001 4.32507C10.3851 4.32507 10.2713 4.34772 10.1651 4.39173C10.0589 4.43574 9.96242 4.50024 9.88116 4.58155L7.20599 7.25614C7.15129 7.31082 7.07712 7.34153 6.99978 7.34153C6.92244 7.34153 6.84827 7.31082 6.79357 7.25614L4.11899 4.58155C3.95492 4.41741 3.73236 4.32516 3.50028 4.3251C3.2682 4.32505 3.0456 4.41719 2.88145 4.58126C2.7173 4.74533 2.62505 4.96789 2.625 5.19997C2.62495 5.43206 2.71709 5.65466 2.88116 5.8188L5.55632 8.49397C5.74591 8.68358 5.97099 8.83398 6.21871 8.9366C6.46643 9.03922 6.73194 9.09203 7.00007 9.09203C7.26821 9.09203 7.53371 9.03922 7.78143 8.9366C8.02915 8.83398 8.25424 8.68358 8.44382 8.49397L11.119 5.8188C11.283 5.65472 11.3752 5.4322 11.3752 5.20018C11.3752 4.96816 11.283 4.74564 11.119 4.58155Z" fill="#262524"/>
</svg>
