<svg width="24" height="24" viewBox="0 0 24 24" fill="none" xmlns="http://www.w3.org/2000/svg">
<g clip-path="url(#clip0_6071_39682)">
<path d="M10.5005 12C11.1969 12 11.8864 12.1384 12.5288 12.4074C13.1712 12.6764 13.7537 13.0705 14.2423 13.5668C14.7309 14.0631 15.1158 14.6516 15.3748 15.2981C15.6337 15.9446 15.7614 16.6362 15.7505 17.3325C15.7487 17.4478 15.7736 17.562 15.8231 17.6661C15.8726 17.7702 15.9455 17.8616 16.036 17.9329C16.1266 18.0043 16.2324 18.0539 16.3452 18.0778C16.458 18.1016 16.5748 18.0992 16.6865 18.0705C17.0191 17.9853 17.3667 17.9772 17.703 18.0468C18.0392 18.1164 18.355 18.2619 18.6265 18.4721C18.8979 18.6823 19.1178 18.9518 19.2692 19.2599C19.4207 19.5681 19.4998 19.9067 19.5005 20.25C19.5005 20.8468 19.2634 21.4191 18.8415 21.841C18.4195 22.263 17.8472 22.5 17.2505 22.5H4.50047C4.10163 22.4978 3.70723 22.416 3.34036 22.2595C2.97349 22.103 2.64151 21.875 2.36383 21.5886C2.08616 21.3023 1.86836 20.9635 1.72319 20.592C1.57802 20.2205 1.50838 19.8238 1.51835 19.4251C1.52833 19.0263 1.61771 18.6336 1.78127 18.2698C1.94484 17.9061 2.1793 17.5786 2.47094 17.3065C2.76258 17.0344 3.10555 16.8232 3.47979 16.6852C3.85402 16.5473 4.25201 16.4854 4.65047 16.503C4.82331 16.5119 4.9939 16.4608 5.13333 16.3583C5.27275 16.2558 5.37244 16.1082 5.41547 15.9405C5.70596 14.8128 6.36318 13.8136 7.28373 13.1002C8.20427 12.3869 9.33588 11.9998 10.5005 12ZM17.21 16.5C17.0412 14.9793 16.3608 13.5609 15.2802 12.4776C14.1996 11.3943 12.783 10.7102 11.2626 10.5376C9.74224 10.365 8.20835 10.7141 6.9124 11.5276C5.61646 12.3411 4.63536 13.5708 4.12997 15.015C2.97188 15.1098 1.89535 15.6489 1.12572 16.5194C0.356087 17.39 -0.0469785 18.5245 0.000894833 19.6854C0.0487681 20.8464 0.543868 21.9439 1.38256 22.7481C2.22125 23.5523 3.33851 24.0009 4.50047 24H17.2505C18.245 24 19.1989 23.605 19.9021 22.9017C20.6054 22.1984 21.0005 21.2446 21.0005 20.25C21.0005 19.2555 20.6054 18.3017 19.9021 17.5984C19.1989 16.8951 18.245 16.5 17.2505 16.5H17.21Z" fill="#FFF"/>
<path d="M15.7508 2.25C15.7508 2.05109 15.6718 1.86032 15.5311 1.71967C15.3905 1.57902 15.1997 1.5 15.0008 1.5C14.8019 1.5 14.6111 1.57902 14.4705 1.71967C14.3298 1.86032 14.2508 2.05109 14.2508 2.25V3.75C14.2508 3.94891 14.3298 4.13968 14.4705 4.28033C14.6111 4.42098 14.8019 4.5 15.0008 4.5C15.1997 4.5 15.3905 4.42098 15.5311 4.28033C15.6718 4.13968 15.7508 3.94891 15.7508 3.75V2.25ZM21.3653 5.196C21.4369 5.12681 21.4941 5.04406 21.5334 4.95255C21.5727 4.86105 21.5934 4.76264 21.5943 4.66305C21.5951 4.56347 21.5761 4.46471 21.5384 4.37253C21.5007 4.28036 21.445 4.19662 21.3746 4.1262C21.3042 4.05578 21.2205 4.00009 21.1283 3.96238C21.0361 3.92467 20.9373 3.9057 20.8378 3.90656C20.7382 3.90743 20.6398 3.92812 20.5483 3.96742C20.4568 4.00673 20.374 4.06387 20.3048 4.1355L19.2428 5.196C19.102 5.33683 19.0229 5.52784 19.0229 5.727C19.0229 5.92616 19.102 6.11717 19.2428 6.258C19.3836 6.39883 19.5747 6.47795 19.7738 6.47795C19.973 6.47795 20.164 6.39883 20.3048 6.258L21.3653 5.196ZM9.69682 4.1355C9.55536 3.99888 9.36591 3.92329 9.16926 3.92499C8.97262 3.9267 8.78451 4.00558 8.64545 4.14464C8.50639 4.28369 8.42752 4.4718 8.42581 4.66845C8.4241 4.8651 8.4997 5.05455 8.63632 5.196L9.69682 6.258C9.76655 6.32773 9.84933 6.38305 9.94044 6.42078C10.0315 6.45852 10.1292 6.47795 10.2278 6.47795C10.3264 6.47795 10.4241 6.45852 10.5152 6.42078C10.6063 6.38305 10.6891 6.32773 10.7588 6.258C10.8285 6.18827 10.8839 6.10548 10.9216 6.01438C10.9593 5.92327 10.9788 5.82562 10.9788 5.727C10.9788 5.62838 10.9593 5.53073 10.9216 5.43963C10.8839 5.34852 10.8285 5.26573 10.7588 5.196L9.69682 4.1355ZM12.2978 9.1965C12.4842 8.81016 12.7514 8.46829 13.0811 8.19396C13.4109 7.91963 13.7957 7.71921 14.2095 7.60622C14.6234 7.49324 15.0566 7.47031 15.48 7.539C15.9035 7.60768 16.3072 7.76638 16.6641 8.00438C17.021 8.24238 17.3227 8.55415 17.5489 8.91866C17.775 9.28317 17.9204 9.69194 17.9752 10.1174C18.0299 10.5429 17.9928 10.9751 17.8663 11.385C17.7398 11.7949 17.5268 12.1729 17.2418 12.4935C17.5418 12.9165 17.7998 13.3655 18.0158 13.8405C18.5242 13.3812 18.9209 12.8119 19.1758 12.176C19.4308 11.5401 19.5371 10.8544 19.4868 10.1711C19.4365 9.48784 19.2309 8.82509 18.8855 8.23338C18.5402 7.64166 18.0644 7.13661 17.4942 6.75672C16.9241 6.37683 16.2748 6.13213 15.5957 6.04128C14.9166 5.95043 14.2258 6.01583 13.5759 6.23249C12.9259 6.44915 12.334 6.81136 11.8453 7.29149C11.3566 7.77162 10.984 8.357 10.7558 9.003C11.2848 9.02 11.7988 9.0845 12.2978 9.1965ZM19.0238 15.3075C19.9238 15.63 20.7113 16.1925 21.3068 16.9155C21.3885 16.8494 21.4553 16.7668 21.503 16.6732C21.5508 16.5796 21.5783 16.477 21.5838 16.372C21.5893 16.2671 21.5727 16.1622 21.5351 16.064C21.4974 15.9659 21.4396 15.8768 21.3653 15.8025L20.3048 14.742C20.1979 14.6344 20.0609 14.5618 19.9118 14.5337C19.7628 14.5056 19.6088 14.5234 19.47 14.5846C19.3313 14.6459 19.2144 14.7478 19.1347 14.8768C19.0551 15.0059 19.0164 15.156 19.0238 15.3075ZM21.7508 9.75C21.5519 9.75 21.3611 9.82902 21.2205 9.96967C21.0798 10.1103 21.0008 10.3011 21.0008 10.5C21.0008 10.6989 21.0798 10.8897 21.2205 11.0303C21.3611 11.171 21.5519 11.25 21.7508 11.25H23.2508C23.4497 11.25 23.6405 11.171 23.7811 11.0303C23.9218 10.8897 24.0008 10.6989 24.0008 10.5C24.0008 10.3011 23.9218 10.1103 23.7811 9.96967C23.6405 9.82902 23.4497 9.75 23.2508 9.75H21.7508Z" fill="#649D91"/>
</g>
<defs>
<clipPath id="clip0_6071_39682">
<rect width="24" height="24" fill="white"/>
</clipPath>
</defs>
</svg>
