<svg width="34" height="34" viewBox="0 0 34 34" fill="none" xmlns="http://www.w3.org/2000/svg">
<g clip-path="url(#clip0_6676_5929)">
<path d="M17 0.799805C8.05271 0.799805 0.800049 8.05247 0.800049 16.9998C0.800049 25.9471 8.05271 33.1998 17 33.1998C25.9474 33.1998 33.2001 25.9471 33.2001 16.9998C33.1906 8.0569 25.943 0.809297 17 0.799805Z" fill="#9F9E98"/>
<path d="M22.4504 13.4281C22.9554 12.8794 22.92 12.0258 22.3713 11.5208C21.8227 11.0158 20.9684 11.0512 20.464 11.5999L16.9715 15.0911L13.4803 11.5999C12.957 11.0949 12.128 11.0949 11.6046 11.5999C11.0686 12.1175 11.0535 12.9725 11.5717 13.5085L15.063 16.9997L11.5717 20.4909C11.0667 21.0142 11.0667 21.8432 11.5717 22.3666C12.0894 22.9032 12.9443 22.9177 13.4803 22.4001L16.9715 18.9089L20.464 22.4001C20.4893 22.4273 20.5159 22.4539 20.5431 22.4792C21.0918 22.9842 21.9461 22.9488 22.4504 22.4001C22.9548 21.8515 22.92 20.9972 22.3713 20.4928L18.8801 17.0003L22.3713 13.5078C22.3985 13.4825 22.4251 13.4559 22.4504 13.4287V13.4281Z" fill="white"/>
</g>
<defs>
<clipPath id="clip0_6676_5929">
<rect width="32.4" height="32.4" fill="white" transform="translate(0.800049 0.799805)"/>
</clipPath>
</defs>
</svg>
