<svg width="14" height="14" viewBox="0 0 14 14" fill="none" xmlns="http://www.w3.org/2000/svg">
<path d="M11.119 4.58168C11.0377 4.50036 10.9412 4.43586 10.8351 4.39185C10.7289 4.34785 10.615 4.3252 10.5001 4.3252C10.3851 4.3252 10.2713 4.34785 10.1651 4.39185C10.0589 4.43586 9.96242 4.50036 9.88116 4.58168L7.20599 7.25626C7.15129 7.31094 7.07712 7.34165 6.99978 7.34165C6.92244 7.34165 6.84827 7.31094 6.79357 7.25626L4.11899 4.58168C3.95492 4.41753 3.73236 4.32528 3.50028 4.32523C3.2682 4.32517 3.0456 4.41731 2.88145 4.58138C2.7173 4.74545 2.62505 4.96801 2.625 5.20009C2.62495 5.43218 2.71709 5.65478 2.88116 5.81893L5.55632 8.49409C5.74591 8.6837 5.97099 8.83411 6.21871 8.93672C6.46643 9.03934 6.73194 9.09216 7.00007 9.09216C7.26821 9.09216 7.53371 9.03934 7.78143 8.93672C8.02915 8.83411 8.25423 8.6837 8.44382 8.49409L11.119 5.81893C11.283 5.65484 11.3752 5.43232 11.3752 5.2003C11.3752 4.96828 11.283 4.74576 11.119 4.58168Z" fill="#262524"/>
</svg>
