<svg width="20" height="20" viewBox="0 0 20 20" fill="none" xmlns="http://www.w3.org/2000/svg">
<path d="M0 10C0 4.47715 4.47715 0 10 0C15.5228 0 20 4.47715 20 10C20 15.5228 15.5228 20 10 20C4.47715 20 0 15.5228 0 10Z" fill="#D2A520"/>
<g clip-path="url(#clip0_6439_3672)">
<path d="M15.4934 6.72564C15.4794 6.63714 15.3375 5.84214 14.7614 5.26164C14.183 4.69564 13.3849 4.55564 13.2959 4.54164C13.1774 4.52214 13.0564 4.54714 12.9549 4.61014C12.8959 4.64664 11.4779 5.53464 8.59895 8.39314C5.56745 11.4036 4.77245 12.6066 4.73995 12.6561C4.69445 12.7261 4.66695 12.8066 4.66045 12.8896L4.50095 14.9251C4.48995 15.0711 4.54245 15.2141 4.64595 15.3176C4.73995 15.4116 4.86745 15.4641 4.99995 15.4641C5.01245 15.4641 5.02545 15.4641 5.03845 15.4626L7.08895 15.3046C7.17145 15.2981 7.25095 15.2716 7.32045 15.2271C7.37045 15.1951 8.58195 14.4056 11.6129 11.3961C14.4924 8.53714 15.3869 7.12863 15.4239 7.07013C15.4879 6.96763 15.5129 6.84513 15.4939 6.72564H15.4934ZM10.9084 10.6866C8.44345 13.1341 7.21145 14.0766 6.87645 14.3181L5.54395 14.4211L5.64695 13.1051C5.89295 12.7691 6.84345 11.5456 9.30295 9.10314C10.0644 8.34714 10.7209 7.73264 11.2739 7.23864C11.2789 7.23963 11.2839 7.24063 11.2894 7.24163C11.2954 7.24263 11.9079 7.34863 12.2999 7.73163C12.6859 8.10913 12.7944 8.69663 12.7974 8.71113C12.7974 8.71313 12.7984 8.71463 12.7984 8.71663C12.2989 9.26813 11.6759 9.92463 10.9084 10.6866ZM13.5629 7.84464C13.4434 7.57764 13.2645 7.27564 12.9994 7.01663C12.7374 6.76013 12.4324 6.58614 12.1624 6.47014C12.7319 5.99514 13.1165 5.71213 13.3169 5.57164C13.5265 5.63364 13.8414 5.76014 14.0574 5.97164C14.2839 6.19964 14.4049 6.51214 14.4624 6.70614C14.3199 6.90614 14.037 7.28563 13.5634 7.84513L13.5629 7.84464Z" fill="white"/>
</g>
<defs>
<clipPath id="clip0_6439_3672">
<rect width="12" height="12" fill="white" transform="translate(4 4)"/>
</clipPath>
</defs>
</svg>
