<svg width="14" height="14" viewBox="0 0 14 14" fill="none" xmlns="http://www.w3.org/2000/svg">
<g clip-path="url(#clip0_6071_39959)">
<path d="M11.0835 7.00001H9.55869L9.87369 4.4736C9.92872 4.21804 9.92612 3.95343 9.86609 3.69901C9.80607 3.44458 9.69011 3.20672 9.52666 3.00271C9.36321 2.7987 9.15636 2.63366 8.92114 2.51959C8.68593 2.40553 8.42826 2.34529 8.16685 2.34326H6.78494C6.84852 1.89351 6.81002 1.17251 7.44644 1.1696H9.33352C9.48823 1.1696 9.6366 1.10814 9.746 0.998742C9.8554 0.889346 9.91685 0.740973 9.91685 0.586263C9.91685 0.431553 9.8554 0.28318 9.746 0.173784C9.6366 0.0643879 9.48823 0.00292969 9.33352 0.00292969H7.44644C7.02008 0.00319215 6.60848 0.159098 6.28893 0.441369C5.96939 0.723641 5.76389 1.11286 5.71102 1.53593L5.6101 2.34326H1.75019C1.49399 2.34601 1.24147 2.40459 1.01022 2.51492C0.77898 2.62526 0.574577 2.78468 0.411258 2.9821C0.247939 3.17952 0.129631 3.41017 0.0645803 3.65799C-0.000470686 3.90581 -0.0107006 4.16483 0.0346034 4.41701L0.917187 11.4508C1.00643 12.1554 1.34939 12.8032 1.88186 13.2731C2.41433 13.7429 3.0998 14.0026 3.80994 14.0035L11.0835 13.9965C11.4665 13.9965 11.8458 13.9211 12.1997 13.7745C12.5535 13.6279 12.8751 13.4131 13.1459 13.1422C13.4168 12.8714 13.6316 12.5499 13.7782 12.196C13.9247 11.8421 14.0002 11.4629 14.0002 11.0798V9.91668C14.0002 9.53366 13.9247 9.15439 13.7782 8.80052C13.6316 8.44665 13.4168 8.12512 13.1459 7.85428C12.8751 7.58345 12.5535 7.36861 12.1997 7.22203C11.8458 7.07545 11.4665 7.00001 11.0835 7.00001ZM12.8335 9.91668H5.83352C5.83352 9.45255 6.01789 9.00743 6.34608 8.67924C6.67427 8.35105 7.11939 8.16668 7.58352 8.16668H11.0835C11.5476 8.16668 11.9928 8.35105 12.321 8.67924C12.6491 9.00743 12.8335 9.45255 12.8335 9.91668ZM8.16685 3.50935C8.25901 3.50984 8.34977 3.53193 8.43185 3.57384C8.51393 3.61575 8.58504 3.67631 8.63949 3.75066C8.69394 3.82502 8.7302 3.9111 8.74537 4.002C8.76054 4.0929 8.7542 4.18609 8.72685 4.2741L8.6761 4.66668H6.49444L6.6391 3.50818L8.16685 3.50935ZM1.29752 3.72751C1.35195 3.65971 1.42084 3.60494 1.49916 3.56719C1.57748 3.52944 1.66325 3.50968 1.75019 3.50935H5.46427L5.31902 4.66668H1.23919L1.18085 4.21751C1.16216 4.13232 1.16294 4.04401 1.18314 3.95917C1.20334 3.87432 1.24244 3.79514 1.29752 3.72751ZM2.07452 11.3062L1.38619 5.83335H8.53027L8.38385 7.00001H7.58352C6.80997 7.00001 6.06811 7.3073 5.52113 7.85428C4.97414 8.40127 4.66685 9.14313 4.66685 9.91668C4.64235 10.8698 4.60852 12.0983 5.27119 12.8392H3.80994C3.38357 12.8389 2.97197 12.683 2.65243 12.4007C2.33289 12.1185 2.12739 11.7293 2.07452 11.3062ZM11.0835 12.8333H7.58352C7.11939 12.8333 6.67427 12.649 6.34608 12.3208C6.01789 11.9926 5.83352 11.5475 5.83352 11.0833H7.99185C8.2176 11.1918 9.66894 12.3148 9.91685 12.25C10.1595 12.3188 11.626 11.1866 11.8419 11.0833H12.8335C12.8335 11.5475 12.6491 11.9926 12.321 12.3208C11.9928 12.649 11.5476 12.8333 11.0835 12.8333Z" fill="#262524"/>
</g>
<defs>
<clipPath id="clip0_6071_39959">
<rect width="14" height="14" fill="white"/>
</clipPath>
</defs>
</svg>
