<svg width="14" height="14" viewBox="0 0 14 14" fill="none" xmlns="http://www.w3.org/2000/svg">
<g clip-path="url(#clip0_6071_39966)">
<path d="M14 4.05125C13.9835 3.14817 13.6164 2.28691 12.9763 1.64967L11.4958 0.170917C11.3857 0.0646578 11.2384 0.00586106 11.0854 0.00719014C10.9325 0.00851922 10.7862 0.0698678 10.678 0.178022C10.5699 0.286177 10.5085 0.432485 10.5072 0.585433C10.5059 0.738381 10.5647 0.885732 10.6709 0.99575L11.6667 1.9915V3.5C11.6667 3.80942 11.7896 4.10617 12.0084 4.32496C12.2272 4.54375 12.5239 4.66667 12.8333 4.66667V10.5C12.8333 10.6547 12.7719 10.8031 12.6625 10.9125C12.5531 11.0219 12.4047 11.0833 12.25 11.0833C12.0953 11.0833 11.9469 11.0219 11.8375 10.9125C11.7281 10.8031 11.6667 10.6547 11.6667 10.5V9.91667C11.6667 9.45254 11.4823 9.00742 11.1541 8.67923C10.8259 8.35104 10.3808 8.16667 9.91667 8.16667H9.33333V2.91667C9.33241 2.1434 9.02482 1.40208 8.47804 0.855295C7.93126 0.308514 7.18993 0.00092625 6.41667 0L2.91667 0C2.1434 0.00092625 1.40208 0.308514 0.855295 0.855295C0.308514 1.40208 0.00092625 2.1434 0 2.91667L0 11.0833C0.00092625 11.8566 0.308514 12.5979 0.855295 13.1447C1.40208 13.6915 2.1434 13.9991 2.91667 14H6.41667C7.18993 13.9991 7.93126 13.6915 8.47804 13.1447C9.02482 12.5979 9.33241 11.8566 9.33333 11.0833V9.33333H9.91667C10.0714 9.33333 10.2197 9.39479 10.3291 9.50419C10.4385 9.61358 10.5 9.76196 10.5 9.91667V10.5C10.5 10.9641 10.6844 11.4092 11.0126 11.7374C11.3408 12.0656 11.7859 12.25 12.25 12.25C12.7141 12.25 13.1592 12.0656 13.4874 11.7374C13.8156 11.4092 14 10.9641 14 10.5C14 10.5 14 4.06175 14 4.05125ZM2.91667 1.16667H6.41667C6.8808 1.16667 7.32591 1.35104 7.6541 1.67923C7.98229 2.00742 8.16667 2.45254 8.16667 2.91667V5.25H1.16667V2.91667C1.16667 2.45254 1.35104 2.00742 1.67923 1.67923C2.00742 1.35104 2.45254 1.16667 2.91667 1.16667ZM8.16667 11.0833C8.16667 11.5475 7.98229 11.9926 7.6541 12.3208C7.32591 12.649 6.8808 12.8333 6.41667 12.8333H2.91667C2.45254 12.8333 2.00742 12.649 1.67923 12.3208C1.35104 11.9926 1.16667 11.5475 1.16667 11.0833V6.41667H8.16667V11.0833Z" fill="#262524"/>
</g>
<defs>
<clipPath id="clip0_6071_39966">
<rect width="14" height="14" fill="white"/>
</clipPath>
</defs>
</svg>
