<svg width="24" height="24" viewBox="0 0 24 24" fill="none" xmlns="http://www.w3.org/2000/svg">
<g clip-path="url(#clip0_6071_39485)">
<path d="M12 7.83333C9.7025 7.83333 7.83333 9.7025 7.83333 12C7.83333 14.2975 9.7025 16.1667 12 16.1667C14.2975 16.1667 16.1667 14.2975 16.1667 12C16.1667 9.7025 14.2975 7.83333 12 7.83333ZM12 14.5C10.6217 14.5 9.5 13.3783 9.5 12C9.5 10.6217 10.6217 9.5 12 9.5C13.3783 9.5 14.5 10.6217 14.5 12C14.5 13.3783 13.3783 14.5 12 14.5ZM21.1667 11.1667H20.2917C19.8992 7.23583 16.7642 4.1 12.8333 3.70833V2.83333C12.8333 2.3725 12.46 2 12 2C11.54 2 11.1667 2.3725 11.1667 2.83333V3.70833C7.23583 4.1 4.1 7.23583 3.70833 11.1667H2.83333C2.37333 11.1667 2 11.5392 2 12C2 12.4608 2.37333 12.8333 2.83333 12.8333H3.70833C4.10083 16.7642 7.23583 19.9 11.1667 20.2917V21.1667C11.1667 21.6275 11.54 22 12 22C12.46 22 12.8333 21.6275 12.8333 21.1667V20.2917C16.7642 19.8992 19.9 16.7642 20.2917 12.8333H21.1667C21.6267 12.8333 22 12.4608 22 12C22 11.5392 21.6267 11.1667 21.1667 11.1667ZM12 18.6667C8.32417 18.6667 5.33333 15.6758 5.33333 12C5.33333 8.32417 8.32417 5.33333 12 5.33333C15.6758 5.33333 18.6667 8.32417 18.6667 12C18.6667 15.6758 15.6758 18.6667 12 18.6667Z" fill="#fff"/>
</g>
<defs>
<clipPath id="clip0_6071_39485">
<rect width="20" height="20" fill="white" transform="translate(2 2)"/>
</clipPath>
</defs>
</svg>
