<svg width="40" height="40" viewBox="0 0 40 40" fill="none" xmlns="http://www.w3.org/2000/svg">
<g opacity="0.8">
<path d="M0 20C0 8.95431 8.95431 0 20 0C31.0457 0 40 8.95431 40 20C40 31.0457 31.0457 40 20 40C8.95431 40 0 31.0457 0 20Z" fill="white"/>
<g clip-path="url(#clip0_6820_37787)">
<path d="M24.5833 11.5977C23.645 11.6123 22.7271 11.8742 21.9223 12.357C21.1176 12.8399 20.4545 13.5265 20 14.3477C19.5455 13.5265 18.8825 12.8399 18.0777 12.357C17.273 11.8742 16.355 11.6123 15.4167 11.5977C13.9208 11.6626 12.5114 12.317 11.4965 13.4178C10.4816 14.5187 9.94355 15.9764 10 17.4727C10 21.2618 13.9883 25.4002 17.3333 28.206C18.0802 28.8336 19.0245 29.1777 20 29.1777C20.9755 29.1777 21.9198 28.8336 22.6667 28.206C26.0117 25.4002 30 21.2618 30 17.4727C30.0565 15.9764 29.5185 14.5187 28.5035 13.4178C27.4886 12.317 26.0792 11.6626 24.5833 11.5977Z" fill="#262524"/>
</g>
</g>
<defs>
<clipPath id="clip0_6820_37787">
<rect width="20" height="20" fill="white" transform="translate(10 10)"/>
</clipPath>
</defs>
</svg>
