<svg width="14" height="14" viewBox="0 0 14 14" fill="none" xmlns="http://www.w3.org/2000/svg">
<g clip-path="url(#clip0_6071_39960)">
<path d="M10.2082 1.11829C9.55136 1.1285 8.90883 1.31187 8.34551 1.64986C7.78218 1.98785 7.31802 2.46851 6.99989 3.04329C6.68177 2.46851 6.21761 1.98785 5.65428 1.64986C5.09096 1.31187 4.44842 1.1285 3.79156 1.11829C2.74444 1.16378 1.75789 1.62185 1.04743 2.39242C0.336979 3.16299 -0.0396269 4.18343 -0.000105711 5.23079C-0.000105711 7.8832 2.79173 10.78 5.13323 12.7441C5.65602 13.1834 6.31702 13.4243 6.99989 13.4243C7.68277 13.4243 8.34377 13.1834 8.86656 12.7441C11.2081 10.78 13.9999 7.8832 13.9999 5.23079C14.0394 4.18343 13.6628 3.16299 12.9524 2.39242C12.2419 1.62185 11.2553 1.16378 10.2082 1.11829ZM8.11698 11.8516C7.8043 12.1149 7.40867 12.2593 6.99989 12.2593C6.59112 12.2593 6.19549 12.1149 5.88281 11.8516C2.88564 9.33687 1.16656 6.9242 1.16656 5.23079C1.12668 4.4927 1.38027 3.7688 1.87202 3.21694C2.36377 2.66509 3.05378 2.33007 3.79156 2.28495C4.52934 2.33007 5.21935 2.66509 5.7111 3.21694C6.20285 3.7688 6.45644 4.4927 6.41656 5.23079C6.41656 5.3855 6.47802 5.53387 6.58742 5.64326C6.69681 5.75266 6.84518 5.81412 6.99989 5.81412C7.1546 5.81412 7.30298 5.75266 7.41237 5.64326C7.52177 5.53387 7.58323 5.3855 7.58323 5.23079C7.54335 4.4927 7.79694 3.7688 8.28869 3.21694C8.78044 2.66509 9.47045 2.33007 10.2082 2.28495C10.946 2.33007 11.636 2.66509 12.1278 3.21694C12.6195 3.7688 12.8731 4.4927 12.8332 5.23079C12.8332 6.9242 11.1141 9.33687 8.11698 11.8493V11.8516Z" fill="#262524"/>
</g>
<defs>
<clipPath id="clip0_6071_39960">
<rect width="14" height="14" fill="white"/>
</clipPath>
</defs>
</svg>
