<svg width="14" height="15" viewBox="0 0 14 15" fill="none" xmlns="http://www.w3.org/2000/svg">
<g clip-path="url(#clip0_6793_35988)">
<path d="M7.00033 4C6.53884 4 6.08771 4.13685 5.704 4.39324C5.32028 4.64963 5.02121 5.01404 4.84461 5.44041C4.668 5.86677 4.6218 6.33592 4.71183 6.78854C4.80186 7.24117 5.02409 7.65693 5.35041 7.98325C5.67673 8.30957 6.09249 8.5318 6.54512 8.62183C6.99774 8.71186 7.46689 8.66566 7.89326 8.48905C8.31962 8.31245 8.68403 8.01338 8.94042 7.62966C9.19681 7.24595 9.33366 6.79482 9.33366 6.33333C9.33366 5.71449 9.08783 5.121 8.65024 4.68342C8.21266 4.24583 7.61917 4 7.00033 4ZM7.00033 7.5C6.76958 7.5 6.54402 7.43158 6.35216 7.30338C6.1603 7.17519 6.01077 6.99298 5.92247 6.7798C5.83417 6.56662 5.81106 6.33204 5.85608 6.10573C5.90109 5.87942 6.01221 5.67154 6.17537 5.50838C6.33853 5.34521 6.54641 5.2341 6.77272 5.18908C6.99903 5.14407 7.23361 5.16717 7.44679 5.25547C7.65997 5.34378 7.84218 5.49331 7.97037 5.68517C8.09857 5.87703 8.16699 6.10259 8.16699 6.33333C8.16699 6.64275 8.04408 6.9395 7.82528 7.15829C7.60649 7.37708 7.30975 7.5 7.00033 7.5Z" fill="white"/>
<path d="M7.00018 14.4999C6.50898 14.5025 6.02433 14.3873 5.5868 14.164C5.14928 13.9407 4.77161 13.6158 4.48543 13.2166C2.26235 10.15 1.13477 7.8447 1.13477 6.3642C1.13477 4.80859 1.75273 3.3167 2.85271 2.21672C3.95269 1.11674 5.44458 0.498779 7.00018 0.498779C8.55579 0.498779 10.0477 1.11674 11.1477 2.21672C12.2476 3.3167 12.8656 4.80859 12.8656 6.3642C12.8656 7.8447 11.738 10.15 9.51493 13.2166C9.22875 13.6158 8.85109 13.9407 8.41356 14.164C7.97604 14.3873 7.49138 14.5025 7.00018 14.4999ZM7.00018 1.7722C5.78243 1.77359 4.61494 2.25795 3.75386 3.11904C2.89277 3.98012 2.40841 5.14761 2.40702 6.36536C2.40702 7.53786 3.51127 9.70611 5.5156 12.4705C5.68575 12.7049 5.90898 12.8957 6.16702 13.0272C6.42505 13.1587 6.71056 13.2273 7.00018 13.2273C7.28981 13.2273 7.57532 13.1587 7.83335 13.0272C8.09138 12.8957 8.31461 12.7049 8.48477 12.4705C10.4891 9.70611 11.5934 7.53786 11.5934 6.36536C11.592 5.14761 11.1076 3.98012 10.2465 3.11904C9.38542 2.25795 8.21794 1.77359 7.00018 1.7722Z" fill="white"/>
</g>
<defs>
<clipPath id="clip0_6793_35988">
<rect width="14" height="14" fill="white" transform="translate(0 0.5)"/>
</clipPath>
</defs>
</svg>
