<svg width="24" height="24" viewBox="0 0 24 24" fill="none" xmlns="http://www.w3.org/2000/svg">
<g clip-path="url(#clip0_4319_50610)">
<path d="M12 12C12.9889 12 13.9556 11.7068 14.7779 11.1573C15.6001 10.6079 16.241 9.82705 16.6194 8.91342C16.9978 7.99979 17.0969 6.99446 16.9039 6.02455C16.711 5.05465 16.2348 4.16373 15.5355 3.46447C14.8363 2.76521 13.9454 2.289 12.9755 2.09608C12.0055 1.90315 11.0002 2.00217 10.0866 2.3806C9.17295 2.75904 8.39206 3.39991 7.84265 4.22215C7.29324 5.0444 7 6.0111 7 7C7.00132 8.32568 7.52853 9.59668 8.46593 10.5341C9.40332 11.4715 10.6743 11.9987 12 12ZM12 3.66667C12.6593 3.66667 13.3037 3.86217 13.8519 4.22844C14.4001 4.59471 14.8273 5.1153 15.0796 5.72439C15.3319 6.33348 15.3979 7.0037 15.2693 7.6503C15.1407 8.29691 14.8232 8.89085 14.357 9.35703C13.8908 9.8232 13.2969 10.1407 12.6503 10.2693C12.0037 10.3979 11.3335 10.3319 10.7244 10.0796C10.1153 9.82731 9.59471 9.40007 9.22843 8.8519C8.86216 8.30374 8.66667 7.65927 8.66667 7C8.66667 6.11595 9.01786 5.2681 9.64298 4.64298C10.2681 4.01786 11.1159 3.66667 12 3.66667Z" fill="#9F9E98"/>
<path d="M12 13.6666C10.0116 13.6688 8.10518 14.4597 6.69914 15.8658C5.29309 17.2718 4.50221 19.1782 4.5 21.1666C4.5 21.3876 4.5878 21.5996 4.74408 21.7559C4.90036 21.9122 5.11232 22 5.33333 22C5.55435 22 5.76631 21.9122 5.92259 21.7559C6.07887 21.5996 6.16667 21.3876 6.16667 21.1666C6.16667 19.6195 6.78125 18.1358 7.87521 17.0418C8.96917 15.9479 10.4529 15.3333 12 15.3333C13.5471 15.3333 15.0308 15.9479 16.1248 17.0418C17.2188 18.1358 17.8333 19.6195 17.8333 21.1666C17.8333 21.3876 17.9211 21.5996 18.0774 21.7559C18.2337 21.9122 18.4457 22 18.6667 22C18.8877 22 19.0996 21.9122 19.2559 21.7559C19.4122 21.5996 19.5 21.3876 19.5 21.1666C19.4978 19.1782 18.7069 17.2718 17.3009 15.8658C15.8948 14.4597 13.9884 13.6688 12 13.6666Z" fill="#9F9E98"/>
</g>
<defs>
<clipPath id="clip0_4319_50610">
<rect width="20" height="20" fill="white" transform="translate(2 2)"/>
</clipPath>
</defs>
</svg>
