<svg width="14" height="14" viewBox="0 0 14 14" fill="none" xmlns="http://www.w3.org/2000/svg">
<g clip-path="url(#clip0_6071_39963)">
<path d="M7.89688 3.51172H6.14688C5.18204 3.51172 4.39688 4.29689 4.39688 5.26172V9.92839C4.39688 10.251 4.65821 10.5117 4.98021 10.5117C5.30221 10.5117 5.56354 10.251 5.56354 9.92839V8.17839H7.89688C9.18371 8.17839 10.2302 7.13189 10.2302 5.84505C10.2302 4.55822 9.18371 3.51172 7.89688 3.51172ZM7.89688 7.01172H5.56354V5.26172C5.56354 4.93972 5.82546 4.67839 6.14688 4.67839H7.89688C8.54029 4.67839 9.06354 5.20164 9.06354 5.84505C9.06354 6.48847 8.54029 7.01172 7.89688 7.01172ZM7.02246 0.0117188C3.16254 0.0117188 0.0224609 3.15122 0.0224609 7.01172C0.0224609 10.8722 3.16254 14.0117 7.02246 14.0117C10.8824 14.0117 14.0225 10.8716 14.0225 7.01172C14.0225 3.1518 10.8818 0.0117188 7.02246 0.0117188ZM7.02246 12.8451C3.80596 12.8451 1.18913 10.2282 1.18913 7.01172C1.18913 3.79522 3.80538 1.17839 7.02246 1.17839C10.2395 1.17839 12.8558 3.79522 12.8558 7.01172C12.8558 10.2282 10.2395 12.8451 7.02246 12.8451Z" fill="#262524"/>
</g>
<defs>
<clipPath id="clip0_6071_39963">
<rect width="14" height="14" fill="white"/>
</clipPath>
</defs>
</svg>
