<svg width="41" height="40" viewBox="0 0 41 40" fill="none" xmlns="http://www.w3.org/2000/svg">
<g clip-path="url(#clip0_6793_35994)">
<path d="M11.8444 28.2265C11.9847 28.2721 12.1144 28.3443 12.226 28.439C12.3377 28.5336 12.4292 28.6488 12.4952 28.778C12.5612 28.9071 12.6006 29.0478 12.6109 29.1918C12.6213 29.3358 12.6024 29.4804 12.5555 29.6173L11.4304 32.9131C11.3279 33.1791 11.1239 33.396 10.8612 33.5182C10.5985 33.6404 10.2975 33.6585 10.0214 33.5687C9.74535 33.4788 9.51567 33.288 9.38061 33.0363C9.24554 32.7846 9.21561 32.4916 9.2971 32.2188L10.4222 28.923C10.5163 28.6465 10.7189 28.4178 10.9856 28.2872C11.2523 28.1565 11.5612 28.1347 11.8444 28.2265ZM18.5953 28.2265C18.7355 28.2721 18.8652 28.3443 18.9769 28.439C19.0885 28.5336 19.18 28.6488 19.246 28.778C19.3121 28.9071 19.3514 29.0478 19.3618 29.1918C19.3721 29.3358 19.3533 29.4804 19.3064 29.6173L17.0561 36.209C16.9536 36.475 16.7496 36.6918 16.4869 36.8141C16.2242 36.9363 15.9232 36.9544 15.6471 36.8645C15.3711 36.7747 15.1414 36.5839 15.0063 36.3322C14.8713 36.0805 14.8413 35.7875 14.9228 35.5147L17.1731 28.923C17.2671 28.6465 17.4698 28.4178 17.7365 28.2872C18.0032 28.1565 18.3121 28.1347 18.5953 28.2265ZM25.3461 28.2265C25.4864 28.2721 25.6161 28.3443 25.7277 28.439C25.8394 28.5336 25.9309 28.6488 25.9969 28.778C26.0629 28.9071 26.1023 29.0478 26.1126 29.1918C26.123 29.3358 26.1041 29.4804 26.0572 29.6173L24.9321 32.9131C24.8296 33.1791 24.6256 33.396 24.3629 33.5182C24.1002 33.6404 23.7992 33.6585 23.5231 33.5687C23.2471 33.4788 23.0174 33.288 22.8823 33.0363C22.7472 32.7846 22.7173 32.4916 22.7988 32.2188L23.9239 28.923C24.018 28.6465 24.2206 28.4178 24.4873 28.2872C24.754 28.1565 25.0629 28.1347 25.3461 28.2265ZM32.097 28.2265C32.2372 28.2721 32.3669 28.3443 32.4786 28.439C32.5902 28.5336 32.6817 28.6488 32.7477 28.778C32.8138 28.9071 32.8531 29.0478 32.8635 29.1918C32.8738 29.3358 32.855 29.4804 32.8081 29.6173L30.5578 36.209C30.5154 36.3509 30.4441 36.4829 30.3483 36.5973C30.2524 36.7116 30.1339 36.8059 29.9998 36.8745C29.8658 36.9431 29.7189 36.9846 29.568 36.9964C29.4172 37.0083 29.2654 36.9904 29.1218 36.9436C28.9783 36.8969 28.8458 36.8223 28.7324 36.7245C28.619 36.6266 28.527 36.5074 28.4619 36.374C28.3968 36.2406 28.3599 36.0957 28.3535 35.948C28.3471 35.8004 28.3712 35.653 28.4245 35.5147L30.6748 28.923C30.7688 28.6465 30.9715 28.4178 31.2382 28.2872C31.5049 28.1565 31.8138 28.1347 32.097 28.2265ZM32.6528 12.8502C32.1855 10.5501 30.9768 8.45623 29.2036 6.87481C27.4303 5.29339 25.1854 4.30736 22.7971 4.06088C20.4088 3.8144 18.0024 4.3204 15.9297 5.5049C13.857 6.6894 12.2268 8.49027 11.2773 10.6442C10.2126 10.5244 9.13402 10.6181 8.10764 10.9195C7.08126 11.2209 6.12869 11.7237 5.30824 12.3971C4.48779 13.0705 3.81673 13.9003 3.33614 14.8357C2.85556 15.7711 2.57557 16.7925 2.5133 17.8372C2.45104 18.882 2.60782 19.9282 2.97404 20.9117C3.34026 21.8952 3.90822 22.7954 4.64314 23.5572C5.37806 24.3189 6.26448 24.9262 7.24812 25.3418C8.23177 25.7575 9.29194 25.9727 10.3637 25.9743H31.7414C33.4541 25.9762 35.1036 25.3424 36.3556 24.2013C37.6076 23.0602 38.3687 21.497 38.4845 19.8285C38.6004 18.16 38.0624 16.5109 36.9796 15.2152C35.8968 13.9195 34.3501 13.0741 32.6528 12.8502ZM21.6151 6.19921C23.8293 6.19876 25.966 6.9952 27.6166 8.43624C29.2672 9.87728 30.3159 11.8618 30.5623 14.0104C30.5929 14.2803 30.7248 14.5296 30.9326 14.7102C31.1403 14.8908 31.4093 14.9898 31.6874 14.9881H31.7414C32.935 14.9881 34.0798 15.4511 34.9238 16.2752C35.7678 17.0994 36.242 18.2171 36.242 19.3826C36.242 20.5481 35.7678 21.6658 34.9238 22.49C34.0798 23.3141 32.935 23.7771 31.7414 23.7771H10.3637C9.5673 23.7767 8.78002 23.6112 8.05399 23.2915C7.32796 22.9718 6.67971 22.5053 6.15213 21.9227C5.62456 21.3401 5.22968 20.6548 4.99362 19.9121C4.75755 19.1694 4.68569 18.3862 4.78278 17.6144C4.87986 16.8425 5.14369 16.0996 5.5568 15.4347C5.96991 14.7698 6.52289 14.1982 7.17917 13.7576C7.83544 13.317 8.58004 13.0175 9.36372 12.8789C10.1474 12.7403 10.9523 12.7657 11.7252 12.9535C12.0009 13.0206 12.2924 12.9834 12.5412 12.8493C12.79 12.7153 12.9776 12.4942 13.0663 12.2306C13.6604 10.475 14.8064 8.94713 16.3413 7.86427C17.8761 6.78141 19.7216 6.19876 21.6151 6.19921Z" fill="white"/>
</g>
<defs>
<clipPath id="clip0_6793_35994">
<rect width="40" height="40" fill="white" transform="translate(0.5)"/>
</clipPath>
</defs>
</svg>
