<svg width="14" height="15" viewBox="0 0 14 15" fill="none" xmlns="http://www.w3.org/2000/svg">
<path d="M4.58155 3.38101C4.50024 3.46227 4.43574 3.55875 4.39173 3.66495C4.34772 3.77114 4.32507 3.88497 4.32507 3.99993C4.32507 4.11488 4.34772 4.22871 4.39173 4.3349C4.43574 4.4411 4.50024 4.53758 4.58155 4.61884L7.25614 7.29401C7.31082 7.34871 7.34153 7.42288 7.34153 7.50022C7.34153 7.57756 7.31082 7.65173 7.25614 7.70643L4.58155 10.381C4.41741 10.5451 4.32516 10.7676 4.3251 10.9997C4.32505 11.2318 4.41719 11.4544 4.58126 11.6186C4.74533 11.7827 4.96789 11.8749 5.19997 11.875C5.43206 11.8751 5.65466 11.7829 5.8188 11.6188L8.49397 8.94368C8.68358 8.75409 8.83398 8.52901 8.9366 8.28129C9.03922 8.03357 9.09203 7.76806 9.09203 7.49993C9.09203 7.23179 9.03922 6.96629 8.9366 6.71857C8.83398 6.47085 8.68358 6.24577 8.49397 6.05618L5.8188 3.38101C5.65472 3.21697 5.4322 3.12482 5.20018 3.12482C4.96816 3.12482 4.74564 3.21697 4.58155 3.38101Z" fill="#262524"/>
</svg>
