<svg width="18" height="18" viewBox="0 0 20 20" fill="none" xmlns="http://www.w3.org/2000/svg">
<g clip-path="url(#clip0_6071_39838)">
<path d="M18.7604 17.6048L18.6557 17.5V17.4986L14.9298 13.7713L15.1098 13.5307C15.7437 12.6836 16.1928 11.7379 16.444 10.7202C16.6872 9.73692 16.7369 8.72733 16.5916 7.71992C16.4466 6.71252 16.114 5.75806 15.6035 4.8832C15.0752 3.97767 14.3777 3.19701 13.5306 2.56314C12.1647 1.5404 10.5438 1 8.84268 1C7.64943 1 6.45398 1.27641 5.38523 1.79964C4.26537 2.34771 3.31565 3.13567 2.56311 4.14161C1.92924 4.98872 1.48049 5.93442 1.22891 6.95205C0.985735 7.93535 0.936077 8.94495 1.08103 9.95235C1.22599 10.9598 1.55863 11.9142 2.06909 12.7891C2.59744 13.6946 3.29521 14.4753 4.14195 15.1091C4.82585 15.6211 5.58277 16.015 6.39154 16.2805C7.18096 16.5397 8.00361 16.6708 8.83611 16.6708C9.66862 16.6708 10.4913 16.5394 11.2807 16.2805C12.0895 16.015 12.8464 15.6211 13.5303 15.1091L13.7709 14.9291L17.6033 18.7616C17.7578 18.916 17.9634 19.0011 18.1817 19.0011C18.4001 19.0011 18.6056 18.916 18.7601 18.7616C18.9145 18.6071 18.9996 18.4015 18.9996 18.1832C18.9996 17.9648 18.9145 17.7593 18.7601 17.6048H18.7604ZM13.2268 13.2265C12.0621 14.3913 10.5139 15.0336 8.86678 15.0354C7.21857 15.0354 5.66931 14.3938 4.50416 13.2283C3.33902 12.0632 2.69712 10.5139 2.69712 8.86608C2.69712 7.21823 3.33866 5.66897 4.50416 4.50382C5.66931 3.33868 7.21857 2.69678 8.86642 2.69678C10.5143 2.69678 12.0635 3.33832 13.2287 4.50382C14.3938 5.66897 15.0357 7.21823 15.0357 8.86608C15.0339 10.5132 14.3916 12.0617 13.2268 13.2265Z" fill="#6A6A6A"/>
</g>
<defs>
<clipPath id="clip0_6071_39838">
<rect width="18" height="18.0011" fill="white" transform="translate(1 1)"/>
</clipPath>
</defs>
</svg>
