<svg width="14" height="14" viewBox="0 0 14 14" fill="none" xmlns="http://www.w3.org/2000/svg">
<g clip-path="url(#clip0_6071_39956)">
<path d="M11.9027 1.00691L1.36511 1.89269C0.765684 1.93542 0.259205 2.33245 0.0728047 2.9039C-0.113595 3.47759 0.0650589 4.09826 0.527061 4.48505C0.546301 4.50029 4.77429 7.13913 4.77429 7.13913C4.77429 7.13913 4.98243 12.0975 4.98667 12.121C5.09137 12.7149 5.54038 13.1781 6.13006 13.3031C6.49512 13.3798 6.86292 13.3156 7.1685 13.1392C7.3574 13.0302 7.52207 12.8783 7.6485 12.6902L13.6498 4.03154C14.0823 3.41063 14.1158 2.6183 13.7372 1.9634C13.3594 1.30825 12.6548 0.941948 11.9027 1.00691ZM1.18846 3.6475C1.02155 3.48833 1.06827 3.29219 1.08676 3.23347C1.10675 3.17325 1.19146 2.97361 1.44257 2.95662C1.44532 2.95612 11.9934 2.06934 11.9934 2.06934C12.1336 2.05735 12.2675 2.07734 12.3895 2.12506L5.3065 6.21412L1.18846 3.6475ZM12.7748 3.42337L6.76822 12.09C6.62779 12.2996 6.41316 12.2734 6.35044 12.2599C6.29048 12.2476 6.09658 12.1892 6.04261 11.9643L5.84172 7.13663L12.9254 3.04682C12.9067 3.1775 12.8562 3.30618 12.7748 3.42337Z" fill="#262524"/>
</g>
<defs>
<clipPath id="clip0_6071_39956">
<rect width="14" height="12.3351" fill="white" transform="translate(0 1)"/>
</clipPath>
</defs>
</svg>
