<svg width="36" height="36" viewBox="0 0 36 36" fill="none" xmlns="http://www.w3.org/2000/svg">
<path d="M15 25.08V15L8 15.0001L13.3846 20.2801L11.7692 27L15 25.08Z" fill="#D2A520"/>
<path d="M18 23.085L12.36 26.49L13.845 20.07L8.865 15.75L15.435 15.195L18 9.135L20.565 15.195L27.135 15.75L22.155 20.07L23.64 26.49M29.4172 16.9638C30.7544 15.8054 30.0396 13.6088 28.2767 13.4593L22.215 12.945L19.8414 7.34474C19.1523 5.71868 16.8477 5.71868 16.1586 7.34474L13.785 12.945L7.71729 13.4598C5.9553 13.6093 5.23995 15.804 6.57544 16.9631L11.175 20.955L9.79858 26.8913C9.39928 28.6135 11.2668 29.9689 12.7804 29.0554L18 25.905L23.212 29.0508C24.7266 29.9649 26.5951 28.607 26.1932 26.8841L24.81 20.955L29.4172 16.9638Z" fill="#D2A520"/>
</svg>
