<svg width="24" height="24" viewBox="0 0 24 24" fill="none" xmlns="http://www.w3.org/2000/svg">
<g clip-path="url(#clip0_6071_39685)">
<path d="M9.25 17.625C9.24982 17.9687 9.15517 18.3057 8.97639 18.5993C8.79761 18.8929 8.54158 19.1316 8.23629 19.2895C7.93099 19.4474 7.58817 19.5183 7.24528 19.4945C6.9024 19.4707 6.57265 19.3532 6.29207 19.1547C6.01149 18.9562 5.79087 18.6843 5.65432 18.3689C5.51777 18.0535 5.47055 17.7066 5.51781 17.3662C5.56508 17.0257 5.70501 16.7048 5.92232 16.4385C6.13963 16.1723 6.42595 15.9708 6.75 15.8563V5.125C6.75 4.95924 6.81585 4.80027 6.93306 4.68306C7.05027 4.56585 7.20924 4.5 7.375 4.5C7.54076 4.5 7.69973 4.56585 7.81694 4.68306C7.93415 4.80027 8 4.95924 8 5.125V15.8563C8.36572 15.9856 8.68234 16.2251 8.90622 16.5419C9.13009 16.8587 9.2502 17.2371 9.25 17.625Z" fill="#D2A520"/>
<path d="M4.25 5.125C4.25 4.2962 4.57924 3.50134 5.16529 2.91529C5.75134 2.32924 6.5462 2 7.375 2C8.2038 2 8.99866 2.32924 9.58471 2.91529C10.1708 3.50134 10.5 4.2962 10.5 5.125V14.5625C11.1029 15.1779 11.5107 15.9575 11.6723 16.8037C11.8339 17.6499 11.7421 18.525 11.4084 19.3192C11.0746 20.1134 10.5139 20.7914 9.79633 21.2682C9.07881 21.745 8.23649 21.9994 7.375 21.9994C6.51351 21.9994 5.67119 21.745 4.95367 21.2682C4.23615 20.7914 3.67536 20.1134 3.34162 19.3192C3.00789 18.525 2.91606 17.6499 3.07766 16.8037C3.23926 15.9575 3.64708 15.1779 4.25 14.5625V5.125ZM7.375 3.25C6.87772 3.25 6.40081 3.44754 6.04918 3.79917C5.69755 4.15081 5.5 4.62772 5.5 5.125V15.1088L5.29125 15.2963C4.81947 15.7182 4.48691 16.2734 4.33759 16.8884C4.18827 17.5035 4.22923 18.1494 4.45504 18.7406C4.68085 19.3319 5.08087 19.8406 5.60217 20.1996C6.12347 20.5585 6.74146 20.7507 7.37438 20.7507C8.00729 20.7507 8.62529 20.5585 9.14659 20.1996C9.66788 19.8406 10.0679 19.3319 10.2937 18.7406C10.5195 18.1494 10.5605 17.5035 10.4112 16.8884C10.2618 16.2734 9.92929 15.7182 9.4575 15.2963L9.25 15.1075V5.125C9.25 4.62772 9.05246 4.15081 8.70083 3.79917C8.3492 3.44754 7.87228 3.25 7.375 3.25ZM13.625 4.5C13.7908 4.5 13.9497 4.56585 14.0669 4.68306C14.1842 4.80027 14.25 4.95924 14.25 5.125V6.375C14.25 6.54076 14.1842 6.69973 14.0669 6.81694C13.9497 6.93415 13.7908 7 13.625 7C13.4592 7 13.3003 6.93415 13.1831 6.81694C13.0658 6.69973 13 6.54076 13 6.375V5.125C13 4.95924 13.0658 4.80027 13.1831 4.68306C13.3003 4.56585 13.4592 4.5 13.625 4.5ZM18.9288 6.69625C19.0459 6.81345 19.1117 6.9724 19.1117 7.13812C19.1117 7.30385 19.0459 7.4628 18.9288 7.58L18.045 8.465C17.9276 8.58236 17.7685 8.64829 17.6025 8.64829C17.4365 8.64829 17.2774 8.58236 17.16 8.465C17.0426 8.34764 16.9767 8.18847 16.9767 8.0225C16.9767 7.85653 17.0426 7.69736 17.16 7.58L18.045 6.69625C18.1622 6.57908 18.3211 6.51326 18.4869 6.51326C18.6526 6.51326 18.8115 6.57908 18.9288 6.69625ZM13 8.875C13 8.70924 13.0658 8.55027 13.1831 8.43306C13.3003 8.31585 13.4592 8.25 13.625 8.25C14.6196 8.25 15.5734 8.64509 16.2767 9.34835C16.9799 10.0516 17.375 11.0054 17.375 12C17.375 12.9946 16.9799 13.9484 16.2767 14.6517C15.5734 15.3549 14.6196 15.75 13.625 15.75C13.4592 15.75 13.3003 15.6842 13.1831 15.5669C13.0658 15.4497 13 15.2908 13 15.125C13 14.9592 13.0658 14.8003 13.1831 14.6831C13.3003 14.5658 13.4592 14.5 13.625 14.5C14.288 14.5 14.9239 14.2366 15.3928 13.7678C15.8616 13.2989 16.125 12.663 16.125 12C16.125 11.337 15.8616 10.7011 15.3928 10.2322C14.9239 9.76339 14.288 9.5 13.625 9.5C13.4592 9.5 13.3003 9.43415 13.1831 9.31694C13.0658 9.19973 13 9.04076 13 8.875ZM18.625 12C18.625 11.8342 18.6908 11.6753 18.8081 11.5581C18.9253 11.4408 19.0842 11.375 19.25 11.375H20.5C20.6658 11.375 20.8247 11.4408 20.9419 11.5581C21.0592 11.6753 21.125 11.8342 21.125 12C21.125 12.1658 21.0592 12.3247 20.9419 12.4419C20.8247 12.5592 20.6658 12.625 20.5 12.625H19.25C19.0842 12.625 18.9253 12.5592 18.8081 12.4419C18.6908 12.3247 18.625 12.1658 18.625 12ZM17.16 15.535C17.2181 15.4768 17.287 15.4306 17.363 15.3991C17.4389 15.3676 17.5203 15.3514 17.6025 15.3514C17.6847 15.3514 17.7661 15.3676 17.842 15.3991C17.918 15.4306 17.9869 15.4768 18.045 15.535L18.9288 16.42C19.0426 16.5379 19.1056 16.6958 19.1042 16.8596C19.1027 17.0235 19.037 17.1803 18.9211 17.2961C18.8053 17.412 18.6485 17.4777 18.4846 17.4792C18.3208 17.4806 18.1629 17.4176 18.045 17.3038L17.16 16.42C17.1018 16.3619 17.0556 16.293 17.0241 16.217C16.9926 16.1411 16.9764 16.0597 16.9764 15.9775C16.9764 15.8953 16.9926 15.8139 17.0241 15.738C17.0556 15.662 17.1018 15.5931 17.16 15.535ZM13.625 17C13.7908 17 13.9497 17.0658 14.0669 17.1831C14.1842 17.3003 14.25 17.4592 14.25 17.625V18.875C14.25 19.0408 14.1842 19.1997 14.0669 19.3169C13.9497 19.4342 13.7908 19.5 13.625 19.5C13.4592 19.5 13.3003 19.4342 13.1831 19.3169C13.0658 19.1997 13 19.0408 13 18.875V17.625C13 17.4592 13.0658 17.3003 13.1831 17.1831C13.3003 17.0658 13.4592 17 13.625 17Z" fill="#D2A520"/>
</g>
<defs>
<clipPath id="clip0_6071_39685">
<rect width="24" height="24" fill="white"/>
</clipPath>
</defs>
</svg>
