<svg width="24" height="24" viewBox="0 0 24 24" fill="none" xmlns="http://www.w3.org/2000/svg">
<g clip-path="url(#clip0_6071_39690)">
<path d="M2.04482 17.3925C2.10652 17.2387 2.22676 17.1157 2.37913 17.0505C2.53149 16.9854 2.7035 16.9834 2.85732 17.045L5.05357 17.9238C5.50053 18.1025 5.99912 18.1025 6.44607 17.9238L7.71357 17.4163C8.45863 17.1182 9.28977 17.1182 10.0348 17.4163L11.3036 17.9238C11.7505 18.1025 12.2491 18.1025 12.6961 17.9238L13.9636 17.4163C14.7086 17.1182 15.5398 17.1182 16.2848 17.4163L17.5536 17.9238C18.0005 18.1025 18.4991 18.1025 18.9461 17.9238L21.1423 17.045C21.2189 17.0125 21.3011 16.9955 21.3843 16.9952C21.4675 16.9948 21.5499 17.0111 21.6267 17.043C21.7035 17.0749 21.7731 17.1218 21.8316 17.181C21.89 17.2402 21.9361 17.3104 21.967 17.3876C21.998 17.4648 22.0132 17.5474 22.0118 17.6306C22.0104 17.7137 21.9924 17.7958 21.9589 17.8719C21.9254 17.948 21.8771 18.0167 21.8167 18.0739C21.7563 18.1311 21.6851 18.1757 21.6073 18.205L19.4098 19.0837C18.6648 19.3818 17.8336 19.3818 17.0886 19.0837L15.8211 18.5762C15.3741 18.3975 14.8755 18.3975 14.4286 18.5762L13.1598 19.0837C12.4148 19.3818 11.5836 19.3818 10.8386 19.0837L9.57107 18.5762C9.12412 18.3975 8.62553 18.3975 8.17857 18.5762L6.90982 19.0837C6.16477 19.3818 5.33363 19.3818 4.58857 19.0837L2.39232 18.205C2.23852 18.1433 2.11552 18.0231 2.05035 17.8707C1.98519 17.7183 1.9832 17.5463 2.04482 17.3925ZM2.04482 19.8925C2.10652 19.7387 2.22676 19.6157 2.37913 19.5505C2.53149 19.4854 2.7035 19.4834 2.85732 19.545L5.05357 20.4238C5.50053 20.6025 5.99912 20.6025 6.44607 20.4238L7.71357 19.9163C8.45863 19.6182 9.28977 19.6182 10.0348 19.9163L11.3036 20.4238C11.7505 20.6025 12.2491 20.6025 12.6961 20.4238L13.9636 19.9163C14.7086 19.6182 15.5398 19.6182 16.2848 19.9163L17.5536 20.4238C18.0005 20.6025 18.4991 20.6025 18.9461 20.4238L21.1423 19.545C21.2189 19.5125 21.3011 19.4955 21.3843 19.4952C21.4675 19.4948 21.5499 19.5111 21.6267 19.543C21.7035 19.5749 21.7731 19.6218 21.8316 19.681C21.89 19.7402 21.9361 19.8104 21.967 19.8876C21.998 19.9648 22.0132 20.0474 22.0118 20.1306C22.0104 20.2137 21.9924 20.2958 21.9589 20.3719C21.9254 20.448 21.8771 20.5167 21.8167 20.5739C21.7563 20.6311 21.6851 20.6757 21.6073 20.705L19.4098 21.5837C18.6648 21.8818 17.8336 21.8818 17.0886 21.5837L15.8211 21.0762C15.3741 20.8975 14.8755 20.8975 14.4286 21.0762L13.1598 21.5837C12.4148 21.8818 11.5836 21.8818 10.8386 21.5837L9.57107 21.0762C9.12412 20.8975 8.62553 20.8975 8.17857 21.0762L6.90982 21.5837C6.16477 21.8818 5.33363 21.8818 4.58857 21.5837L2.39232 20.705C2.23852 20.6433 2.11552 20.5231 2.05035 20.3707C1.98519 20.2183 1.9832 20.0463 2.04482 19.8925ZM5.32732 12.1C4.75732 13.4287 4.08482 14.7225 3.02482 15.605C2.89701 15.7064 2.7346 15.7538 2.5723 15.7371C2.40999 15.7204 2.26066 15.6409 2.15621 15.5155C2.05176 15.3902 2.00046 15.2289 2.01328 15.0663C2.0261 14.9036 2.10202 14.7524 2.22482 14.645C3.03982 13.965 3.61732 12.915 4.17982 11.6075C4.35482 11.1975 4.53107 10.7575 4.71357 10.3025C5.09107 9.36 5.49357 8.35375 5.97607 7.4175C6.70357 6 7.65982 4.63125 9.12482 3.62375C10.5961 2.6125 12.5223 2 15.1248 2C16.9536 2 18.2636 2.5 19.0986 3.3225C19.9361 4.1475 20.2148 5.22 20.1223 6.2C20.0298 7.16375 19.5711 8.095 18.8473 8.65625C18.5177 8.92154 18.1226 9.09294 17.7037 9.15234C17.2848 9.21174 16.8577 9.15695 16.4673 8.99375C15.6548 9.79625 15.3336 11.0925 15.5798 12.2612C15.8448 13.5187 16.7298 14.5 18.2498 14.5H21.3748C21.5406 14.5 21.6996 14.5658 21.8168 14.6831C21.934 14.8003 21.9998 14.9592 21.9998 15.125C21.9998 15.2908 21.934 15.4497 21.8168 15.5669C21.6996 15.6842 21.5406 15.75 21.3748 15.75H18.2498C16.0198 15.75 14.7173 14.2312 14.3573 12.5187C14.0673 11.1437 14.3636 9.5525 15.3048 8.41375L15.1248 8.325L14.1536 8.81C14.0668 8.85335 13.9712 8.87592 13.8742 8.87592C13.7772 8.87592 13.6816 8.85335 13.5948 8.81L12.3448 8.185C12.2019 8.10791 12.0945 7.9782 12.0456 7.82334C11.9966 7.66849 12.0098 7.50065 12.0825 7.35538C12.1551 7.21011 12.2814 7.09882 12.4347 7.04509C12.588 6.99135 12.7561 6.99939 12.9036 7.0675L13.8748 7.5525L14.8448 7.0675C14.9316 7.02415 15.0272 7.00158 15.1242 7.00158C15.2212 7.00158 15.3168 7.02415 15.4036 7.0675L16.6536 7.6925L16.6961 7.715C17.2461 8.045 17.7086 7.95875 18.0811 7.67C18.4911 7.35125 18.8136 6.75875 18.8773 6.0825C18.9398 5.42125 18.7523 4.7375 18.2211 4.21375C17.6898 3.69 16.7336 3.25125 15.1248 3.25125C12.7273 3.25125 11.0598 3.81125 9.83482 4.655C8.60357 5.5 7.76233 6.6725 7.08732 7.9875C6.63107 8.875 6.26857 9.77875 5.90607 10.6875C5.71857 11.1575 5.52982 11.6287 5.32732 12.1Z" fill="#D2A520"/>
</g>
<defs>
<clipPath id="clip0_6071_39690">
<rect width="24" height="24" fill="white"/>
</clipPath>
</defs>
</svg>
