<svg width="24" height="24" viewBox="0 0 24 24" fill="none" xmlns="http://www.w3.org/2000/svg">
<g clip-path="url(#clip0_6071_39686)">
<path d="M17.625 4.25C16.7962 4.25 16.0013 4.57924 15.4153 5.16529C14.8292 5.75134 14.5 6.5462 14.5 7.375C14.5 7.54076 14.4342 7.69973 14.3169 7.81694C14.1997 7.93415 14.0408 8 13.875 8C13.7092 8 13.5503 7.93415 13.4331 7.81694C13.3158 7.69973 13.25 7.54076 13.25 7.375C13.25 6.50971 13.5066 5.66385 13.9873 4.94438C14.4681 4.22492 15.1513 3.66416 15.9508 3.33303C16.7502 3.0019 17.6299 2.91526 18.4785 3.08407C19.3272 3.25288 20.1067 3.66955 20.7186 4.28141C21.3304 4.89326 21.7471 5.67281 21.9159 6.52148C22.0847 7.37015 21.9981 8.24982 21.667 9.04924C21.3358 9.84867 20.7751 10.532 20.0556 11.0127C19.3362 11.4934 18.4903 11.75 17.625 11.75H2.625C2.45924 11.75 2.30027 11.6842 2.18306 11.5669C2.06585 11.4497 2 11.2908 2 11.125C2 10.9592 2.06585 10.8003 2.18306 10.6831C2.30027 10.5658 2.45924 10.5 2.625 10.5H17.625C18.4538 10.5 19.2487 10.1708 19.8347 9.58471C20.4208 8.99866 20.75 8.2038 20.75 7.375C20.75 6.5462 20.4208 5.75134 19.8347 5.16529C19.2487 4.57924 18.4538 4.25 17.625 4.25ZM8.875 5.5C8.54348 5.5 8.22554 5.6317 7.99112 5.86612C7.7567 6.10054 7.625 6.41848 7.625 6.75C7.625 6.91576 7.55915 7.07473 7.44194 7.19194C7.32473 7.30915 7.16576 7.375 7 7.375C6.83424 7.375 6.67527 7.30915 6.55806 7.19194C6.44085 7.07473 6.375 6.91576 6.375 6.75C6.375 6.25555 6.52162 5.7722 6.79633 5.36108C7.07103 4.94995 7.46148 4.62952 7.91829 4.4403C8.37511 4.25108 8.87777 4.20158 9.36273 4.29804C9.84768 4.3945 10.2931 4.6326 10.6428 4.98223C10.9924 5.33187 11.2305 5.77732 11.327 6.26228C11.4234 6.74723 11.3739 7.2499 11.1847 7.70671C10.9955 8.16353 10.675 8.55397 10.2639 8.82868C9.8528 9.10338 9.36945 9.25 8.875 9.25H2.625C2.45924 9.25 2.30027 9.18415 2.18306 9.06694C2.06585 8.94973 2 8.79076 2 8.625C2 8.45924 2.06585 8.30027 2.18306 8.18306C2.30027 8.06585 2.45924 8 2.625 8H8.875C9.20652 8 9.52446 7.86831 9.75888 7.63389C9.9933 7.39946 10.125 7.08152 10.125 6.75C10.125 6.41848 9.9933 6.10054 9.75888 5.86612C9.52446 5.6317 9.20652 5.5 8.875 5.5ZM2 13.625C2 13.4592 2.06585 13.3003 2.18306 13.1831C2.30027 13.0658 2.45924 13 2.625 13H15.1775C15.9192 13 16.6442 13.2199 17.2609 13.632C17.8776 14.044 18.3582 14.6297 18.642 15.3149C18.9259 16.0002 19.0001 16.7542 18.8554 17.4816C18.7108 18.209 18.3536 18.8772 17.8292 19.4017C17.3047 19.9261 16.6365 20.2833 15.9091 20.4279C15.1817 20.5726 14.4277 20.4984 13.7424 20.2146C13.0572 19.9307 12.4715 19.4501 12.0595 18.8334C11.6474 18.2167 11.4275 17.4917 11.4275 16.75C11.4275 16.5842 11.4933 16.4253 11.6106 16.3081C11.7278 16.1908 11.8867 16.125 12.0525 16.125C12.2183 16.125 12.3772 16.1908 12.4944 16.3081C12.6117 16.4253 12.6775 16.5842 12.6775 16.75C12.6775 17.2445 12.8241 17.7278 13.0988 18.1389C13.3735 18.5501 13.764 18.8705 14.2208 19.0597C14.6776 19.2489 15.1803 19.2984 15.6652 19.202C16.1502 19.1055 16.5956 18.8674 16.9453 18.5178C17.2949 18.1681 17.533 17.7227 17.6295 17.2377C17.7259 16.7528 17.6764 16.2501 17.4872 15.7933C17.298 15.3365 16.9775 14.946 16.5664 14.6713C16.1553 14.3966 15.672 14.25 15.1775 14.25H2.625C2.45924 14.25 2.30027 14.1842 2.18306 14.0669C2.06585 13.9497 2 13.7908 2 13.625Z" fill="#D2A520"/>
</g>
<defs>
<clipPath id="clip0_6071_39686">
<rect width="24" height="24" fill="white"/>
</clipPath>
</defs>
</svg>
