<svg width="12" height="12" viewBox="0 0 12 12" fill="none" xmlns="http://www.w3.org/2000/svg">
<path d="M11.4504 2.42809C11.9554 1.87944 11.92 1.02578 11.3713 0.520791C10.8227 0.0158064 9.96836 0.0512439 9.46401 0.599892L5.97152 4.09112L2.48029 0.599892C1.95696 0.094908 1.12797 0.094908 0.604636 0.599892C0.0686433 1.11753 0.0534555 1.97246 0.571729 2.50846L4.06296 5.99968L0.571729 9.49091C0.0667446 10.0142 0.0667446 10.8432 0.571729 11.3666C1.08937 11.9032 1.9443 11.9177 2.48029 11.4001L5.97152 7.90888L9.46401 11.4001C9.48932 11.4273 9.5159 11.4539 9.54311 11.4792C10.0918 11.9842 10.9461 11.9488 11.4504 11.4001C11.9548 10.8515 11.92 9.99716 11.3713 9.49281L7.88008 6.00031L11.3713 2.50782C11.3985 2.48251 11.4251 2.45593 11.4504 2.42872V2.42809Z" fill="white"/>
</svg>
