<svg width="24" height="24" viewBox="0 0 24 24" fill="none" xmlns="http://www.w3.org/2000/svg">
<path d="M5.81286 6.06549C5.00026 6.87802 4.35566 7.84265 3.91587 8.90431C3.47609 9.96596 3.24973 11.1038 3.24973 12.253C3.24973 13.4021 3.47609 14.54 3.91587 15.6017C4.35566 16.6633 5.00026 17.628 5.81286 18.4405C5.92671 18.5584 5.98971 18.7162 5.98829 18.8801C5.98686 19.044 5.92113 19.2007 5.80525 19.3166C5.68937 19.4325 5.53261 19.4982 5.36874 19.4997C5.20487 19.5011 5.04699 19.4381 4.92911 19.3242C4.00047 18.3956 3.26383 17.2932 2.76125 16.0799C2.25867 14.8667 2 13.5663 2 12.253C2 10.9397 2.25867 9.63933 2.76125 8.42604C3.26383 7.21275 4.00047 6.11033 4.92911 5.18174C5.04699 5.06789 5.20487 5.0049 5.36874 5.00632C5.53261 5.00774 5.68937 5.07347 5.80525 5.18936C5.92113 5.30524 5.98686 5.46199 5.98829 5.62587C5.98971 5.78974 5.92671 5.94762 5.81286 6.06549ZM8.46536 8.71799C7.52801 9.65563 7.00143 10.9272 7.00143 12.253C7.00143 13.5788 7.52801 14.8504 8.46536 15.788C8.52347 15.8461 8.56957 15.9151 8.60102 15.991C8.63247 16.0669 8.64865 16.1483 8.64865 16.2305C8.64865 16.3127 8.63247 16.394 8.60102 16.47C8.56957 16.5459 8.52347 16.6149 8.46536 16.673C8.40725 16.7311 8.33827 16.7772 8.26234 16.8086C8.18642 16.8401 8.10504 16.8563 8.02286 16.8563C7.94068 16.8563 7.85931 16.8401 7.78339 16.8086C7.70746 16.7772 7.63847 16.7311 7.58036 16.673C6.99982 16.0926 6.5393 15.4035 6.22511 14.6451C5.91091 13.8868 5.7492 13.0739 5.7492 12.253C5.7492 11.4321 5.91091 10.6192 6.22511 9.86084C6.5393 9.10245 6.99982 8.41338 7.58036 7.83299C7.69772 7.71563 7.85689 7.6497 8.02286 7.6497C8.18883 7.6497 8.34801 7.71563 8.46536 7.83299C8.58272 7.95035 8.64865 8.10952 8.64865 8.27549C8.64865 8.44146 8.58272 8.60063 8.46536 8.71799ZM15.5354 7.83299C15.5934 7.77479 15.6624 7.72861 15.7383 7.6971C15.8143 7.66559 15.8957 7.64937 15.9779 7.64937C16.0601 7.64937 16.1415 7.66559 16.2174 7.6971C16.2933 7.72861 16.3623 7.77479 16.4204 7.83299C17.0009 8.41338 17.4614 9.10245 17.7756 9.86084C18.0898 10.6192 18.2515 11.4321 18.2515 12.253C18.2515 13.0739 18.0898 13.8868 17.7756 14.6451C17.4614 15.4035 17.0009 16.0926 16.4204 16.673C16.3623 16.7311 16.2933 16.7772 16.2173 16.8086C16.1414 16.8401 16.06 16.8563 15.9779 16.8563C15.8957 16.8563 15.8143 16.8401 15.7384 16.8086C15.6625 16.7772 15.5935 16.7311 15.5354 16.673C15.4773 16.6149 15.4312 16.5459 15.3997 16.47C15.3683 16.394 15.3521 16.3127 15.3521 16.2305C15.3521 16.1483 15.3683 16.0669 15.3997 15.991C15.4312 15.9151 15.4773 15.8461 15.5354 15.788C16.4727 14.8504 16.9993 13.5788 16.9993 12.253C16.9993 10.9272 16.4727 9.65563 15.5354 8.71799C15.4772 8.65993 15.431 8.59096 15.3995 8.51503C15.368 8.4391 15.3517 8.3577 15.3517 8.27549C15.3517 8.19328 15.368 8.11188 15.3995 8.03595C15.431 7.96002 15.4772 7.89105 15.5354 7.83299ZM18.1879 5.18299C18.3051 5.06582 18.464 5 18.6297 5C18.7955 5 18.9544 5.06582 19.0716 5.18299C20.9467 7.05832 22.0001 9.60167 22.0001 12.2536C22.0001 14.9056 20.9467 17.4489 19.0716 19.3242C18.9537 19.4381 18.7959 19.5011 18.632 19.4997C18.4681 19.4982 18.3114 19.4325 18.1955 19.3166C18.0796 19.2007 18.0139 19.044 18.0124 18.8801C18.011 18.7162 18.074 18.5584 18.1879 18.4405C19.0005 17.628 19.6451 16.6633 20.0849 15.6017C20.5246 14.54 20.751 13.4021 20.751 12.253C20.751 11.1038 20.5246 9.96596 20.0849 8.90431C19.6451 7.84265 19.0005 6.87802 18.1879 6.06549C18.0707 5.94829 18.0049 5.78934 18.0049 5.62362C18.0049 5.45789 18.0707 5.29895 18.1879 5.18174V5.18299ZM14.5004 12.253C14.5004 12.916 14.237 13.5519 13.7681 14.0208C13.2993 14.4896 12.6634 14.753 12.0004 14.753C11.3373 14.753 10.7014 14.4896 10.2326 14.0208C9.76376 13.5519 9.50036 12.916 9.50036 12.253C9.50036 11.5899 9.76376 10.9541 10.2326 10.4852C10.7014 10.0164 11.3373 9.75299 12.0004 9.75299C12.6634 9.75299 13.2993 10.0164 13.7681 10.4852C14.237 10.9541 14.5004 11.5899 14.5004 12.253Z" fill="#649D91"/>
</svg>
