<svg width="24" height="24" viewBox="0 0 24 24" fill="none" xmlns="http://www.w3.org/2000/svg">
<g clip-path="url(#clip0_6071_39691)">
<path d="M3.15625 5.0625C3.05558 4.89202 3.00168 4.69798 3 4.5C3 4.175 3.145 3.9075 3.3225 3.7075C3.50703 3.51012 3.7239 3.34568 3.96375 3.22125C4.4475 2.95875 5.105 2.74 5.86375 2.565C7.3925 2.2125 9.475 2 11.75 2C14.0262 2 16.1075 2.2125 17.6362 2.565C18.395 2.74 19.0525 2.9575 19.5363 3.22125C19.7775 3.35375 20.0037 3.5125 20.1775 3.7075C20.3537 3.9075 20.5 4.175 20.5 4.5C20.5 5.76375 20.0625 6.515 19.7075 7.1275L19.5625 7.38125C19.3764 7.69405 19.2441 8.03589 19.1713 8.3925C19.1113 8.761 19.1066 9.13639 19.1575 9.50625C19.2879 9.48629 19.4212 9.50809 19.5384 9.56853C19.6557 9.62896 19.7508 9.72493 19.8102 9.84271C19.8695 9.96048 19.8901 10.094 19.869 10.2242C19.8479 10.3544 19.7861 10.4746 19.6925 10.5675C19.6167 10.6425 19.5271 10.7237 19.4237 10.8112C19.6787 12.2062 19.5337 13.2988 19.0487 14.2C18.4825 15.25 17.51 15.9288 16.5238 16.52C16.2679 16.6725 16.0096 16.8242 15.7488 16.975C13.9438 18.015 12.0888 19.0862 11.08 21.6075C11.0452 21.6946 10.9912 21.7728 10.922 21.8362C10.8528 21.8995 10.7703 21.9466 10.6805 21.9737C10.5907 22.0008 10.4959 22.0074 10.4032 21.9929C10.3105 21.9784 10.2222 21.9432 10.145 21.89L10.1438 21.8888L10.1412 21.8875L10.1363 21.8837L10.1237 21.8738C10.0603 21.8287 9.99898 21.7808 9.94 21.73C9.28277 21.1747 8.77594 20.4628 8.46625 19.66C8.26966 19.1421 8.16517 18.5939 8.1575 18.04C8.05599 17.9256 7.99995 17.7779 8 17.625V17.6025L8.01 17.5037C8.0382 17.323 8.12007 17.1549 8.245 17.0213C8.3575 16.41 8.585 15.7537 8.96125 15.0537C8.85232 14.9971 8.7625 14.9096 8.703 14.8021C8.64351 14.6947 8.61697 14.5722 8.6267 14.4498C8.63644 14.3274 8.68201 14.2105 8.75774 14.1139C8.83346 14.0172 8.93598 13.945 9.0525 13.9062C9.30322 13.8217 9.56149 13.7614 9.82375 13.7262L10.0113 13.485C10.3675 13.04 10.5163 12.6862 10.5575 12.4087C10.5963 12.141 10.5425 11.868 10.405 11.635C10.0937 11.0663 9.38625 10.5062 8.38875 9.8475C8.14625 9.68917 7.8925 9.525 7.6275 9.355L7.47875 9.26C6.95458 9.14864 6.43675 9.00928 5.9275 8.8425C5.84147 8.81392 5.7627 8.76696 5.69663 8.7049C5.63056 8.64283 5.57878 8.56713 5.54489 8.48305C5.511 8.39898 5.4958 8.30854 5.50035 8.218C5.50491 8.12746 5.5291 8.039 5.57125 7.95875L5.28375 7.73375C4.39625 7.0125 3.57875 6.15 3.15625 5.0625ZM5.6225 6.37625C5.76417 6.50625 5.91333 6.63458 6.07 6.76125C6.66 7.2375 7.3075 7.66375 7.96375 8.08625C9.88875 8.4825 12.5038 8.71125 14.7513 8.26125C14.8318 8.24508 14.9147 8.24493 14.9953 8.2608C15.0758 8.27668 15.1525 8.30827 15.2209 8.35377C15.2892 8.39927 15.348 8.45779 15.3937 8.52599C15.4395 8.59419 15.4713 8.67073 15.4875 8.75125C15.5037 8.83177 15.5038 8.91468 15.4879 8.99526C15.4721 9.07583 15.4405 9.15249 15.395 9.22086C15.3495 9.28922 15.291 9.34796 15.2228 9.39371C15.1546 9.43946 15.078 9.47133 14.9975 9.4875C13.4775 9.7925 11.8263 9.8125 10.2988 9.68375C10.7975 10.0912 11.2288 10.5363 11.5025 11.035C11.7563 11.5013 11.88 12.0225 11.7937 12.5938C11.7296 13.0054 11.5671 13.4158 11.3062 13.825L11.5812 13.8912L11.5887 13.8938C12.19 14.0438 12.6675 14.16 13.4262 13.9062C13.5837 13.8537 13.7556 13.8659 13.9041 13.9401C14.0526 14.0143 14.1656 14.1444 14.2181 14.3019C14.2707 14.4593 14.2585 14.6312 14.1843 14.7797C14.1101 14.9283 13.98 15.0412 13.8225 15.0938C12.7125 15.4625 11.9413 15.27 11.2938 15.1088L11.2863 15.1062C11.0226 15.0331 10.7533 14.9816 10.4813 14.9525C10.0188 15.64 9.73375 16.265 9.57375 16.8238C9.75042 16.8804 9.94417 16.9613 10.155 17.0663C10.229 17.1026 10.2951 17.1533 10.3495 17.2154C10.4038 17.2774 10.4453 17.3496 10.4717 17.4278C10.498 17.5059 10.5086 17.5885 10.5028 17.6708C10.497 17.7531 10.475 17.8334 10.4381 17.9072C10.4011 17.9809 10.35 18.0466 10.2875 18.1005C10.225 18.1544 10.1525 18.1953 10.0741 18.221C9.99577 18.2467 9.91308 18.2567 9.83084 18.2503C9.74861 18.2439 9.66845 18.2213 9.595 18.1837C9.53414 18.1529 9.47245 18.1237 9.41 18.0962C9.425 18.5275 9.515 18.9 9.635 19.215C9.81 19.6763 10.0625 20.0475 10.295 20.3225C11.535 17.9437 13.5237 16.805 15.1512 15.8725C15.4054 15.7283 15.6488 15.5867 15.8813 15.4475C16.85 14.8675 17.5563 14.335 17.9475 13.6075C18.2125 13.1163 18.36 12.4825 18.2725 11.5863C17.0394 12.2628 15.6565 12.62 14.25 12.625C14.0842 12.625 13.9253 12.5592 13.8081 12.4419C13.6908 12.3247 13.625 12.1658 13.625 12C13.625 11.8342 13.6908 11.6753 13.8081 11.5581C13.9253 11.4408 14.0842 11.375 14.25 11.375C15.5838 11.368 16.8894 10.9906 18.0213 10.285L18.0125 10.2475C17.8438 9.40625 17.8375 8.73875 17.9425 8.16625C18.0475 7.59125 18.2588 7.15375 18.4688 6.775L18.6325 6.4875C18.7142 6.34833 18.79 6.21208 18.86 6.07875C18.4975 6.2125 18.085 6.33125 17.635 6.435C16.1088 6.7875 14.0275 7 11.75 7C9.47375 7 7.3925 6.7875 5.86375 6.435C5.78208 6.41667 5.70167 6.39708 5.6225 6.37625ZM19.205 4.5C19.1241 4.42826 19.0341 4.36734 18.9375 4.31875C18.5975 4.13375 18.0663 3.9475 17.355 3.78375C15.9425 3.4575 13.9613 3.25 11.75 3.25C9.53875 3.25 7.5575 3.4575 6.145 3.78375C5.43375 3.94625 4.9025 4.13375 4.5625 4.31875C4.46587 4.36734 4.37595 4.42826 4.295 4.5C4.34333 4.54833 4.4325 4.60875 4.5625 4.68125C4.9025 4.86625 5.43375 5.0525 6.145 5.21625C7.5575 5.5425 9.53875 5.75 11.75 5.75C13.9613 5.75 15.9425 5.5425 17.355 5.21625C18.0663 5.05375 18.5975 4.86625 18.9375 4.68125C19.0341 4.63266 19.1241 4.57174 19.205 4.5Z" fill="#649D91"/>
</g>
<defs>
<clipPath id="clip0_6071_39691">
<rect width="24" height="24" fill="white"/>
</clipPath>
</defs>
</svg>
