<svg width="20" height="20" viewBox="0 0 20 20" fill="none" xmlns="http://www.w3.org/2000/svg">
<g clip-path="url(#clip0_6071_39839)">
<path d="M10 1C5.02926 1 1 5.02926 1 10C1 14.9707 5.02926 19 10 19C14.9707 19 19 14.9707 19 10C18.9947 5.03172 14.9683 1.00527 10 1Z" fill="#262524"/>
<path d="M13.0278 8.01573C13.3083 7.71092 13.2886 7.23666 12.9838 6.95612C12.679 6.67557 12.2044 6.69526 11.9242 7.00006L9.98393 8.93963L8.04436 7.00006C7.75362 6.71952 7.29307 6.71952 7.00233 7.00006C6.70456 7.28764 6.69612 7.7626 6.98405 8.06037L8.92362 9.99995L6.98405 11.9395C6.7035 12.2303 6.7035 12.6908 6.98405 12.9815C7.27163 13.2797 7.74659 13.2878 8.04436 13.0002L9.98393 11.0606L11.9242 13.0002C11.9383 13.0153 11.953 13.0301 11.9682 13.0441C12.273 13.3247 12.7476 13.305 13.0278 13.0002C13.308 12.6954 13.2886 12.2208 12.9838 11.9406L11.0442 10.0003L12.9838 8.06002C12.9989 8.04596 13.0137 8.0312 13.0278 8.01608V8.01573Z" fill="white"/>
</g>
<defs>
<clipPath id="clip0_6071_39839">
<rect width="18" height="18" fill="white" transform="translate(1 1)"/>
</clipPath>
</defs>
</svg>
