<svg width="20" height="20" viewBox="0 0 20 20" fill="none" xmlns="http://www.w3.org/2000/svg">
<g clip-path="url(#clip0_6071_39842)">
<path d="M17.875 8.875H11.125V2.125C11.125 1.50368 10.6213 1 10 1C9.37868 1 8.875 1.50368 8.875 2.125V8.875H2.125C1.50368 8.875 1 9.37868 1 10C1 10.6213 1.50368 11.125 2.125 11.125H8.875V17.875C8.875 18.4963 9.37868 19 10 19C10.6213 19 11.125 18.4963 11.125 17.875V11.125H17.875C18.4963 11.125 19 10.6213 19 10C19 9.37868 18.4963 8.875 17.875 8.875Z" fill="#262524"/>
</g>
<defs>
<clipPath id="clip0_6071_39842">
<rect width="18" height="18" fill="white" transform="translate(1 1)"/>
</clipPath>
</defs>
</svg>
