<svg width="14" height="14" viewBox="0 0 14 14" fill="none" xmlns="http://www.w3.org/2000/svg">
<g clip-path="url(#clip0_6071_39962)">
<path d="M11.0833 1.16663H2.91667C1.30842 1.16663 0 2.47504 0 4.08329V12.25C0 12.5725 0.261333 12.8333 0.583333 12.8333C0.905333 12.8333 1.16667 12.5725 1.16667 12.25V11.0833H12.8333V12.25C12.8333 12.5725 13.0941 12.8333 13.4167 12.8333C13.7392 12.8333 14 12.5725 14 12.25V4.08329C14 2.47504 12.6916 1.16663 11.0833 1.16663ZM2.91667 2.33329H11.0833C12.0482 2.33329 12.8333 3.11846 12.8333 4.08329V7.58329H11.6667C11.6667 6.29646 10.6202 5.24996 9.33333 5.24996H8.75C8.0535 5.24996 7.42817 5.55679 7 6.04154C6.57183 5.55621 5.9465 5.24996 5.25 5.24996H4.66667C3.37983 5.24996 2.33333 6.29646 2.33333 7.58329H1.16667V4.08329C1.16667 3.11846 1.95183 2.33329 2.91667 2.33329ZM7.58333 7.58329C7.58333 6.93988 8.10658 6.41663 8.75 6.41663H9.33333C9.97675 6.41663 10.5 6.93988 10.5 7.58329H7.58333ZM3.5 7.58329C3.5 6.93988 4.02325 6.41663 4.66667 6.41663H5.25C5.89342 6.41663 6.41667 6.93988 6.41667 7.58329H3.5ZM1.16667 9.91663V8.74996H12.8333V9.91663H1.16667Z" fill="#262524"/>
</g>
<defs>
<clipPath id="clip0_6071_39962">
<rect width="14" height="14" fill="white"/>
</clipPath>
</defs>
</svg>
