<svg width="14" height="14" viewBox="0 0 14 14" fill="none" xmlns="http://www.w3.org/2000/svg">
<g clip-path="url(#clip0_6071_39958)">
<path d="M8.75 7.87496C8.75 6.74912 7.83417 5.83329 6.70833 5.83329H2.04167C0.915833 5.83329 0 6.74912 0 7.87496C0 8.68754 0.47775 9.39104 1.16667 9.71946V11.0833H0.583333C0.261333 11.0833 0 11.344 0 11.6666C0 11.9892 0.261333 12.25 0.583333 12.25H1.16667V13.4166C1.16667 13.7392 1.428 14 1.75 14C2.072 14 2.33333 13.7392 2.33333 13.4166V12.25H6.41667V13.4166C6.41667 13.7392 6.678 14 7 14C7.322 14 7.58333 13.7392 7.58333 13.4166V12.25H8.16667C8.48867 12.25 8.75 11.9892 8.75 11.6666C8.75 11.344 8.48867 11.0833 8.16667 11.0833H7.58333V9.71946C8.27225 9.39104 8.75 8.68754 8.75 7.87496ZM2.04167 6.99996H6.70833C7.19075 6.99996 7.58333 7.39254 7.58333 7.87496C7.58333 8.35737 7.19075 8.74996 6.70833 8.74996H2.04167C1.55925 8.74996 1.16667 8.35737 1.16667 7.87496C1.16667 7.39254 1.55925 6.99996 2.04167 6.99996ZM2.33333 11.0833V9.91662H6.41667V11.0833H2.33333ZM13.734 5.92721C13.9953 6.44229 14.0618 6.98187 13.9417 7.51912C13.6838 8.67704 12.6093 9.43246 11.3954 9.32162C11.2817 9.30762 11.2088 9.33271 11.1551 9.38112C11.1218 9.41029 11.0828 9.46279 11.0828 9.54387V13.4172C11.0828 13.7398 10.8214 14.0005 10.4994 14.0005C10.1774 14.0005 9.91608 13.7398 9.91608 13.4172V9.54387C9.91608 9.15071 10.0835 8.77504 10.3746 8.51312C10.6744 8.24362 11.0787 8.11412 11.4847 8.15787C12.1304 8.21446 12.6747 7.84287 12.8024 7.26654C12.8625 6.99587 12.8304 6.72637 12.7091 6.48779C12.6041 6.28537 12.3848 5.86304 12.7062 5.18696C12.7902 5.01079 12.8322 4.83579 12.8322 4.66721C12.8322 4.29037 12.6467 3.93629 12.3352 3.71929C11.9029 3.41654 11.6527 2.90846 11.6655 2.35954C11.669 2.20146 11.6381 2.03987 11.5733 1.88004C11.4421 1.55512 11.1574 1.29962 10.8308 1.21154C10.6103 1.15204 10.388 1.15204 10.1669 1.21154C9.84025 1.29904 9.55617 1.55512 9.42492 1.88004C9.36017 2.03987 9.32867 2.20146 9.33275 2.35954C9.34558 2.90846 9.09533 3.41654 8.66308 3.71871C8.35158 3.93629 8.1655 4.29037 8.1655 4.66721C8.1655 4.98979 7.90417 5.25054 7.58217 5.25054C7.26017 5.25054 6.99883 4.98979 6.99883 4.66721C6.99883 3.90946 7.371 3.19721 7.99517 2.76204C8.14917 2.65412 8.16842 2.48087 8.16667 2.38637C8.15908 2.06846 8.21858 1.75054 8.34342 1.44196C8.61292 0.774622 9.18225 0.267706 9.86533 0.0845391C10.2836 -0.0268776 10.7153 -0.0268776 11.1323 0.0845391C11.816 0.267706 12.3848 0.775206 12.6548 1.44196C12.7797 1.75054 12.8392 2.06846 12.8316 2.38637C12.8298 2.48029 12.8491 2.65412 13.0031 2.76262C13.6267 3.19721 13.9988 3.90946 13.9988 4.66721C13.9988 5.01079 13.9183 5.35379 13.7597 5.68746C13.699 5.81462 13.7037 5.86654 13.7037 5.86654C13.7054 5.87587 13.7223 5.90679 13.7328 5.92779L13.734 5.92721Z" fill="#262524"/>
</g>
<defs>
<clipPath id="clip0_6071_39958">
<rect width="14" height="14" fill="white"/>
</clipPath>
</defs>
</svg>
