<svg width="12" height="12" viewBox="0 0 12 12" fill="none" xmlns="http://www.w3.org/2000/svg">
<g clip-path="url(#clip0_6071_40055)">
<path d="M11.4939 2.72551C11.4799 2.63701 11.3379 1.84201 10.7619 1.26151C10.1834 0.695513 9.38544 0.555513 9.29644 0.541513C9.17794 0.522013 9.05694 0.547013 8.95544 0.610013C8.89644 0.646513 7.47844 1.53451 4.59944 4.39301C1.56794 7.40351 0.772937 8.60651 0.740437 8.65601C0.694937 8.72601 0.667437 8.80651 0.660937 8.88951L0.501437 10.925C0.490437 11.071 0.542937 11.214 0.646437 11.3175C0.740437 11.4115 0.867937 11.464 1.00044 11.464C1.01294 11.464 1.02594 11.464 1.03894 11.4625L3.08944 11.3045C3.17194 11.298 3.25144 11.2715 3.32094 11.227C3.37094 11.195 4.58244 10.4055 7.61344 7.39601C10.4929 4.53701 11.3874 3.12851 11.4244 3.07001C11.4884 2.96751 11.5134 2.84501 11.4944 2.72551H11.4939ZM6.90894 6.68651C4.44394 9.13401 3.21194 10.0765 2.87694 10.318L1.54444 10.421L1.64744 9.10501C1.89344 8.76901 2.84394 7.54551 5.30344 5.10301C6.06494 4.34701 6.72144 3.73251 7.27444 3.23851C7.27944 3.23951 7.28444 3.24051 7.28994 3.24151C7.29594 3.24251 7.90844 3.34851 8.30044 3.73151C8.68644 4.10901 8.79494 4.69651 8.79794 4.71101C8.79794 4.71301 8.79894 4.71451 8.79894 4.71651C8.29944 5.26801 7.67644 5.92451 6.90894 6.68651ZM9.56344 3.84451C9.44394 3.57751 9.26494 3.27551 8.99994 3.01651C8.73794 2.76001 8.43294 2.58601 8.16294 2.47001C8.73244 1.99501 9.11694 1.71201 9.31744 1.57151C9.52694 1.63351 9.84194 1.76001 10.0579 1.97151C10.2844 2.19951 10.4054 2.51201 10.4629 2.70601C10.3204 2.90601 10.0374 3.28551 9.56394 3.84501L9.56344 3.84451Z" fill="#262524"/>
</g>
<defs>
<clipPath id="clip0_6071_40055">
<rect width="12" height="12" fill="white"/>
</clipPath>
</defs>
</svg>
