<svg width="24" height="24" viewBox="0 0 24 24" fill="none" xmlns="http://www.w3.org/2000/svg">
<g clip-path="url(#clip0_6071_39694)">
<path d="M10.035 3.43875C10.385 2.73875 11.0162 2 12 2C12.9838 2 13.615 2.74 13.965 3.43875C14.3262 4.1625 14.5 5.03875 14.5 5.75V10.3637L20.9625 13.595C21.2742 13.7506 21.5364 13.99 21.7197 14.2863C21.9029 14.5826 22 14.9241 22 15.2725V17C22 17.0907 21.9802 17.1804 21.942 17.2627C21.9038 17.345 21.8482 17.418 21.779 17.4766C21.7097 17.5353 21.6286 17.5781 21.5411 17.6022C21.4537 17.6263 21.362 17.6311 21.2725 17.6163L14.3888 16.4687L13.92 19.285L15.5675 20.9325C15.6551 21.0199 15.7148 21.1314 15.739 21.2528C15.7633 21.3741 15.7509 21.5 15.7035 21.6143C15.6561 21.7287 15.5758 21.8264 15.4728 21.895C15.3698 21.9637 15.2488 22.0002 15.125 22H8.875C8.75122 22.0002 8.63017 21.9637 8.52718 21.895C8.4242 21.8264 8.34392 21.7287 8.29652 21.6143C8.24912 21.5 8.23674 21.3741 8.26095 21.2528C8.28516 21.1314 8.34487 21.0199 8.4325 20.9325L10.0813 19.285L9.61125 16.4687L2.7275 17.6163C2.638 17.6311 2.54634 17.6263 2.45888 17.6022C2.37142 17.5781 2.29026 17.5353 2.22103 17.4766C2.1518 17.418 2.09617 17.345 2.058 17.2627C2.01983 17.1804 2.00004 17.0907 2 17V15.2725C2.00001 14.9241 2.09709 14.5826 2.28035 14.2863C2.4636 13.99 2.72579 13.7506 3.0375 13.595L9.5 10.3637V5.75C9.5 5.04 9.675 4.16125 10.035 3.43875ZM11.1525 3.99875C10.8888 4.525 10.75 5.21125 10.75 5.75V10.75C10.75 10.866 10.7177 10.9797 10.6568 11.0783C10.5959 11.177 10.5087 11.2568 10.405 11.3088L3.595 14.7137C3.49132 14.7657 3.40413 14.8455 3.3432 14.9442C3.28228 15.0428 3.25 15.1565 3.25 15.2725V16.2625L10.0225 15.1337C10.1857 15.1066 10.3531 15.1453 10.4878 15.2414C10.6226 15.3375 10.7137 15.4831 10.7413 15.6462L11.3663 19.3962C11.3828 19.4947 11.3756 19.5956 11.3451 19.6906C11.3147 19.7857 11.2619 19.872 11.1913 19.9425L10.385 20.75H13.6175L12.8088 19.9425C12.7383 19.8722 12.6856 19.786 12.6552 19.6912C12.6248 19.5964 12.6174 19.4957 12.6337 19.3975L13.2587 15.6475C13.2722 15.5665 13.3016 15.4889 13.3451 15.4192C13.3886 15.3495 13.4454 15.2891 13.5122 15.2414C13.5791 15.1936 13.6547 15.1596 13.7348 15.1411C13.8148 15.1227 13.8977 15.1201 13.9788 15.1337L20.75 16.2625V15.2725C20.75 15.1565 20.7177 15.0428 20.6568 14.9442C20.5959 14.8455 20.5087 14.7657 20.405 14.7137L13.595 11.3088C13.4913 11.2568 13.4041 11.177 13.3432 11.0783C13.2823 10.9797 13.25 10.866 13.25 10.75V5.75C13.25 5.21 13.1125 4.52625 12.8475 3.99875C12.5725 3.44875 12.2662 3.25 12 3.25C11.7338 3.25 11.4275 3.4475 11.1525 3.99875Z" fill="#649D91"/>
</g>
<defs>
<clipPath id="clip0_6071_39694">
<rect width="24" height="24" fill="white"/>
</clipPath>
</defs>
</svg>
