<svg width="24" height="25" viewBox="0 0 24 25" fill="none" xmlns="http://www.w3.org/2000/svg">
<path d="M5.31569 16.7836C5.47276 16.8361 5.60258 16.9488 5.67664 17.0969C5.7507 17.245 5.76295 17.4165 5.71069 17.5736L5.08569 19.4486C5.06215 19.5293 5.02257 19.6045 4.96931 19.6695C4.91606 19.7346 4.85023 19.7882 4.77576 19.8272C4.70129 19.8663 4.61971 19.8898 4.53591 19.8966C4.45211 19.9034 4.36781 19.8931 4.28805 19.8666C4.20829 19.84 4.13471 19.7976 4.07173 19.7419C4.00874 19.6862 3.95763 19.6184 3.92147 19.5425C3.8853 19.4666 3.86482 19.3842 3.86125 19.3002C3.85768 19.2162 3.8711 19.1323 3.90069 19.0536L4.52569 17.1786C4.57817 17.0216 4.69084 16.8917 4.83897 16.8177C4.98709 16.7436 5.15855 16.7314 5.31569 16.7836ZM17.1907 16.7836C17.3478 16.8361 17.4776 16.9488 17.5516 17.0969C17.6257 17.245 17.6379 17.4165 17.5857 17.5736L16.9607 19.4486C16.9371 19.5293 16.8976 19.6045 16.8443 19.6695C16.7911 19.7346 16.7252 19.7882 16.6508 19.8272C16.5763 19.8663 16.4947 19.8898 16.4109 19.8966C16.3271 19.9034 16.2428 19.8931 16.163 19.8666C16.0833 19.84 16.0097 19.7976 15.9467 19.7419C15.8837 19.6862 15.8326 19.6184 15.7965 19.5425C15.7603 19.4666 15.7398 19.3842 15.7363 19.3002C15.7327 19.2162 15.7461 19.1323 15.7757 19.0536L16.4007 17.1786C16.4532 17.0216 16.5658 16.8917 16.714 16.8177C16.8621 16.7436 17.0335 16.7314 17.1907 16.7836ZM7.81569 18.6586C7.97276 18.7111 8.10258 18.8238 8.17664 18.9719C8.2507 19.12 8.26295 19.2915 8.21069 19.4486L7.58569 21.3236C7.56215 21.4043 7.52257 21.4795 7.46931 21.5445C7.41606 21.6096 7.35023 21.6632 7.27576 21.7022C7.20129 21.7413 7.11971 21.7648 7.03591 21.7716C6.95211 21.7784 6.86781 21.7681 6.78805 21.7416C6.70829 21.715 6.63471 21.6726 6.57173 21.6169C6.50874 21.5612 6.45763 21.4934 6.42147 21.4175C6.3853 21.3416 6.36482 21.2592 6.36125 21.1752C6.35768 21.0912 6.3711 21.0073 6.40069 20.9286L7.02569 19.0536C7.07817 18.8966 7.19084 18.7667 7.33897 18.6927C7.48709 18.6186 7.65855 18.6064 7.81569 18.6586ZM19.6907 18.6586C19.8478 18.7111 19.9776 18.8238 20.0516 18.9719C20.1257 19.12 20.1379 19.2915 20.0857 19.4486L19.4607 21.3236C19.4371 21.4043 19.3976 21.4795 19.3443 21.5445C19.2911 21.6096 19.2252 21.6632 19.1508 21.7022C19.0763 21.7413 18.9947 21.7648 18.9109 21.7716C18.8271 21.7784 18.7428 21.7681 18.663 21.7416C18.5833 21.715 18.5097 21.6726 18.4467 21.6169C18.3837 21.5612 18.3326 21.4934 18.2965 21.4175C18.2603 21.3416 18.2398 21.2592 18.2363 21.1752C18.2327 21.0912 18.2461 21.0073 18.2757 20.9286L18.9007 19.0536C18.9532 18.8966 19.0658 18.7667 19.214 18.6927C19.3621 18.6186 19.5335 18.6064 19.6907 18.6586ZM18.7494 8.03487C18.4899 6.72633 17.8185 5.53514 16.8334 4.63547C15.8484 3.73581 14.6014 3.17486 13.2747 3.03463C11.9481 2.89441 10.6114 3.18228 9.46002 3.85614C8.30867 4.53 7.40309 5.55451 6.87569 6.77987C6.28424 6.71174 5.6851 6.76504 5.11496 6.93651C4.54482 7.10798 4.01568 7.39401 3.55994 7.77709C3.10419 8.16018 2.73142 8.63225 2.46447 9.16441C2.19751 9.69657 2.04198 10.2776 2.00739 10.872C1.9728 11.4663 2.05989 12.0615 2.26332 12.621C2.46675 13.1806 2.78224 13.6927 3.19048 14.126C3.59872 14.5594 4.09111 14.9049 4.63751 15.1413C5.18392 15.3778 5.77283 15.5002 6.36819 15.5011H18.2432C19.1946 15.5022 20.1108 15.1416 20.8063 14.4925C21.5018 13.8433 21.9245 12.954 21.9889 12.0048C22.0532 11.0556 21.7544 10.1174 21.1529 9.3803C20.5514 8.64317 19.6923 8.16222 18.7494 8.03487ZM12.6182 4.25112C13.8481 4.25087 15.035 4.70396 15.9519 5.52377C16.8688 6.34357 17.4514 7.47256 17.5882 8.69487C17.6052 8.84845 17.6785 8.99028 17.7939 9.09301C17.9093 9.19573 18.0587 9.25206 18.2132 9.25112H18.2432C18.9062 9.25112 19.5421 9.51452 20.011 9.98336C20.4798 10.4522 20.7432 11.0881 20.7432 11.7511C20.7432 12.4142 20.4798 13.05 20.011 13.5189C19.5421 13.9877 18.9062 14.2511 18.2432 14.2511H6.36819C5.92578 14.2509 5.48846 14.1568 5.08516 13.9749C4.68186 13.793 4.32177 13.5276 4.02871 13.1962C3.73565 12.8648 3.5163 12.4749 3.38517 12.0524C3.25404 11.6298 3.21412 11.1843 3.26805 10.7452C3.32198 10.3061 3.46853 9.88342 3.69801 9.50518C3.92749 9.12694 4.23466 8.80174 4.59921 8.55108C4.96376 8.30043 5.37738 8.13003 5.8127 8.05117C6.24802 7.97231 6.69513 7.98678 7.12444 8.09362C7.2776 8.13183 7.43954 8.11066 7.57774 8.03437C7.71594 7.95809 7.82015 7.83233 7.86944 7.68237C8.19946 6.68364 8.83604 5.81441 9.68862 5.19838C10.5412 4.58234 11.5663 4.25087 12.6182 4.25112ZM10.8094 17.0961C10.8614 16.9924 10.9412 16.9053 11.0399 16.8443C11.1385 16.7834 11.2522 16.7511 11.3682 16.7511H12.6182C12.7172 16.7512 12.8147 16.7748 12.9028 16.8199C12.9909 16.8651 13.067 16.9305 13.1248 17.0108C13.1827 17.0911 13.2206 17.184 13.2356 17.2819C13.2505 17.3797 13.242 17.4797 13.2107 17.5736L12.8607 18.6261H13.8682C13.9858 18.6263 14.101 18.6596 14.2005 18.7223C14.3 18.785 14.3798 18.8745 14.4307 18.9805C14.4816 19.0865 14.5016 19.2048 14.4883 19.3216C14.475 19.4385 14.4291 19.5492 14.3557 19.6411L11.8557 22.7661C11.7665 22.8769 11.6422 22.954 11.5032 22.9846C11.3643 23.0152 11.2191 22.9975 11.0916 22.9344C10.9641 22.8713 10.862 22.7666 10.802 22.6376C10.7421 22.5086 10.728 22.363 10.7619 22.2249L11.1932 20.5011H10.1182C10.0116 20.5011 9.9068 20.4739 9.81372 20.4219C9.72065 20.37 9.6424 20.2952 9.5864 20.2045C9.53041 20.1138 9.49854 20.0103 9.49382 19.9038C9.4891 19.7973 9.51169 19.6914 9.55944 19.5961L10.8094 17.0961Z" fill="#649D91"/>
</svg>
