<svg width="24" height="24" viewBox="0 0 24 24" fill="none" xmlns="http://www.w3.org/2000/svg">
<g clip-path="url(#clip0_6071_39687)">
<path d="M7.19069 16.7824C7.26861 16.8084 7.34064 16.8494 7.40267 16.9033C7.4647 16.9571 7.5155 17.0226 7.55219 17.0961C7.58887 17.1696 7.61071 17.2496 7.61646 17.3315C7.62221 17.4135 7.61175 17.4957 7.58569 17.5736L6.96069 19.4486C6.90379 19.5999 6.79047 19.7233 6.64454 19.7928C6.49861 19.8624 6.33141 19.8727 6.17805 19.8216C6.02469 19.7704 5.8971 19.6619 5.82208 19.5187C5.74705 19.3755 5.73043 19.2088 5.77569 19.0536L6.40069 17.1786C6.45292 17.0213 6.56548 16.8912 6.71363 16.8169C6.86178 16.7426 7.03338 16.7302 7.19069 16.7824ZM10.9407 16.7824C11.0186 16.8084 11.0906 16.8494 11.1527 16.9033C11.2147 16.9571 11.2655 17.0226 11.3022 17.0961C11.3389 17.1696 11.3607 17.2496 11.3665 17.3315C11.3722 17.4135 11.3618 17.4957 11.3357 17.5736L10.0857 21.3236C10.0288 21.4749 9.91547 21.5983 9.76954 21.6678C9.62361 21.7374 9.45641 21.7477 9.30305 21.6966C9.14969 21.6454 9.0221 21.5369 8.94708 21.3937C8.87205 21.2505 8.85543 21.0838 8.90069 20.9286L10.1507 17.1786C10.2029 17.0213 10.3155 16.8912 10.4636 16.8169C10.6118 16.7426 10.7834 16.7302 10.9407 16.7824ZM14.6907 16.7824C14.7686 16.8084 14.8406 16.8494 14.9027 16.9033C14.9647 16.9571 15.0155 17.0226 15.0522 17.0961C15.0889 17.1696 15.1107 17.2496 15.1165 17.3315C15.1222 17.4135 15.1118 17.4957 15.0857 17.5736L14.4607 19.4486C14.4038 19.5999 14.2905 19.7233 14.1445 19.7928C13.9986 19.8624 13.8314 19.8727 13.678 19.8216C13.5247 19.7704 13.3971 19.6619 13.3221 19.5187C13.2471 19.3755 13.2304 19.2088 13.2757 19.0536L13.9007 17.1786C13.9529 17.0213 14.0655 16.8912 14.2136 16.8169C14.3618 16.7426 14.5334 16.7302 14.6907 16.7824ZM18.4407 16.7824C18.5186 16.8084 18.5906 16.8494 18.6527 16.9033C18.7147 16.9571 18.7655 17.0226 18.8022 17.0961C18.8389 17.1696 18.8607 17.2496 18.8665 17.3315C18.8722 17.4135 18.8618 17.4957 18.8357 17.5736L17.5857 21.3236C17.5621 21.4043 17.5226 21.4795 17.4693 21.5445C17.4161 21.6096 17.3502 21.6632 17.2758 21.7022C17.2013 21.7413 17.1197 21.7648 17.0359 21.7716C16.9521 21.7784 16.8678 21.7681 16.788 21.7416C16.7083 21.715 16.6347 21.6726 16.5717 21.6169C16.5087 21.5612 16.4576 21.4934 16.4215 21.4175C16.3853 21.3416 16.3648 21.2592 16.3613 21.1752C16.3577 21.0912 16.3711 21.0073 16.4007 20.9286L17.6507 17.1786C17.7029 17.0213 17.8155 16.8912 17.9636 16.8169C18.1118 16.7426 18.2834 16.7302 18.4407 16.7824ZM18.7494 8.03487C18.4899 6.72633 17.8185 5.53514 16.8334 4.63547C15.8484 3.73581 14.6014 3.17486 13.2747 3.03463C11.9481 2.89441 10.6114 3.18228 9.46002 3.85614C8.30867 4.53 7.40309 5.55451 6.87569 6.77987C6.28424 6.71174 5.6851 6.76504 5.11496 6.93651C4.54482 7.10798 4.01568 7.39401 3.55994 7.77709C3.10419 8.16018 2.73142 8.63225 2.46447 9.16441C2.19751 9.69657 2.04198 10.2776 2.00739 10.872C1.9728 11.4663 2.05989 12.0615 2.26332 12.621C2.46675 13.1806 2.78224 13.6927 3.19048 14.126C3.59872 14.5594 4.09111 14.9049 4.63751 15.1413C5.18392 15.3778 5.77283 15.5002 6.36819 15.5011H18.2432C19.1946 15.5022 20.1108 15.1416 20.8063 14.4925C21.5018 13.8433 21.9245 12.954 21.9889 12.0048C22.0532 11.0556 21.7544 10.1174 21.1529 9.3803C20.5514 8.64317 19.6923 8.16222 18.7494 8.03487ZM12.6182 4.25112C13.8481 4.25087 15.035 4.70396 15.9519 5.52377C16.8688 6.34357 17.4514 7.47256 17.5882 8.69487C17.6052 8.84845 17.6785 8.99028 17.7939 9.09301C17.9093 9.19573 18.0587 9.25206 18.2132 9.25112H18.2432C18.9062 9.25112 19.5421 9.51452 20.011 9.98336C20.4798 10.4522 20.7432 11.0881 20.7432 11.7511C20.7432 12.4142 20.4798 13.05 20.011 13.5189C19.5421 13.9877 18.9062 14.2511 18.2432 14.2511H6.36819C5.92578 14.2509 5.48846 14.1568 5.08516 13.9749C4.68186 13.793 4.32177 13.5276 4.02871 13.1962C3.73565 12.8648 3.5163 12.4749 3.38517 12.0524C3.25404 11.6298 3.21412 11.1843 3.26805 10.7452C3.32198 10.3061 3.46853 9.88342 3.69801 9.50518C3.92749 9.12694 4.23466 8.80174 4.59921 8.55108C4.96376 8.30043 5.37738 8.13003 5.8127 8.05117C6.24802 7.97231 6.69513 7.98678 7.12444 8.09362C7.2776 8.13183 7.43954 8.11066 7.57774 8.03437C7.71594 7.95809 7.82015 7.83233 7.86944 7.68237C8.19946 6.68364 8.83604 5.81441 9.68862 5.19837C10.5412 4.58234 11.5663 4.25087 12.6182 4.25112Z" fill="#D2A520"/>
</g>
<defs>
<clipPath id="clip0_6071_39687">
<rect width="24" height="24" fill="white"/>
</clipPath>
</defs>
</svg>
