<svg width="24" height="24" viewBox="0 0 24 24" fill="none" xmlns="http://www.w3.org/2000/svg">
<g clip-path="url(#clip0_6071_39689)">
<path d="M11.7473 22C11.5816 22 11.4226 21.9342 11.3054 21.8169C11.1882 21.6997 11.1223 21.5408 11.1223 21.375V19.7587L10.3148 20.5675C10.1975 20.6847 10.0384 20.7505 9.87252 20.7503C9.70667 20.7502 9.54766 20.6842 9.43046 20.5669C9.31327 20.4495 9.2475 20.2904 9.24762 20.1246C9.24773 19.9587 9.31373 19.7997 9.43109 19.6825L11.1223 17.9913V13.0825L6.87234 15.5363L6.25234 17.8487C6.20924 18.0089 6.1043 18.1453 5.9606 18.2281C5.8169 18.3108 5.64621 18.3331 5.48609 18.29C5.32597 18.2469 5.18952 18.142 5.10677 17.9983C5.02402 17.8546 5.00174 17.6839 5.04484 17.5237L5.34109 16.4212L3.94109 17.2287C3.79762 17.3103 3.6277 17.3318 3.46843 17.2886C3.30915 17.2454 3.17344 17.1409 3.09092 16.9979C3.0084 16.855 2.98576 16.6852 3.02794 16.5257C3.07013 16.3661 3.17371 16.2297 3.31609 16.1463L4.71609 15.3387L3.61109 15.0425C3.5318 15.0212 3.4575 14.9844 3.39241 14.9344C3.32733 14.8843 3.27274 14.8219 3.23177 14.7508C3.1908 14.6796 3.16424 14.6011 3.15361 14.5197C3.14299 14.4382 3.1485 14.3555 3.16984 14.2763C3.19118 14.197 3.22793 14.1227 3.27798 14.0576C3.32804 13.9925 3.39043 13.9379 3.46158 13.8969C3.53273 13.856 3.61126 13.8294 3.69268 13.8188C3.77409 13.8081 3.8568 13.8137 3.93609 13.835L6.24609 14.4538L10.4973 12L6.24734 9.54625L3.93484 10.165C3.77576 10.2046 3.60747 10.1802 3.46624 10.0969C3.32501 10.0137 3.22216 9.87822 3.17986 9.71982C3.13756 9.56143 3.15918 9.39275 3.24008 9.25015C3.32098 9.10755 3.45467 9.00245 3.61234 8.9575L4.71609 8.66125L3.31609 7.85375C3.24444 7.81301 3.18155 7.7585 3.13105 7.69336C3.08055 7.62822 3.04343 7.55373 3.02183 7.47418C3.00024 7.39464 2.99459 7.31161 3.00521 7.22987C3.01584 7.14813 3.04252 7.0693 3.08374 6.99792C3.12495 6.92654 3.17988 6.86401 3.24535 6.81395C3.31083 6.76388 3.38556 6.72726 3.46525 6.70619C3.54494 6.68512 3.628 6.68002 3.70967 6.69119C3.79133 6.70235 3.86998 6.72956 3.94109 6.77125L5.34109 7.57875L5.04484 6.475C5.0221 6.39522 5.01546 6.31172 5.02532 6.22935C5.03519 6.14698 5.06135 6.0674 5.10228 5.99524C5.14321 5.92309 5.1981 5.85981 5.26375 5.80909C5.32939 5.75836 5.40447 5.72122 5.48462 5.69981C5.56477 5.67841 5.64837 5.67317 5.73056 5.68441C5.81276 5.69565 5.89189 5.72313 5.96335 5.76527C6.0348 5.80741 6.09716 5.86335 6.14678 5.92983C6.19639 5.99631 6.23228 6.07201 6.25234 6.1525L6.87109 8.46375L11.1223 10.9175V6.00875L9.43109 4.3175C9.37298 4.25947 9.32687 4.19057 9.29539 4.11472C9.26391 4.03887 9.24768 3.95756 9.24762 3.87544C9.24756 3.79332 9.26368 3.71199 9.29505 3.6361C9.32642 3.56021 9.37244 3.49123 9.43046 3.43312C9.48849 3.37502 9.5574 3.3289 9.63325 3.29742C9.70909 3.26594 9.7904 3.24971 9.87252 3.24965C9.95464 3.24959 10.036 3.26571 10.1119 3.29708C10.1878 3.32846 10.2567 3.37447 10.3148 3.4325L11.1223 4.24125V2.625C11.1223 2.45924 11.1882 2.30027 11.3054 2.18306C11.4226 2.06585 11.5816 2 11.7473 2C11.9131 2 12.0721 2.06585 12.1893 2.18306C12.3065 2.30027 12.3723 2.45924 12.3723 2.625V4.24125L13.1811 3.4325C13.2984 3.31531 13.4576 3.24954 13.6234 3.24965C13.7893 3.24977 13.9483 3.31577 14.0655 3.43312C14.1827 3.55048 14.2484 3.70959 14.2483 3.87544C14.2482 4.04129 14.1822 4.20031 14.0648 4.3175L12.3723 6.00875V10.9175L16.6223 8.46375L17.2423 6.15125C17.2854 5.99113 17.3904 5.85468 17.5341 5.77193C17.6778 5.68918 17.8485 5.6669 18.0086 5.71C18.1687 5.7531 18.3052 5.85804 18.3879 6.00174C18.4707 6.14544 18.4929 6.31613 18.4498 6.47625L18.1548 7.57875L19.5548 6.77125C19.6983 6.68968 19.8682 6.66816 20.0275 6.71141C20.1868 6.75465 20.3225 6.85914 20.405 7.00207C20.4875 7.145 20.5102 7.31476 20.468 7.47432C20.4258 7.63388 20.3222 7.77028 20.1798 7.85375L18.7798 8.66125L19.8836 8.9575C20.0437 9.0006 20.1802 9.10554 20.2629 9.24924C20.3457 9.39294 20.3679 9.56363 20.3248 9.72375C20.2817 9.88387 20.1768 10.0203 20.0331 10.1031C19.8894 10.1858 19.7187 10.2081 19.5586 10.165L17.2486 9.54625L12.9973 12L17.2473 14.4538L19.5586 13.835C19.7187 13.7921 19.8893 13.8145 20.0329 13.8974C20.1765 13.9802 20.2813 14.1168 20.3242 14.2769C20.3671 14.437 20.3447 14.6076 20.2618 14.7512C20.179 14.8948 20.0425 14.9996 19.8823 15.0425L18.7786 15.3387L20.1786 16.1463C20.321 16.2297 20.4246 16.3661 20.4667 16.5257C20.5089 16.6852 20.4863 16.855 20.4038 16.9979C20.3212 17.1409 20.1855 17.2454 20.0263 17.2886C19.867 17.3318 19.6971 17.3103 19.5536 17.2287L18.1536 16.4212L18.4486 17.525C18.4713 17.6048 18.478 17.6883 18.4681 17.7707C18.4582 17.853 18.4321 17.9326 18.3911 18.0048C18.3502 18.0769 18.2953 18.1402 18.2297 18.1909C18.164 18.2416 18.089 18.2788 18.0088 18.3002C17.9287 18.3216 17.8451 18.3268 17.7629 18.3156C17.6807 18.3044 17.6015 18.2769 17.5301 18.2347C17.4586 18.1926 17.3963 18.1367 17.3467 18.0702C17.297 18.0037 17.2612 17.928 17.2411 17.8475L16.6223 15.5363L12.3723 13.0825V17.9913L14.0636 19.6825C14.1809 19.7997 14.2469 19.9587 14.2471 20.1246C14.2472 20.2904 14.1814 20.4495 14.0642 20.5669C13.947 20.6842 13.788 20.7502 13.6222 20.7503C13.4563 20.7505 13.2972 20.6847 13.1798 20.5675L12.3711 19.7587V21.375C12.3711 21.5408 12.3052 21.6997 12.188 21.8169C12.0708 21.9342 11.9131 22 11.7473 22Z" fill="#649D91"/>
</g>
<defs>
<clipPath id="clip0_6071_39689">
<rect width="24" height="24" fill="white"/>
</clipPath>
</defs>
</svg>
