<svg width="24" height="24" viewBox="0 0 24 24" fill="none" xmlns="http://www.w3.org/2000/svg">
<g clip-path="url(#clip0_6071_39684)">
<path d="M9.25 17.625C9.24982 17.9687 9.15517 18.3057 8.97639 18.5993C8.79761 18.8929 8.54158 19.1316 8.23629 19.2895C7.93099 19.4474 7.58817 19.5183 7.24528 19.4945C6.9024 19.4707 6.57265 19.3532 6.29207 19.1547C6.01149 18.9562 5.79087 18.6843 5.65432 18.3689C5.51777 18.0535 5.47055 17.7066 5.51781 17.3662C5.56508 17.0257 5.70501 16.7048 5.92232 16.4385C6.13963 16.1723 6.42595 15.9708 6.75 15.8563V13.875C6.75 13.7092 6.81585 13.5503 6.93306 13.4331C7.05027 13.3158 7.20924 13.25 7.375 13.25C7.54076 13.25 7.69973 13.3158 7.81694 13.4331C7.93415 13.5503 8 13.7092 8 13.875V15.8563C8.36572 15.9856 8.68234 16.2251 8.90622 16.5419C9.13009 16.8587 9.2502 17.2371 9.25 17.625Z" fill="#649D91"/>
<path d="M4.25 5.125C4.25 4.2962 4.57924 3.50134 5.16529 2.91529C5.75134 2.32924 6.5462 2 7.375 2C8.2038 2 8.99866 2.32924 9.58471 2.91529C10.1708 3.50134 10.5 4.2962 10.5 5.125V14.5625C11.1029 15.1779 11.5107 15.9575 11.6723 16.8037C11.8339 17.6499 11.7421 18.525 11.4084 19.3192C11.0746 20.1134 10.5139 20.7914 9.79633 21.2682C9.07881 21.745 8.23649 21.9994 7.375 21.9994C6.51351 21.9994 5.67119 21.745 4.95367 21.2682C4.23615 20.7914 3.67536 20.1134 3.34162 19.3192C3.00789 18.525 2.91606 17.6499 3.07766 16.8037C3.23926 15.9575 3.64708 15.1779 4.25 14.5625V5.125ZM7.375 3.25C6.87772 3.25 6.40081 3.44754 6.04918 3.79917C5.69755 4.15081 5.5 4.62772 5.5 5.125V15.1088L5.29125 15.2963C4.81947 15.7182 4.48691 16.2734 4.33759 16.8884C4.18827 17.5035 4.22923 18.1494 4.45504 18.7406C4.68085 19.3319 5.08087 19.8406 5.60217 20.1996C6.12347 20.5585 6.74146 20.7507 7.37438 20.7507C8.00729 20.7507 8.62529 20.5585 9.14659 20.1996C9.66788 19.8406 10.0679 19.3319 10.2937 18.7406C10.5195 18.1494 10.5605 17.5035 10.4112 16.8884C10.2618 16.2734 9.92929 15.7182 9.4575 15.2963L9.25 15.1075V5.125C9.25 4.62772 9.05246 4.15081 8.70083 3.79917C8.3492 3.44754 7.87228 3.25 7.375 3.25ZM13.625 4.5C13.7908 4.5 13.9497 4.56585 14.0669 4.68306C14.1842 4.80027 14.25 4.95924 14.25 5.125V6.74125L15.0575 5.9325C15.1749 5.81514 15.334 5.74921 15.5 5.74921C15.666 5.74921 15.8251 5.81514 15.9425 5.9325C16.0599 6.04986 16.1258 6.20903 16.1258 6.375C16.1258 6.54097 16.0599 6.70014 15.9425 6.8175L14.25 8.50875V10.9175L16.3363 9.71375L16.955 7.40125C16.9763 7.32196 17.0131 7.24766 17.0631 7.18257C17.1132 7.11749 17.1756 7.0629 17.2467 7.02193C17.3179 6.98096 17.3964 6.9544 17.4778 6.94377C17.5593 6.93315 17.642 6.93866 17.7213 6.96C17.8005 6.98134 17.8748 7.01809 17.9399 7.06814C18.005 7.1182 18.0596 7.18059 18.1006 7.25174C18.1415 7.32289 18.1681 7.40142 18.1787 7.48284C18.1894 7.56425 18.1838 7.64696 18.1625 7.72625L17.8663 8.82875L19.2663 8.02125C19.4097 7.93968 19.5796 7.91816 19.7389 7.96141C19.8982 8.00465 20.0339 8.10914 20.1164 8.25207C20.1989 8.395 20.2216 8.56476 20.1794 8.72432C20.1372 8.88388 20.0336 9.02028 19.8913 9.10375L18.4913 9.91125L19.5963 10.2075C19.6755 10.2288 19.7498 10.2656 19.8149 10.3156C19.88 10.3657 19.9346 10.4281 19.9756 10.4992C20.0165 10.5704 20.0431 10.6489 20.0537 10.7303C20.0644 10.8118 20.0588 10.8945 20.0375 10.9737C20.0162 11.053 19.9794 11.1273 19.9294 11.1924C19.8793 11.2575 19.8169 11.3121 19.7458 11.3531C19.6746 11.394 19.5961 11.4206 19.5147 11.4312C19.4333 11.4419 19.3505 11.4363 19.2713 11.415L16.9613 10.7963L14.875 12L16.9613 13.2038L19.2725 12.585C19.3523 12.5623 19.4358 12.5556 19.5182 12.5655C19.6005 12.5753 19.6801 12.6015 19.7523 12.6424C19.8244 12.6834 19.8877 12.7383 19.9384 12.8039C19.9891 12.8695 20.0263 12.9446 20.0477 13.0248C20.0691 13.1049 20.0743 13.1885 20.0631 13.2707C20.0519 13.3529 20.0244 13.432 19.9822 13.5035C19.9401 13.575 19.8842 13.6373 19.8177 13.6869C19.7512 13.7366 19.6755 13.7724 19.595 13.7925L18.4913 14.0887L19.8913 14.8963C20.0336 14.9797 20.1372 15.1161 20.1794 15.2757C20.2216 15.4352 20.1989 15.605 20.1164 15.7479C20.0339 15.8909 19.8982 15.9954 19.7389 16.0386C19.5796 16.0818 19.4097 16.0603 19.2663 15.9787L17.8663 15.1712L18.1625 16.275C18.1852 16.3548 18.1919 16.4383 18.182 16.5207C18.1722 16.603 18.146 16.6826 18.1051 16.7548C18.0641 16.8269 18.0092 16.8902 17.9436 16.9409C17.878 16.9916 17.8029 17.0288 17.7227 17.0502C17.6426 17.0716 17.559 17.0768 17.4768 17.0656C17.3946 17.0544 17.3155 17.0269 17.244 16.9847C17.1725 16.9426 17.1102 16.8867 17.0606 16.8202C17.0109 16.7537 16.9751 16.678 16.955 16.5975L16.3375 14.2875L14.25 13.0825V15.4913L15.9425 17.1825C16.0006 17.2406 16.0467 17.3096 16.0782 17.3855C16.1096 17.4614 16.1258 17.5428 16.1258 17.625C16.1258 17.7072 16.1096 17.7886 16.0782 17.8645C16.0467 17.9404 16.0006 18.0094 15.9425 18.0675C15.8844 18.1256 15.8154 18.1717 15.7395 18.2032C15.6636 18.2346 15.5822 18.2508 15.5 18.2508C15.4178 18.2508 15.3364 18.2346 15.2605 18.2032C15.1846 18.1717 15.1156 18.1256 15.0575 18.0675L14.25 17.2587V18.875C14.25 19.0408 14.1842 19.1997 14.0669 19.3169C13.9497 19.4342 13.7908 19.5 13.625 19.5C13.4592 19.5 13.3003 19.4342 13.1831 19.3169C13.0658 19.1997 13 19.0408 13 18.875V5.125C13 4.95924 13.0658 4.80027 13.1831 4.68306C13.3003 4.56585 13.4592 4.5 13.625 4.5Z" fill="#649D91"/>
</g>
<defs>
<clipPath id="clip0_6071_39684">
<rect width="24" height="24" fill="white"/>
</clipPath>
</defs>
</svg>
