<svg width="24" height="24" viewBox="0 0 24 24" fill="none" xmlns="http://www.w3.org/2000/svg">
<g clip-path="url(#clip0_6071_39693)">
<path d="M11.9221 4.27177C11.9466 4.25834 11.9742 4.25145 12.0021 4.25177C12.0296 4.25166 12.0567 4.25854 12.0809 4.27177C12.1093 4.28911 12.1326 4.3137 12.1484 4.34302L20.7196 18.9268C20.7646 19.0018 20.7634 19.0818 20.7221 19.1555C20.705 19.1848 20.682 19.2104 20.6546 19.2305C20.6305 19.247 20.6013 19.2546 20.5721 19.2518H3.43213C3.40299 19.2546 3.37379 19.247 3.34963 19.2305C3.32226 19.2104 3.2993 19.1848 3.28213 19.1555C3.26205 19.1207 3.2517 19.081 3.25214 19.0408C3.25258 19.0006 3.2638 18.9612 3.28463 18.9268L11.8546 4.34302C11.8704 4.3137 11.8937 4.28911 11.9221 4.27177ZM13.2271 3.70927C13.1034 3.49373 12.925 3.31465 12.7099 3.19011C12.4948 3.06558 12.2507 3 12.0021 3C11.7536 3 11.5095 3.06558 11.2944 3.19011C11.0793 3.31465 10.9009 3.49373 10.7771 3.70927L2.20588 18.293C1.63463 19.2655 2.31963 20.5018 3.43088 20.5018H20.5721C21.6834 20.5018 22.3696 19.2643 21.7971 18.293L13.2271 3.70927Z" fill="#649D91"/>
<path d="M10.752 16.7519C10.752 16.5877 10.7843 16.4252 10.8471 16.2735C10.9099 16.1218 11.002 15.984 11.1181 15.868C11.2341 15.7519 11.3719 15.6598 11.5236 15.597C11.6753 15.5342 11.8378 15.5019 12.002 15.5019C12.1661 15.5019 12.3287 15.5342 12.4803 15.597C12.632 15.6598 12.7698 15.7519 12.8858 15.868C13.0019 15.984 13.094 16.1218 13.1568 16.2735C13.2196 16.4252 13.252 16.5877 13.252 16.7519C13.252 17.0834 13.1203 17.4013 12.8858 17.6357C12.6514 17.8702 12.3335 18.0019 12.002 18.0019C11.6704 18.0019 11.3525 17.8702 11.1181 17.6357C10.8836 17.4013 10.752 17.0834 10.752 16.7519ZM10.8745 9.24561C10.8578 9.08791 10.8745 8.92847 10.9235 8.77764C10.9724 8.62681 11.0525 8.48796 11.1586 8.37009C11.2647 8.25222 11.3944 8.15797 11.5392 8.09346C11.6841 8.02894 11.8409 7.99561 11.9995 7.99561C12.158 7.99561 12.3148 8.02894 12.4597 8.09346C12.6045 8.15797 12.7342 8.25222 12.8403 8.37009C12.9464 8.48796 13.0265 8.62681 13.0755 8.77764C13.1244 8.92847 13.1411 9.08791 13.1245 9.24561L12.687 13.6294C12.6723 13.8016 12.5935 13.962 12.4661 14.0789C12.3388 14.1958 12.1723 14.2607 11.9995 14.2607C11.8266 14.2607 11.6601 14.1958 11.5328 14.0789C11.4055 13.962 11.3267 13.8016 11.312 13.6294L10.8745 9.24561Z" fill="#649D91"/>
</g>
<defs>
<clipPath id="clip0_6071_39693">
<rect width="24" height="24" fill="white"/>
</clipPath>
</defs>
</svg>
