<svg width="40" height="40" viewBox="0 0 40 40" fill="none" xmlns="http://www.w3.org/2000/svg">
<g clip-path="url(#clip0_6071_39777)">
<path d="M11.3444 28.2265C11.4847 28.2721 11.6144 28.3443 11.726 28.439C11.8377 28.5336 11.9292 28.6488 11.9952 28.778C12.0612 28.9071 12.1006 29.0478 12.1109 29.1918C12.1213 29.3358 12.1024 29.4804 12.0555 29.6173L10.9304 32.9131C10.8279 33.1791 10.6239 33.396 10.3612 33.5182C10.0985 33.6404 9.79751 33.6585 9.52143 33.5687C9.24535 33.4788 9.01567 33.288 8.88061 33.0363C8.74554 32.7846 8.71561 32.4916 8.7971 32.2188L9.92224 28.923C10.0163 28.6465 10.2189 28.4178 10.4856 28.2872C10.7523 28.1565 11.0612 28.1347 11.3444 28.2265ZM18.0953 28.2265C18.2355 28.2721 18.3652 28.3443 18.4769 28.439C18.5885 28.5336 18.68 28.6488 18.746 28.778C18.8121 28.9071 18.8514 29.0478 18.8618 29.1918C18.8721 29.3358 18.8533 29.4804 18.8064 29.6173L16.5561 36.209C16.4536 36.475 16.2496 36.6918 15.9869 36.8141C15.7242 36.9363 15.4232 36.9544 15.1471 36.8645C14.8711 36.7747 14.6414 36.5839 14.5063 36.3322C14.3713 36.0805 14.3413 35.7875 14.4228 35.5147L16.6731 28.923C16.7671 28.6465 16.9698 28.4178 17.2365 28.2872C17.5032 28.1565 17.8121 28.1347 18.0953 28.2265ZM24.8461 28.2265C24.9864 28.2721 25.1161 28.3443 25.2277 28.439C25.3394 28.5336 25.4309 28.6488 25.4969 28.778C25.5629 28.9071 25.6023 29.0478 25.6126 29.1918C25.623 29.3358 25.6041 29.4804 25.5572 29.6173L24.4321 32.9131C24.3296 33.1791 24.1256 33.396 23.8629 33.5182C23.6002 33.6404 23.2992 33.6585 23.0231 33.5687C22.7471 33.4788 22.5174 33.288 22.3823 33.0363C22.2472 32.7846 22.2173 32.4916 22.2988 32.2188L23.4239 28.923C23.518 28.6465 23.7206 28.4178 23.9873 28.2872C24.254 28.1565 24.5629 28.1347 24.8461 28.2265ZM31.597 28.2265C31.7372 28.2721 31.8669 28.3443 31.9786 28.439C32.0902 28.5336 32.1817 28.6488 32.2477 28.778C32.3138 28.9071 32.3531 29.0478 32.3635 29.1918C32.3738 29.3358 32.355 29.4804 32.3081 29.6173L30.0578 36.209C30.0154 36.3509 29.9441 36.4829 29.8483 36.5973C29.7524 36.7116 29.6339 36.8059 29.4998 36.8745C29.3658 36.9431 29.2189 36.9846 29.068 36.9964C28.9172 37.0083 28.7654 36.9904 28.6218 36.9436C28.4783 36.8969 28.3458 36.8224 28.2324 36.7245C28.119 36.6266 28.027 36.5074 27.9619 36.374C27.8968 36.2406 27.8599 36.0957 27.8535 35.948C27.8471 35.8004 27.8712 35.653 27.9245 35.5147L30.1748 28.923C30.2688 28.6465 30.4715 28.4178 30.7382 28.2872C31.0049 28.1565 31.3138 28.1347 31.597 28.2265ZM32.1528 12.8502C31.6855 10.5501 30.4768 8.45623 28.7036 6.87481C26.9303 5.29339 24.6854 4.30736 22.2971 4.06088C19.9088 3.8144 17.5024 4.3204 15.4297 5.5049C13.357 6.6894 11.7268 8.49027 10.7773 10.6442C9.7126 10.5244 8.63402 10.6181 7.60764 10.9195C6.58126 11.2209 5.62869 11.7237 4.80824 12.3971C3.98779 13.0705 3.31673 13.9003 2.83614 14.8357C2.35556 15.7711 2.07557 16.7925 2.0133 17.8372C1.95104 18.882 2.10782 19.9282 2.47404 20.9117C2.84026 21.8952 3.40822 22.7954 4.14314 23.5572C4.87806 24.3189 5.76448 24.9262 6.74812 25.3418C7.73177 25.7575 8.79194 25.9727 9.86373 25.9743H31.2414C32.9541 25.9762 34.6036 25.3424 35.8556 24.2013C37.1076 23.0602 37.8687 21.497 37.9845 19.8285C38.1004 18.16 37.5624 16.5109 36.4796 15.2152C35.3968 13.9195 33.8501 13.0741 32.1528 12.8502ZM21.1151 6.19921C23.3293 6.19876 25.466 6.9952 27.1166 8.43624C28.7672 9.87728 29.8159 11.8618 30.0623 14.0104C30.0929 14.2803 30.2248 14.5296 30.4326 14.7102C30.6403 14.8908 30.9093 14.9898 31.1874 14.9881H31.2414C32.435 14.9881 33.5798 15.4511 34.4238 16.2752C35.2678 17.0994 35.742 18.2171 35.742 19.3826C35.742 20.5481 35.2678 21.6658 34.4238 22.49C33.5798 23.3141 32.435 23.7771 31.2414 23.7771H9.86373C9.0673 23.7767 8.28002 23.6112 7.55399 23.2915C6.82796 22.9718 6.17971 22.5053 5.65213 21.9227C5.12456 21.3401 4.72968 20.6548 4.49362 19.9121C4.25755 19.1694 4.18569 18.3862 4.28278 17.6144C4.37986 16.8425 4.64369 16.0996 5.0568 15.4347C5.46991 14.7698 6.02289 14.1982 6.67917 13.7576C7.33544 13.317 8.08004 13.0175 8.86372 12.8789C9.6474 12.7403 10.4523 12.7657 11.2252 12.9535C11.5009 13.0206 11.7924 12.9834 12.0412 12.8493C12.29 12.7152 12.4776 12.4942 12.5663 12.2306C13.1604 10.475 14.3064 8.94713 15.8413 7.86427C17.3761 6.78141 19.2216 6.19876 21.1151 6.19921Z" fill="#649D91"/>
</g>
<defs>
<clipPath id="clip0_6071_39777">
<rect width="40" height="40" fill="white"/>
</clipPath>
</defs>
</svg>
