<svg width="40" height="40" viewBox="0 0 40 40" fill="none" xmlns="http://www.w3.org/2000/svg">
<g clip-path="url(#clip0_6071_39774)">
<path d="M15.5375 29.5633C15.5372 30.1477 15.3776 30.7207 15.0761 31.2197C14.7747 31.7188 14.343 32.1247 13.8283 32.3931C13.3136 32.6615 12.7356 32.7821 12.1574 32.7416C11.5793 32.7012 11.0234 32.5013 10.5503 32.1639C10.0772 31.8264 9.70525 31.3643 9.47503 30.828C9.24481 30.2918 9.16519 29.7021 9.24488 29.1233C9.32457 28.5446 9.5605 27.999 9.92689 27.5463C10.2933 27.0936 10.776 26.7511 11.3224 26.5564V23.1881C11.3224 22.9063 11.4334 22.6361 11.631 22.4368C11.8286 22.2376 12.0967 22.1256 12.3762 22.1256C12.6556 22.1256 12.9237 22.2376 13.1213 22.4368C13.3189 22.6361 13.4299 22.9063 13.4299 23.1881V26.5564C14.0465 26.7762 14.5804 27.1834 14.9578 27.722C15.3353 28.2605 15.5378 28.9039 15.5375 29.5633Z" fill="#649D91"/>
<path d="M7.10754 8.31267C7.10754 6.90366 7.66265 5.55236 8.65075 4.55604C9.63885 3.55973 10.979 3 12.3764 3C13.7738 3 15.1139 3.55973 16.102 4.55604C17.0901 5.55236 17.6452 6.90366 17.6452 8.31267V24.3569C18.6618 25.4031 19.3494 26.7285 19.6218 28.1671C19.8943 29.6057 19.7395 31.0934 19.1768 32.4436C18.6141 33.7938 17.6686 34.9465 16.4588 35.757C15.2491 36.5676 13.8289 37 12.3764 37C10.9239 37 9.50371 36.5676 8.29395 35.757C7.08418 34.9465 6.13868 33.7938 5.57599 32.4436C5.0133 31.0934 4.85848 29.6057 5.13094 28.1671C5.40339 26.7285 6.091 25.4031 7.10754 24.3569V8.31267ZM12.3764 5.12507C11.538 5.12507 10.7339 5.4609 10.141 6.05869C9.54814 6.65649 9.21508 7.46726 9.21508 8.31267V25.2856L8.86312 25.6043C8.06768 26.3216 7.50698 27.2655 7.25522 28.3111C7.00346 29.3567 7.07251 30.4548 7.45324 31.4599C7.83396 32.4651 8.50841 33.33 9.38734 33.9402C10.2663 34.5504 11.3082 34.8772 12.3753 34.8772C13.4424 34.8772 14.4844 34.5504 15.3633 33.9402C16.2423 33.33 16.9167 32.4651 17.2974 31.4599C17.6782 30.4548 17.7472 29.3567 17.4954 28.3111C17.2437 27.2655 16.683 26.3216 15.8875 25.6043L15.5377 25.2835V8.31267C15.5377 7.46726 15.2046 6.65649 14.6118 6.05869C14.0189 5.4609 13.2148 5.12507 12.3764 5.12507ZM22.9141 7.25014C23.1936 7.25014 23.4616 7.36208 23.6592 7.56134C23.8568 7.76061 23.9678 8.03087 23.9678 8.31267V11.0604L25.3293 9.68546C25.5272 9.48595 25.7956 9.37386 26.0754 9.37386C26.3552 9.37386 26.6236 9.48595 26.8215 9.68546C27.0193 9.88498 27.1305 10.1556 27.1305 10.4377C27.1305 10.7199 27.0193 10.9905 26.8215 11.19L23.9678 14.0652V18.1602L27.4853 16.1138L28.5286 12.1824C28.5645 12.0476 28.6265 11.9213 28.7109 11.8107C28.7953 11.7 28.9005 11.6072 29.0204 11.5376C29.1404 11.4679 29.2728 11.4227 29.4101 11.4047C29.5473 11.3866 29.6868 11.396 29.8205 11.4323C29.9542 11.4685 30.0794 11.531 30.1892 11.6161C30.2989 11.7012 30.3909 11.8073 30.46 11.9282C30.5291 12.0492 30.5739 12.1827 30.5918 12.3211C30.6097 12.4595 30.6004 12.6001 30.5644 12.7349L30.065 14.6092L32.4254 13.2365C32.6673 13.0978 32.9538 13.0612 33.2223 13.1347C33.4909 13.2082 33.7197 13.3859 33.8588 13.6289C33.9979 13.8718 34.0361 14.1605 33.965 14.4317C33.8939 14.703 33.7192 14.9349 33.4792 15.0768L31.1187 16.4496L32.9818 16.9532C33.1155 16.9895 33.2407 17.0519 33.3505 17.137C33.4602 17.2221 33.5522 17.3282 33.6213 17.4492C33.6904 17.5701 33.7352 17.7036 33.7531 17.842C33.771 17.9805 33.7617 18.1211 33.7257 18.2559C33.6898 18.3907 33.6278 18.517 33.5434 18.6276C33.459 18.7383 33.3538 18.8311 33.2339 18.9007C33.1139 18.9704 32.9815 19.0155 32.8442 19.0336C32.707 19.0517 32.5675 19.0423 32.4338 19.006L28.5391 17.9541L25.0216 20.0005L28.5391 22.047L32.4359 20.9951C32.5704 20.9564 32.7112 20.9451 32.8501 20.9619C32.989 20.9787 33.1232 21.0231 33.2448 21.0927C33.3665 21.1623 33.4732 21.2556 33.5587 21.3672C33.6442 21.4788 33.7068 21.6065 33.7429 21.7427C33.779 21.879 33.7878 22.0211 33.7689 22.1608C33.7499 22.3006 33.7036 22.4351 33.6326 22.5566C33.5615 22.6781 33.4672 22.7841 33.3551 22.8684C33.243 22.9528 33.1154 23.0138 32.9797 23.0479L31.1187 23.5515L33.4792 24.9243C33.7192 25.0662 33.8939 25.2981 33.965 25.5694C34.0361 25.8406 33.9979 26.1292 33.8588 26.3722C33.7197 26.6152 33.4909 26.7929 33.2223 26.8664C32.9538 26.9399 32.6673 26.9033 32.4254 26.7646L30.065 25.3918L30.5644 27.2683C30.6028 27.4039 30.614 27.5459 30.5973 27.6859C30.5807 27.8259 30.5366 27.9612 30.4676 28.0839C30.3986 28.2065 30.306 28.3141 30.1954 28.4004C30.0847 28.4866 29.9581 28.5497 29.823 28.5861C29.6878 28.6225 29.5469 28.6314 29.4083 28.6123C29.2697 28.5932 29.1363 28.5465 29.0158 28.4749C28.8953 28.4032 28.7902 28.3081 28.7065 28.1951C28.6229 28.0821 28.5624 27.9534 28.5286 27.8165L27.4874 23.8894L23.9678 21.8409V25.9359L26.8215 28.8111C26.9194 28.9099 26.9971 29.0271 27.0502 29.1562C27.1032 29.2853 27.1305 29.4236 27.1305 29.5633C27.1305 29.7031 27.1032 29.8414 27.0502 29.9705C26.9971 30.0995 26.9194 30.2168 26.8215 30.3156C26.7235 30.4144 26.6072 30.4928 26.4792 30.5462C26.3511 30.5997 26.2139 30.6272 26.0754 30.6272C25.9368 30.6272 25.7996 30.5997 25.6716 30.5462C25.5436 30.4928 25.4273 30.4144 25.3293 30.3156L23.9678 28.9407V31.6884C23.9678 31.9702 23.8568 32.2405 23.6592 32.4397C23.4616 32.639 23.1936 32.7509 22.9141 32.7509C22.6346 32.7509 22.3666 32.639 22.1689 32.4397C21.9713 32.2405 21.8603 31.9702 21.8603 31.6884V8.31267C21.8603 8.03087 21.9713 7.76061 22.1689 7.56134C22.3666 7.36208 22.6346 7.25014 22.9141 7.25014Z" fill="#649D91"/>
</g>
<defs>
<clipPath id="clip0_6071_39774">
<rect width="40" height="40" fill="white"/>
</clipPath>
</defs>
</svg>
