<svg width="40" height="40" viewBox="0 0 40 40" fill="none" xmlns="http://www.w3.org/2000/svg">
<g clip-path="url(#clip0_6071_39776)">
<path d="M29.7812 8.07143C28.4137 8.07143 27.1022 8.61703 26.1352 9.5882C25.1682 10.5594 24.625 11.8766 24.625 13.25C24.625 13.5247 24.5163 13.7881 24.323 13.9824C24.1296 14.1766 23.8673 14.2857 23.5937 14.2857C23.3202 14.2857 23.0579 14.1766 22.8645 13.9824C22.6711 13.7881 22.5625 13.5247 22.5625 13.25C22.5625 11.8161 22.9859 10.4144 23.7791 9.22212C24.5723 8.02986 25.6997 7.10061 27.0188 6.55188C28.3378 6.00314 29.7893 5.85957 31.1896 6.13931C32.5899 6.41905 33.8761 7.10955 34.8857 8.12348C35.8952 9.13741 36.5828 10.4292 36.8613 11.8356C37.1398 13.242 36.9969 14.6997 36.4505 16.0245C35.9041 17.3492 34.9789 18.4815 33.7918 19.2782C32.6047 20.0748 31.209 20.5 29.7812 20.5H5.03125C4.75775 20.5 4.49544 20.3909 4.30205 20.1966C4.10865 20.0024 4 19.739 4 19.4643C4 19.1896 4.10865 18.9262 4.30205 18.7319C4.49544 18.5377 4.75775 18.4286 5.03125 18.4286H29.7812C31.1488 18.4286 32.4603 17.883 33.4273 16.9118C34.3943 15.9406 34.9375 14.6234 34.9375 13.25C34.9375 11.8766 34.3943 10.5594 33.4273 9.5882C32.4603 8.61703 31.1488 8.07143 29.7812 8.07143ZM15.3437 10.1429C14.7967 10.1429 14.2721 10.3611 13.8853 10.7496C13.4985 11.138 13.2812 11.6649 13.2812 12.2143C13.2812 12.489 13.1726 12.7524 12.9792 12.9466C12.7858 13.1409 12.5235 13.25 12.25 13.25C11.9765 13.25 11.7142 13.1409 11.5208 12.9466C11.3274 12.7524 11.2187 12.489 11.2187 12.2143C11.2187 11.3949 11.4607 10.5939 11.9139 9.91264C12.3672 9.23135 13.0114 8.70035 13.7652 8.38679C14.5189 8.07322 15.3483 7.99118 16.1485 8.15104C16.9487 8.31089 17.6837 8.70546 18.2606 9.28485C18.8375 9.86423 19.2303 10.6024 19.3895 11.4061C19.5487 12.2097 19.467 13.0427 19.1548 13.7997C18.8425 14.5567 18.3138 15.2037 17.6355 15.6589C16.9571 16.1142 16.1596 16.3571 15.3437 16.3571H5.03125C4.75775 16.3571 4.49544 16.248 4.30205 16.0538C4.10865 15.8596 4 15.5961 4 15.3214C4 15.0467 4.10865 14.7833 4.30205 14.5891C4.49544 14.3948 4.75775 14.2857 5.03125 14.2857H15.3437C15.8908 14.2857 16.4154 14.0675 16.8022 13.679C17.1889 13.2905 17.4062 12.7637 17.4062 12.2143C17.4062 11.6649 17.1889 11.138 16.8022 10.7496C16.4154 10.3611 15.8908 10.1429 15.3437 10.1429ZM4 23.6071C4 23.3325 4.10865 23.069 4.30205 22.8748C4.49544 22.6805 4.75775 22.5714 5.03125 22.5714H25.7429C26.9666 22.5714 28.1629 22.9359 29.1805 23.6187C30.198 24.3016 30.9911 25.2721 31.4594 26.4076C31.9277 27.5431 32.0502 28.7926 31.8115 29.9981C31.5727 31.2035 30.9834 32.3108 30.1181 33.1799C29.2528 34.049 28.1503 34.6408 26.95 34.8806C25.7497 35.1204 24.5056 34.9973 23.375 34.527C22.2444 34.0566 21.278 33.2601 20.5982 32.2382C19.9183 31.2163 19.5554 30.0148 19.5554 28.7857C19.5554 28.511 19.664 28.2476 19.8574 28.0534C20.0508 27.8591 20.3131 27.75 20.5866 27.75C20.8601 27.75 21.1224 27.8591 21.3158 28.0534C21.5092 28.2476 21.6179 28.511 21.6179 28.7857C21.6179 29.6051 21.8598 30.4061 22.3131 31.0874C22.7663 31.7686 23.4106 32.2997 24.1643 32.6132C24.918 32.9268 25.7474 33.0088 26.5476 32.849C27.3478 32.6891 28.0828 32.2945 28.6597 31.7152C29.2366 31.1358 29.6294 30.3976 29.7886 29.5939C29.9478 28.7903 29.8661 27.9573 29.5539 27.2003C29.2417 26.4433 28.713 25.7963 28.0346 25.3411C27.3562 24.8858 26.5587 24.6429 25.7429 24.6429H5.03125C4.75775 24.6429 4.49544 24.5337 4.30205 24.3395C4.10865 24.1453 4 23.8818 4 23.6071Z" fill="#649D91"/>
</g>
<defs>
<clipPath id="clip0_6071_39776">
<rect width="40" height="40" fill="white"/>
</clipPath>
</defs>
</svg>
